<mxfile host="65bd71144e">
    <diagram id="S-SmAo2qMVFffolJiNFS" name="Page-1">
        <mxGraphModel dx="3730" dy="1540" grid="1" gridSize="10" guides="1" tooltips="1" connect="1" arrows="1" fold="1" page="1" pageScale="1" pageWidth="850" pageHeight="1100" math="0" shadow="0">
            <root>
                <mxCell id="0"/>
                <mxCell id="1" parent="0"/>
                <mxCell id="2" value="" style="shape=image;verticalLabelPosition=bottom;labelBackgroundColor=default;verticalAlign=top;aspect=fixed;imageAspect=0;image=data:image/jpeg,/9j/4AAQSkZJRgABAQAAAQABAAD/2wCEAAYGBgYHBgcICAcKCwoLCg8ODAwODxYQERAREBYiFRkVFRkVIh4kHhweJB42KiYmKjY+NDI0PkxERExfWl98fKcBBgYGBgcGBwgIBwoLCgsKDw4MDA4PFhAREBEQFiIVGRUVGRUiHiQeHB4kHjYqJiYqNj40MjQ+TERETF9aX3x8p//CABEIAtYF1gMBIgACEQEDEQH/xAAtAAADAQEBAAAAAAAAAAAAAAAAAQIDBAUBAQEBAAAAAAAAAAAAAAAAAAABAv/aAAwDAQACEAMQAAAC9sAMtM7LICyAed5GxIUSGeuOoxEPLTKtBA0MhzSUJq5aM9IsEwWeuJqAUJmOuegJgZa5GoAwDPTPQbTCLkKixMBZ6QaAxAGeuWgwAi8zQCBMM9ctKaagy1zq0yBpktMoTBORuaAEEuSwAGiamgACWqYENBU3FDE4UXFUBAARpnoMQOLg0EwTVTU0NAE1BYATSJvPQTQJOSxMEIKmgAEAUAEuRgA0xOaGAE1BQAwCbiwAAAAAGgALTmV5a5WaJglOFdEa4RrM7HLrXNZppOksqwiNswLCDRGRTSXYsFozZoma1SxnvkjLa5uww0WhmtQzjfMC2ZuwytaEOwhaIzdUQtAznWQLZmaIxp2Q7CJ2zAtxmWVjTsgsiY1igsiHYZDoRSEMJbATBJqqckVLVK4ZSRAhVZJFEFF5ssgi82qsgNFKC86LIZUkmpAWoB3lRbzC5SNHAWpBXmynmypkNCApKS6yo0IBuGWQyocFuGUSBWdFkhWdQaoBgEaZ2MAAAAAAAC01KZa42agHPG9UZa5Rn1YbUcXTBWmWsAEGemNagAAQ5aWIVoCNM9AEBlrkaNMADO40AQPO8zRoGAZ6Z6DaBy0FRYACmoNAmG0EaZ6DBDzvM1csaYZ3GlICDPTOtGnAAZ3FgCGnJTmgAJAG0wQhUmAApcmiAcsJqLAAIqSxMFSIuaoaIcVFaJgkBNzQNEOXNW0DQE1NiGEAxpoJuRUqBNCaoQMUaQMYJUGdK0lsWZ0gZQIoIuLGAAAAAAABaalMdsbKKBACztJTgXPaQz1ypLIFvOsjZ5o1M+c6Dk6E2eQusykNcLNFmLpk4TZ5NdCAWmNGinkOyOdp1Pn0XVQC1xo1Mw0UIq8mamYXBJss6KJBaY2aGbLzqDRw4shivKqtSRWdRWrhxRDJrO6YnDlyVUMoAhplCATkbTAAgaKABNE3NAAJNFDBJom4oaAIuasCENVNxQwIIuaphACoqaBMIaY00E1COppWgE5oAYouEsBQaIuKBphnpmmiYoCFc0DQMTAAAAALTUplrjZqBAASnNWACAzuLGgDk68zn6/J9VXzdPOmXVydZTQPzjrK0z0BMFnpkGvJR0vm6THCN7N+H0CWPO6g6CEagEXFFAAqkV56AMhTU1TCBMqLiwYQZ6RVgQDDO4uhMhRpnVFEQ2GbLqHREzpInTILDNWElus1ookpkGgZqnUlkROskVTMzQM1ZSLIidEZuqMzQInRUiwg0RjTsgsIWiJdhM6Ih0ySwyLCVYQtJJdMkpEMpEULMaSjY1QITTRiS1FSliS3KSXU0oAAAwAAAAoCUx1xs2IcMRSTksAE0ReegABnpkRn2As9A5OgErg7xcdmjPTPQAA5+jAM+jQ5eoDg6jUADh6dMzg3w7y2BncWUACaJ0z0GJwpqK0AgTVRpnoMTgi4qwIACLzumBBlrkaiYhoz0i6AIIuC3LGAQ1QMAmoKaYAEtMYATUhSYJhKZTBwk0JjBMJTBsKE0TcUMASaKABVIVNAARU0CYEXBQAAzO4tGApFyUAIYRc0CYKLlLAUi4SmmoAAADQwAAKAlWWuVlFMgtGasJNAyNUYVVGZqGefRkC1DM0DFaCQai5GqMadmZoGcb5o1o1yNQws0TM0FzjfMDQMnoGDqiTQIWiMrLILCJ1gZYQWGVqyWwUaQWNQAGekVTERWdTVuSKIZN51VkqLhzVuCNDNhUBoZhpAi3DKcAOHWhCi5SLeYaEAyXVkEXJNVWbLUg1IaEBcpFVkzQgKSCyA0mQtwFkAVmzRSi4EWQyiQV50lki1JJoSFEgVnSUJqk5LEwi4SmCgwQwAAAAAoCVZa5WaDQAEiZQgaAzuLGIHlpmaCBiCQCgATRF56AAGdwaCYxBGmWoABnpmW0wAIaC2gaETedjaAmoNGgaAm4sAAy1zNGiGJmdxdMCDPTOrBwgZncWMAIuCmmABLTGAE3BTTAAipoaYKbgbTAGSBTBwTUg1QJhAFMZCm4opMAZIAwIE1TaYARFJ0DBTcDGCGEUqEMFNwMYIoM2WSrCCgRYROuaW01AAAAAAAAKBQZa41qQFkAPOiyAtQBeNpZAt5uE1JS2QA8xNjMXRQha42WQFQQbmbLIAvHQsgLzeZs4CyATkTUhrSSFplRZnRUODVwyiWTplZRLHneZo5cMQTeWtAEEXnWjRDQEVFjACagtpgAS5oYARcFNMACamhgBFwUAABLmqbTgmoHUsaAlp0wIJqKKTAAlzQwIJqR1LpgRLmqYEEXFU0AARcUMAIuRjQxArigAEhlABnpmltNQYIAAAAAAYELPSKsMiaeYt8mavLQEgm8qLaAi8y3nYDg5unk6innRUrIs59TZzynXmsjqaBgEXFjFBeYywkoiyRSaNUJVAc6xOjoGKdIGyiSgzubEURE641nvFwOpIuNSDQIjWBqwgsMGaEOwidYGUyR0ZsALREUDKwNW5BlCKCFpIimQUzNhQNim5EU4kpmY3SKQp0gGwktERpmaFESrmgbJKCKGJtkzpAFIQwilQhgpmooaoAI0ytKcpWISyRahymjTUAGJgmCGCAGBCz0zrTLUDPQMk7AaIoZy7xqNCMxo0aY+LszMl0ZnJ11RzbWHNo9BcnbJGXTzpuxqAGemegY74Rh1ZXWuOyObrmo5c+l0894Lx3xMg6Yz4esNeLt4zs0AQBNxYwAx2zK5OzEt3AtctQAFFwWmjHoy0MLmiXaMp6YE2A6zM6uigCBolbBk3RNTQwAmoKmsydY0Mst2E0C5urA3qaEwIaYZVRFNGXRlqRc2YOrM6jQjk6JNaIJ2GTU0NoHJNXNSTBsYs1DPWTj62FAAmjKuWTrvOwcSmr5tledZnTEYHcADTBMAAQwAInLWaFoGbsMaWhC0DM0RhVWZPQM42zRliwWGRYIsMy0ZWrJKCc9oG2CYGdzYCzE50KaYxAICyQoSFedFOArOpNCSKJBXlZbgLzcmpIWpBaZUWQFZ1BqQFvNivOiiAuCTQkLIAvKi3my5SNCAbkCsqLeTLlSW8rLIAvKiyAuHJbgLIBuHVvNxcEmil1RJCvNlkBcOK0JCyCG86qyAaJNCQpyCvOiiQqHJoSFJBDVpUiVItM9QUjSDKtaAAGmAgYgABiIlNVYACDPTPQAATRNRYABlrkaNAwCGmMAE0Z6ZagCHneZo0DEzPTLUAIIuKtpgBCQVYECaJuKGICLiracABnpnY2gcXmaNMBBGmd0wIIvMsAACamgACKkppgARU2AATUlNAAEVFgAE1maNAxBNRdDRDipKaYAE1FgAE1I2AAEuaGAE1FUDhDCKmqAcKamqYAMM6mwGhKkBQSrRnRSQWGVFElNZVyUDAAAAAAAAAAiRTWjzCyAnXDQshFqci9eTdNDMW8qzTclLZIKs2aEMpIM9cdRpA87yNhAxBGmWhQiHnpnVtMYgSAsTAETeegAoed5moAAGemegADy0zNXLGII0y0ptEPO4LBDCRXnYwAz0zNAAAIuKGAEXBYgYIi4sAAz0zrQTgAIvPSgCCLgsAACLiihMJrM0EwAIqLGAEXFU04ACKi6AIJqasTBoJqaBpim8y2gaAm4oAEipobQrzuEtpqAAAAAAAAAnEOapgAAZ6ZagARx9fOb3FgTynXmwsGIYQNmOvB6JJSM6VkFonn24k7XbXN2GNLI2dM58e/lL0nUzNAyWiE6ZC0Rm3Znwb8p3vWANCILDKi6g5t4eemNbOqiC0Y6RoBfOaxpkaBZGOiCjI1MOgUugLDN2jNlklhEbQCtkFBlTogsInWBFshaBk3VQ6cRGsUyiJLDKlZLbJnSKCyJKDNuqh0RMaxQ2QigyoupKCZ0kCgQwzooRQTOkoDBDCaTBNCaY3LVxUpbTUAAAAAAAAQnGd53VCBoDPTLUE0c2fTBemegstkcXRnB2AhuWTU0cfZx9kAipvPQM9OAfTrkaPHUYBhkbGwAcPd55t1ZawwCZaqwBoROmdmfB6mMaxedaMIARItDg7Z0MXaOH0c9Dgvdrx9VUl4bwVwejmZ9CZKoI5umzJ6wAgsAACLz0GIHF5lgwAM7jQTAUaZlgAAZ3FgAEXFWBAARcWAA4vOtBOAAi89AACLirmpigCai6AAmpKBDAIuLGIHFQaCBoQOaQE1m87RuWrzuEtoUGACGIGgAAQiM2rpFBJSM6Vohi459UGe00AAZaQl8+2C9LkFUUNzmZdfPsTrlZRCL59OM36s2U8wy6MrLIC+XfkOyoDQzY4cGxmGigHeVGhm4rNzWxmRoZsWmVVoZuLzcmpAaKALxo0Mw1hSbKAszYXlRZAXBJqQFkAtMqLMw0gk1eYaEAXlRZAXDkslFqQWmVFEhUPOtiCLIYrzqqIC4JNXmRoZgXm7NCBbglNCUuhBBebqyGVDlNCBbIYrzpKcC1Ik0IasSQqKGIWbhpQhaipSwFAAAAAAAAIaIz0y0qhENCqNcdRgBFwFxQwAy0zJ1aGIIuLHnoACJuLAAxu4LAGmjO40CaDn00gsTGAKaktNQJonTOxgBF51oBAARpnoDQEXBoAABncWAwUaZlgxAEVNgAEXBYAAEXFiGgmoNABgE1FgAE1BaYJMM7iwGCjTMsAACLi6AIIqKthAARcWAARcVYAAE1NgAKbgpgABLVADEqkYwQ0iaolsIaoRSFNwW01AAAAAAAAMmiMtsNKskiiHU68+yUIVxWZdRQxMM7yNRMACLzsbQNAReegxARcFtAwRGmWgwAi4KaYxOJTmrAgTRGmelAEEXFWwgAIvPQYmGdyW5YwRFxY0wUaZlgAAZ6Z2MAIuSgAAIqLGJii4LaBiBXnYwAi5KAEAReegACi4LAAAi87piIM9ILaAAI0zsYARcVTQMTJqLGCHFyUJgIJqaG0AnJYgaaRVLGCJqaGgCLgtpqAAAAgaAYBiIjPTPSlNxE3TrHTLdJLFmNoJqmQWyMejnDVaGZbMadJBoLBaM6WhBbM52zAtmZojKiyHTInWBF0ZOwzWiEaEZLVGVRvUGhGa1mpduMxaHLrz9Yi2ZztmDsINEZU6ILCJ1gCgh0GNlEtsmbkpWEFBnRRBeRU65FqmQ2zOihNsmdIGrDl15O8yosgsInWBFhBYY06qClCnWKAollGVzoSWRE6xQrCSgzooljErkapCVYlXw9yBQqm5RjZI0JlCVIljEUhTcltCsQAAAAAABgIiNMdaYlE6wHJtG9auXDzvOtHNDEBydfOa2QUqyJcWLVZnRzdHKb6Z6AAGemZoASufGOxZYV3PHOO2UVbTACEnNac/RjDvCg2x0M810GOgGpjmHXjscVuDTfi7A553NgBiCLz0JFJeW3IX0ZaDQENUNqTCqoNctTm1nYxqdhc/TI+Xr5Dpy2wDfPQjTPQYARcE83WjI6IM94sAQcnRkKd8StsmRrFVhydTjr4+3nMg6xgiby1GSx46+aduvLsW+KjonHatQBySaIB8XTzmm2GCeg5ak1KU1BGBJ24dDII0HUWNAEVBoAoAAAAAAABzEkZ7c2lavFxqs2Z9OF1qZEa5OLN3k10eQaZkpuZpdTMDTFpqZi6xLDTGjQyZpk4NzMHzdGY9cdDTGg0hSa1izUyC5Um+TQ65txa40aPMLgkuWRoZg1N1VZkaZODczDQzB3jRoZhpmSXWbKUod42Xmw0hSbGbNCAdZssgLyqTQgLIA0ws0eYaQSavMLIBXmy0kXAjQgG4CNOdBvjuVDitSCLg5y9+bcohk4a1S3gjPVFK8qLUhUVBqSjHp590ydMskKlSakI5+vHQqs2FSBWdFkBUNGgmoAAADQAAAcYlEa4bEmcnWRBenN0FCRcZ3WjTGJwRWNbkWMSJ04uwYAAhVFgYbhhtynYHNHS5ineXOdpFwRM1tU0AEKLzrXlMI69Via3noAMU1JankO18fYRcWDQEacZ1mOwDRN56AlznVCg2ObpBc+5LWJrphJ0zUhaBtBNTYABFwWABLIuLGAE1JYA0BFTYACmpKAAAi4oEwUXmaJoFSIvPQABxcVYOEqRNRdJgEXJU2CYEXNIJgk0MYE1I2MQwikwYEqpLAUGCaYJoYmABwIUue3PunLrqzPHrRy9mWoufRllxWrlxQmY8fo81Xo6OXXVnH2c/QDTBNEVFi0ijHLpk15+jOHl0FYc/YGNas5uhyVUsYAuLtxMNd6jl6ZojTPSgCCLgwuwncDPTPQAA4u2Dk7stQAI0z0Fjuhc/VBleqObamZ3GhkAZ3noaiYxMm87GAEXBYIBMz0z0GCHNSWAABF52MAUXJQAJomosE0GekFgAmiLmgAHFTVgQ0BFxdgApLk0EwAIuLQAFLBgDlyW0DEE1NDAJTCgFYgYAAACGIPOBS4a572S6cSrDMpmHQWROsWOqayWEc/XAO2ZmgY09EzNBYWiMqdpm7SqNZB0EFsxo0MnoGc7SRVMg0DJayI0DM0DGnRBoGcbSMpmZojGy0h2SxOsCdhBYZUWQWEzrALQMzRGNlErQMltAiwlWGdFklhE65jVoh0GVFklMmNZA0CFaMrWhDoInWBOglWjK1ZKoJnSQKCVaM6LsgsWFco1YsFhmy0gtEq5GULJQkMoRQZlAimROkg6CSmZssh0zK1QwFGgABiYIAAPNQZuW+G1jcspEhploUIHFZm7llOWE1FaNOGII0y1picCaJvO6aCCXFatOAEZ7Y7UJqHFTTqWNpwpaqwIaAiosAAlzVtEUhEaY6lCYZ6ZmgAAibzsYARcFtME0Z6Z6ACCLzNUACZN56AAEXmaACAIvPQGmE1Bo0AAZ6Z6AAEVJQAJoipsTTJjTM0QAATeWgAhzUlgUJom87RoFJcJqS1achUWjE1ippGIHneZq5YxBN52DAmosYCgAAAAAAAHmIM3PXn1st5hrMou8aNTNl5vOzpeTXV5ONMzOzpeQuryYtcNE0MxdFCHeNpbzF0yeadLya6GYLXDQ0M2XBJo8w0IRczJu8KNTMC8qLIRpmSbGGhooBaY2mhm1uCDczI0UYG982xoZsuCDczDRQC0xstQFwSaqczZ5ULTGzQzZcEmpAUQC0xo0OTc1zEavMNDMHeNGhnBtBJqQFqEO8qqzMi83FmygWyEO8bSjg3l6cyLNzMNVCHeTNFAVMwdDzDWZRdZM0eTG86LMw0zeR0GVFkAaY2aEAXlqMQrEwAAAAAAPLBZuOue1iy0ylW1KwqbAYEXBpSYUoK8/ozPQDE3AI0z0pvDaHNc5z9/FZ1iYRlnXaYbQzJ09ePsACHFTVAAQRWWvHT7M7ikBGmegZbQOLzs5+zj7JQy1IvGTpFkbRNFs5jp8zbE7NuRnUGB0ReZqJgGYXx9YycDpgRfLaOhY2O+PY2chUXBogBTwHcjMOiaCakppjS5Dpvm3G4sMpg3rg0OzDflLquU6stcBbYb1bTgl4jXKw65zOiVQ2IcuR1OZsuD0DLE6LG+PqlqZws664OldiOdOlzznWczOjk6OM7LjI2OXYtZ9BQCxcUjAUABoGCGAAB5SazY0z0sM9IlHm7HthsU0DzuDVoDn6cjm7M9S3lqVz9HMZduTrTSSOfl1ZvoitctSPPffNce++McvZHRXH28nWMTgz0zq2med0vWDk68a2YwAiNMtaMdiFwehyVelKOfqlnn986GeG2Jn2Aa8XaHB2aI4tNdKwN1BFwXSYY7SY6rQ4t9kZuoHYzHVhydOWogYpvM1EERsiIuigAi4LYGa1ZjOtnL0sMLuCo0ZMaImpsXP0hmXJSYTlsjl20onPVENVYwJVNxTw6QkuY53q6zx6w5+f0OQ03Ay1nROY3ox1YQtJL4+xnPpeZj056A0yLz0GAomhiYAAAMQeXLnNnTC7NFJLUk2a1jRo82aZOTZ50W4C5FWlQ4pyyNM9LGDlh3NTatEqaxG0IymsOgytWS6Qp1gCmQWGS1kFbIWiM6VCdhzLn7kCxc3YZWWQ6cZxtFDsiSwwt0ZmgZxtFMsiHcmdLQgtETpI3TILDF2zM0CM986ZaiFeRlvy9xBYROsidBJYZ0rqHj0RE6wMoILDJuyFYZq1YDcsLTEqm6lU4ydRY26WItojQXNaoxppAxpclTTcsMNefqM6LIdhmtEIsInWSHbILDPTPQYCgACYAAJgAeVNTmzcaWAEpDmy6TGJjzvErbn1NXxdBosEdj5dTY5dSrxg6Z59DpUYm23n99J83TDi861aBp8J1acXaZRn1lRcFMBiCFxdZG/H2E1huJZdA88OU17pyOk59Q57xOy89AE4edxWgEMOM304+kFGR1568B3gDQGdTZy9EbnG9sTqaYAE53BCjrHnpmWNHPy66mnH08x3VPMdU1JYANBNwVlus4m+PsNQYJoia5DTTPUzjPYN8KN87gw6sXV2KPP6MemzXk7UvJuxLaFACObpac50inJ14prjtit20k3FjE1lNJYJXFSlAAARpnoANRMATENAAMQeXFxmq4tIZmtFwmjTtYMWWsI3Yc+1s5NdUDujDZs59loZ6Ni5evKsuzKyNUDhwmzgXTk6AnXDRMOrHRbgg1IDQzY4claZsw6ZQtMrOXotF8nRKR0wLmaAtMaTLbHZbghNzNy6TITrlVA0Vzb5ps8yXQhBphpWhmRpk5rUgjQzYXlRagKgmzUkltJCvN1ZAXBJqQFkMHnoU4IAmtTMNJkM9eboLIBuEazJFyps0eYamYF5UaGYaZuDUgNDMC8bLICs6g0IDRQBpjZZAMgNTMNJUmpAWpQ9IoYNQQDQNAAAAHl53GbLYmZehnG+NOlpEuyojeAdshjJGwp0Q41M9J1qW3ElqposkoJis02Y1TYZ3NgDFGkFgxACQFD5joAJvGyyaFN5GpnoAIm4saGKbgthAmiNM9BiAz0gsQMQRc0NAEuTQAACbzooTCLzLABATU0AATUVTQMTI0zsbRBNSUCGCI0iwBCSK0EBNSMAYmTUsYmOKhLBKxMi87RiFIvMsTAEiqaGJkVNDEBFSW0Di4KqaUAAAAAAAABh5EaZ5rVJJM9lvn3yTXLWF1S5jWHdlb46nNqaLy1OqdAmc2+G5Jgj0GmVLQ6i6cUR5GvdlXU0waCbz0DPThN8izoy25DZzROsWRydqA0gwW0nJ25dEX53oTVgBNSK4sGKHFRWjRANGemdjACLgoAGgm4sABTeZo0wAM7jQGAReZYAhomougCCLzqwAAJvPQGiHFTVoIAVTcWAEQDqgAi4KABpkVNAxBFwltCsAipsFSFFwNgE1KFTQmIVTQABLktoHFQXSagAAAAAwQ0Aw8mLjNdSwaB53FmiCWpaS4JrZ5s0ebHAzV5sjozZy9JRbhGsiKvN1ZIVnSLchThiqLAGGekFzYKNAzdBNjENE3Nkq0TGkjKCSgztUIpCm5KG4lWjOkqoIi5tAWGboIasRQTOkDbZKsMlcF0MUOS1ojMwZrRdQrIhaRQUyC0ZUtEksWFpBMdEiLRlTSZ68vUsYLQ2dMhaQAwRYZspIweq8PXzdaU6awWGVGiQtAzWkkmgZzrJJYQ6ZnSsksMy0J0EzpmaAKMBMAAAAAAAPKz0zzaGxDZM3NjY4AFM9M7NGmNoFUUU0xtAtMtBtMaclNOmAOKksAYmZ6Z6DEwi4NAAaBCY2gaAm89BoBRcGggaaJvOxgCmoNGnAmiOXpwOsysrn6ca1ckKOdB1Z7iqWVF5mjTAAxa0KAJgRtlqjCd6JqLAAM7gtooAIuLQaFedwZ9E0Cci5H1xWOzPN68euhoHnckUI1AIqaOSuoIWmaW01ACLi0YCqalKACLgoAACamgaZIMYAZ6QWDUAAAAAAAGIYeTnpnm2wAAIvNNAFYgedxZoAMAm87KaYwCdcdRuaHNSVU0MRTlyW0wAI0iihA87g0EFEsQgsQNCFcUUSwlwaCBiQrzosgKkg2IIskMI6KMtWFcuvNXRpIU5ArNlkMvNwbPMjQgHWVFkBcEVsQGizAvOiiVFwRWpAWpQ7xtLIFuVKavNrcCFtkzQzZzdUI0MmaSkaPNlkAVyZp6BhotwSmjgLIAvKiyApILJCoqRtADCKGSWGbbJKCVpmaNNQAAAAAAYgYB5Od55ujzDQgLgmzRwRZIrhqyxBSGRSsVDAbM7KE2xTpIOnUuglaSDpkOgzosh0EzpAymQ6CGUS2yVciaskpCVSMoJKCLixMBRpBYOAGRcWAARcFDBDDO5oGgJvMsAYMi89AAFFwW0DQyLihgCi4KGqE0Z6Z6DEAnJbQNOQqLAAhzibgDl4HQcjNM99Dn6JYxBUVKU0KxBNRaDQCAsTCLgYAwQqmhoCXLGAOLgtgowAENAAAAAAeTnplGrTlABxUlAACBVBYA0mRpndlAK3LRXnoNoGhF3FFCdE1Jo5YwCNM9AACLzNABiZLmhtAJoVRQxMU1JYA0BGmdg0wi4LaIYBFxYwQRedagQJomosAAi4LAGARcWNNBFwWAAwiougHCi5qkwkaIubEMFFwW0xzSJpMYg5vK1zjbpx9A5r6YpsYMCKmkaYpFwloFASKosaACWW5Bw5LcBaSHWbNDMG86LJCoA0AVgAIGmCAAAADyctc8tGhWAEXBohiTAipKaYmMz0i7GIWkhDTKyyGXKk2rJ1q8mWpRuZhqZsLxs0M2Xm4TYhLo8xHWVGhAtqAbhlvNlQBbgLUsm4ooQEXJQwFQZWUiVixOsILQWCwxo0IWgRG0AWEGgZUWQWGa1hAsWCxMqLILFidYAsIWiMadkLUMlpKc2mfYsrSTze/HFOxahyaa0uNahzPK01KZDoM2WQXyHQsthlhnj1eadzLOfk9DnN6TGxiVQUwBVIqVAmEVFg0BLRYCjQAAAADEAAB5GemWWgmoMRTpIFiwWGc6zYjQiDQMqV1Lpktsm89BtMJqa0qXFNAJzWgA2gm89AaYZ6ZmgmABF52UAE1IrihiYRUGgAAEXnoMTCLzNGiGCI0y0pgQZ6Z1oBACIvO6oRBF51qChiZnpnY3LHF52W0KNBGmeiDQpFQW0DQEXnoMQKL881687KlwPHWzk7FzG946lCDmJ0TUM11EE1POk7rZSZaaAK/P7uJOvTLQ5XfDL36RVliBxUlMBzUhU0ABlc6Cbkms9hiagAhghghggAAPIy1yzdQBiYReRsIGJilymgmrEGeuWljaFYBOmWqNoHF51s5qG5Y5arQTBoI1y1AAM9MzQAACKiksTUmpJ0ixMAipNAQxIm89BuQcVBqSFEAtMKTUyDbNQdBkLqs0PTCk1Mg1zUm6zRs8Qq8aNTINcxGpkGpkx6Ys1Mg0mQ1Mg1WYPTENlkjXGgWuYukw0qs0actarVQJbyYJhXFqG7gHNBWNYD2oKJCkMzqswx03MnoEFsznYMnqGRqGRsjI1DF7Bi9QTBQAYgGmAAAAmCGHj5azmt5aDADLSDVAMkHKmzczUavF2muDTZ4M2WYVpizYzZedVTGyS2ZmrTJ6hmahk9QzNQyNgyWwYmyMTYMjVmL1DI1DI2DE2DE2DI1DM0a5GoZPQMzQILCSglsEwgYAACYIaBMEMAAYAAAwAAQwAAAAAAAAAAQ0AMQ0A0AAAABQAAEAFIaGAS2AAAEAAAwAoTAAAAAAaYJgAAAAAAA0xNAwAEwAGJFEh5AnmzGoZGoZGoZPQM3bIpslsEwBgDQMAYA2im0xtNG0xtA2gYAwBgA0DAAAEwTAAABgAAAAAADTAAAAAAAAAAAGAIYACAAAAAAABpgAAAxAwAAAAAAAAAAAAEwAAEwAAQAAAAAANAAAAAAAAAAAAMAAKAAAAGAmAAAAAAAAAAACAAAKAgAAA8hp5ogBgAAAAwAAGgYAwAAGADQNpjcspy6pyxtNGJjExgDEwaBgAAAAAAADAAAAAAAAABpgCGAAAAhiYAAAAAAAAAAAAADQMTAAABgAAAAAAAAAAAAAAAAAAAJoAAAAAAAAAAAAAAAAAYAAAAAAMEwpMAAAAAAAAAAAAQABAACgACDyWGKgKABgDAAAAAYAADAAAAGAMAbAKAbChgjYAwBgDAGAmAAAAAAADQDAAAAAAAAGAIBgAACAAAYAAAAAAAAAIAYAAAAwAAAAGAAAAAAAAAAAAAAAAAAACAAAAAAAAAAAAAAAAYAAAANAMAAAAAAAKAAAAAAAAQQABAACCgBf//EAAL/2gAMAwEAAgADAAAAIQCSSdPbKEhLEOaGEEJmAIkFFFPOWTKPMaKLTF+7R2X51y734zvovviPiBOkC/2z5y1FGBFGCJDGDLHPACEKFAADFANPPNPBPXGImn4nNNNGcLGVGyLAsFOLAJSOEPKRRFZSyWBzV82gqtlrLkJEoIjIFmPFMGJGPPLLJCILCPKNHIOAKDFBHFMJEPPPPFjZdKrHggpMMDTGIDGqPODDJANJWAELL4+1/wC9PlPiP+uc89+Oo7LsZNsPt4sPGd1EjS4yBihAgDDhTijARwmyhxBQACDzBaVAhuyJ3iSQB+ZMtz+jRJbvJRYizYzhDSx3Svs1+wM9iu8fOo6Ja8Yfu/8AmT7vfw70kGcmMAYYEtoIY4BU0ss9QEwsIAU8WF3ysAI8c1E9aEOAQ+QgR8aVVMckozovYEDRXzdf8jvQva2/TZ7OzIPfmzYDbbTANg4cgwQ0gUYgwEdw5ocRUhUJI08AAw+YO8g88AIER8PZI88Wio6AA+h4U8oLkDUoLBT7FzyP3l//AD9+4xx/wgw4k0O692+oYDAADICAIGBHOKRCPMJGEQCQDPNAAOrOBBAMNMNkEA9osvJ0MGzNgIKlHLPLHODDKBivPyMokN4FixjkookDqnskBxTXUAEDAEPDFLLFOONMRAEJFaJCIdMMAAAAlNPHDCNDGDAEMICMHHHGPNKINBDDIJJHAPFJy9Q5e241963xz8govktvuhGw+06M9YOALqAApMIPCIPJLEHGKANTDDLCAB1CBHOPG8K9ILwDooPmNGHHIBO0NKCBKCJCBIj2d7b3389883/8sstg1gvuKx636OwdPKIspEnBhLMLNENHBPGANfMPPPPP/KKOBMNrJAJJoEOoMLPNDeGAIJNDDEKMLDpPpr83n11/2k3zq1p6vjvuujHGOiuJBJNEBgHOJKBJACILpPJZM9qyNCEMPA1NEAJOMCONHMFVGNbcNMF7fX7KQe++ovlkgrw4468z9wV3xc+X18kg5rh1tkn8ujwttjhkopqrjEAIMCDFKJKwoGFKEAMA8FCGiIOIPbPNALDAIJDEBOEHTHBHLOJgnpnl05z9xy43d8yZ66tsiqpmvqvptvhKngEgilHCmBJOIJNKECETG0hOPKDDPD5MDAOMAOFLAEOMOBHLOAB+Qd2E/wAY7CsO6caMuX8f/wBX5LpBzH7vDX/PHPcue7/q/uiKeCE6ys68kA8EoA0tpt8oY0884A/Ig8qkgFoT00OIIqckA0WXg1FY5lQiWTyq+WLPJnLHDfhXBRHzzPDT/Ib3Y/6X/mLma6+CAqCc+oYsQoksYs99sdoQ0QAAbE4wogswMSIcSokUsLAowoAgwwgUQpUySI3sjHiH+DDf/wAg51w02z5i4u00KvBojqhMjkItKjuNHFBMMMaeQVVaAaAAIAAG1DGKJKIEOJKIHrHJRJAJAbXw2FDNKzIlklwl2gtf4wbwa9fSzQ+Qe4dww7v+HvvvhClqpgFvjOIBAAOHCFFcIYCbMBDHPH9CNHXBCMK0pvoNKBPiLMAIFSVDPGErDilO2v1znz2+/wCUNHOs+K4cZ6pdOLKRr7BCC47UCnRaThEwjGykiXnS9wHTzzzzCPQJQhDCwAiQz5Sxi2BRRDwx30Bf+ZIQO+q/sEE/HfknMVNWkPW5QILy5lt7KZb6CoyZLL7hTzASSQhDiDC0mE2X3jBAAACOzIg0CQTgzigKRxw3CQSwFTwuz96j6Dbpots8X9Hf2GdHl2l4muxwbXum0oL57Iw7KLa7ZSwhgRAgzSSQwG0Wl2GgAAxwAOSJA3xCDgyBheQwhgCgQKgTi2wLpAICoeJIaffb64666152ULvZqo4o5q976L7Li6AgjDLBQDyzRRyFR1m3lUfXEQzzzzwVy64SoTgwRgTQX2BHACMQMxHfBP8Am/bDX7XXRNaprtJcV9tJJlDkkKF8Z9Sh7NbEX26KKKWeOI4MYsRk5tplFRdNU88888NIi6gG1As7Mw3koAISAskNssM04gggAemIGeHeOKOo9uQcZ1FBue2uuSuqG2aa+2S0qSSaAiokMUABFxNtnpZRNlc08088V+H+6WIwKA4Ik0kQYoftEXRpPMrza66XCCumX0KZFZxttgFl4degM2VqUdaDrvKmaOW2q+AS2MkYkoldJxdx1FlhUwoUIAU+tj6e4uKwkZwgQAl47Nk5MlB83vIy2Dri+uX8qprp16tDZZM9+Ao6FqBhOD7/AFlvrhhhnjFmuYDCAKcWfSRTfUdXDAABDNDK23qmbFOONE3DD4CLOEMOJAJPOFMPCNFYivuiqkkxRjijXVk9prvmns36goukgnkmlqQLVKGRacOXQd2a5eXOUELPCHPHj+Vblbl64MhsOshAqInqFmJOmPiilgJgnmvvLArdYVY7f0eQ+foMHqLpYagCvguqsnurtukMBULTNESMQVSQTcQVPPPPPGm/R1k9eYmdKEWHM5HYDPCAANLJAFPEMEEeKCmkmthsqnrn6/k6oqhtmrjjhvkluItVLMflVTRWXtQRSWTUkdfRSTCAANMImUuc9aoYZkklBlimrFtKPmFKhN3rkzXvvqkpx5sAlaetRDRU7YnC9m4um0tqj1ku3KgmumpvvmuZrbGVRQxW/YBUMLBAAKkQkbZetdZvdsB09GgJ7eC1OO7OKgHtMrtmylxyBwodUoZqMQyZjOzguoivmvivlu8muqtraoLJtGLDOQZdSScfXQFGMNDDjZrTeWu97LvjWtJXMXLDJNCCNGFFIOfIIIrNgguuN5mousslkkBisgkrsjLtirmmsSppDhcEREOfHwZ/ZceUYQXQACACMOmUocUUWTSuwxkyqFpBEKKQNDAKTHPTNFFOnNh3s5ly/m4oEE84su6q1trkCpukvl+h+rCsZOZPIZLdFUSJZCVeaeECNPDPu8m9EKbSdqS1vhLMK5CAUBNGJuAGlIYILaLWjlNHfpuAkEikmrdhpPPMOGJqDFDHBDqVRcxQUQawcwXa9fbY0SbWDLHPPHh06YxUIXfqwiDqOAGbNHCNAKLpJoAMNLHGNInujsijtmjgspihumkvjACDJqtpohnDKPGBGDdGDSNONWWYReZfaMMPPPMNs6gwqtbQCxbw/wBpg4SiRjURH0ilRz5BBTSYyaKbb6qZ4raIKKIYKYzqSBxi5B6ziLgRyBxSTEQxxQSzmmUf0sG2gxzzDTC6Yo3Ye0kWw2NbbaDACSxThSzzSgyzzwSgQQwJIwKqK5oIIp4K45bYhqAgT1SDSzGSjiQzQ3R+Azl23nk2ksGEEVSCAAAABIpqmNZVmU3GUKIJRRhAjRzBCACwjhzwxAwCyJbt+AYMroar47Iapdap6zgHQhDRJqCxxgATykjTUCG1U0lenE1lgADQzjAKL69Y51VGnHErqKoQijQQBzQhxRzQizCRQyx7LZNTjRShSJZJLDAzCIzRSHAWiwQiQTCyg1z2EVX2k1WGEfONmWzzzzwzA67Y3sLFVnOUsY55S0CiTqyxiQigRgSyDAyxBoorLbLLa6b7IoL65oYL7RBgiSQRiyzjTgSzwmgBmH0lHWX10133SARzzzCWrYr66bJo0Dn8XsMmQyCjwTRjyCAgjgAiShQZL4byJYr6odL5bKbKjrhCyCAzxDQh6KBjAVAEj1VlmHmVFE1vX9QAxDygBOZLZoIoKqFx1Nt7yjBQhpzdSV8AhSDixhRTxTDUSFRjhARzAADUAGXzQRzxCsxAXGRB320320Wll0+0+XXFEkEFyzzzjzyvreMIr1dM2kk8mgaeRSBiiQjAxBCRgTBghgSYaTKjqZQbBbLa6GSCGAigBwzQSTyAwwFQSWwHDEW6c1nEF322EkgDDDDzxZRiYjo9o6WzBsXRs+hywBTzzx1DAygjSxiyAig10NRyOFlU1lXN8ms2utO9eNqvcgGmt+EefMUnQ44l2a9c+NGTwyhSxzAKYhpB71eiSl/4LwTzF13cXEMd9u01HHUWgDDBDCC6N9KZPN4b6ILIIL776rfvfY77zz6CRBwAL4oBARyyhADgTyiwAhAQAkAIKbqqL7a5ZaTz3Eeddbe8OtOP/sMMf+sMMMMNPscM/wDrDXr3/PDCK++2qDjDSCe+++2KCCCC2+CAU84IAAAc8899wkgwpdhV9hdtVBVQu6uMMxbbTLvDvf8A/wCMNPvf+scMMctP/wD/AMww0529/wAMPPPpIJKMIIJb7776pKY4Z6IL77KCAABDjDyEFnAAyP30EEF2F2F30B6KID2GOOOON/8A/wD3www3/wCN8MN/+N/+MMN+MP8ADf8A4wwwgggoggggnvvvnonvvvggvngggngHHPHIXQw3QP/EAAL/2gAMAwEAAgADAAAAEKiMBNnCeo8vWU2ZRvdJaSHXvef7JG5UGDS1Ae/nB3D19m4uvl791+yf+dT6br/n2m8cTbYbSXSPDMLFPCJNCNEMGMGPPNMEgOZ9jCVEanVd7SQ9BfgqEsvLV8O9/U2AO/EMjNchDox18803R0bX7X7Xa2UcfWfYXaZWQdeIGLNAJFAELNOmFHCKJMUPQHNCP7JGOOxlbSzQYjdOQdjSxcc/Ke7Wptop/m8/D7W0+j5i67q655r10vhk/wDKSMRBnGdk22mmxyDByBjQAjGQTSihDRwE30wlHHqTPb46b4RGkpH6uKS/xaD8/wARO5Z5oj6CEDpquN/KGzTDPDCzLOSCPD+mepXlN/5rllRE8BocEY1sksQRYwskIxpBQk6v1BdJZYy8spN6RFvfR78egnlxdzJ2RDuYP/sPF6GdCrDOGoafedGWLKtee26V45FBthd8QiAg4ERYbIk1Mzwd4Z9BdNic/t29V/17w1xWjiN5F1khqow3dt/Kn217Sgr3cPXD2wv6PLqvWaLTemva1aLfXXxR9tl11lJAUIEY1IQAs8UJMBcxh1R9WtJFe+mGyUWL94oUCte+taomycCuKOy0cut7XnlSZrTQWhjarDfbv9HzHXde0wQPh9P1AZ5cNcUoY4LQ4kYXQEQfkR9JQMq91hddR7NONNOdBe975Nvx7xZPl9eFuNddx6C7sTc7pOrOf3WX3TbLbnPbV2OSStWUFZFT19uccAgkUkMMc40wkvQx1Y08Hj1BYtdl7Bf/ACTxfEaC+34dxYYSz7ncvcRXcS86O9J1cl7qjzsnw1+4s3+zYhoklRhJeXX1/ZwOvLCJCKILBCFNEwMffEDE09USSRdJbzcfLRSDVhTRSDbYc+RbXZMQdQ/Rx5vywMHpowig8r1kz04/83eRV22VVQdSW6APGOPACAFGkKMYlQs+GCEMPH80Sd9eW3elSUtNfhE/Tf79FP5VaJi34++57wNrm6vbZ7wIQxh7II58y8yv/wD8Y88YudNPsttP7KyAxyhTDi56tLb2yhQzBt7nGAUNqm9U34FN73rEH9kv0RM2Wq0F+8MNvJ4r+ruXIujRcrIevNuv/f8AvTjPPx7PpzrPNwOco0U0wQcssHQ36sY9pMswPGBp6VB2BylBlFNG1HlJrvY4Lvny/wD3aqt1twr1MbEd9D6L/wB5kqKq72aqxG/sYJ/b9+NeclqIjoiiAhTjBjWVMzjh3nSTzMKO9TDL831LLQDQhkpXlAbWBjdSjEcbbv8ATbmDkNaldsXYbnOBKeGux1MYt2/yy/2PHnbbBmDY+8NkEg00MspFALg9ps88raVJKJjql07n4IBa0N+CT93h9ypd3MMzn1adyOrwPQY+A9Mk6gCoOj0/+SZ7Vfb7r13f03cyu8IYsA0UVdh51XMjAR1c0wrGZB6VNGRyRtGjtKMzV1rAwPmK5xNu03HfXTfsffEx38bg/rMHE7X4vkdib+5n7rz1TrSLYT/4MAcAwMoEUR4FEfEwFMc8G+1AXZ/qVZog4+yq4gCuCBH8Y26WmvbTP5evaaPsoYo06cisi4FlY/tRmcDz13rgsqDPtZBs70Ih4wlk5IdfMBSjY084w8nG/tuhVm1rltg5VjAp9B/V9cB3WWuvFWaDn+XDazkDmsasvXg3VzBd/tWwnxDPLdX4yvu7Uo8Y48Q0kYMM1npjVrsMs0889yDpj9W65391UtJy871lL8xVLDC7U3dnj/66pncXgCbAnC33ZL4nvhaAW6JtvjLJrau/vDow4MEwYoYA8cR1lXZ/4QgMQw9YP97Eyu4GOuxaHunnz2EZfZcub/0/hTuC7Xg8H9BNpZO9aCx8tZHnFVVQBB1zjgeMwIgTgQsg8EY4H4n5D7TVFasM08MAzEvH1L/JxrRJSIQOgf1CLDdkrF+CefquamcgnKdqIiWzHq3vOj4HntaT7qxqISQ8TnP377POmpQU0IHMZ9kZjJRj8c888wnm7bU3Py2p2mB+KKaoXxy0G7L2QY0BY/T8a2YhHldreZfveWS+Jx9PRtJ9dHvLjCf9Kiq/YWQEQUMnnNPz7H3/AHdqCNNPPJ38K7tyPc0vXZ0XRvUooKwsDN9GErv65g9z0xN7Tmqk7in/AI/eP08uUL3MrUIh4Pffd+PvfwLohjRizFUNFFknem4BChQgxZ9dJe/B/wDQ18upFuc3WkRI9MQSsgVfHWqjzrU/R7gaixK0eePTB37h2BeeTAY+7DXzL/OjA/etQsQwRBD9FBN3lq0MAAEMg9U6ey/g0+C6wE8RMqMoCiWqEqcAEgYpMtGqhVf9twqtVxWaRsFNtPF500znjHPOfuv3VAFc4b11UjLCOqcmaDgvss8Ic87QtiZjuuOg7b0bnUThvnSTh9rA3bGjp7HOpTXHt3aLj8nUbDEnxLv57hi69/R7H2rq7n63yscJQH4YBUpNcJBltNg0w0kAxgj4LA1U7psk7wkZ8/MsaAieUOwkw4MYMt4k0gGxvZdf5d0Ib4mZlW2aNNT77rHcKFQ8BrZ93mfNHDPPCOJqC+5HE4w8IMBzDeQzfjqnHPgvD3jxndPTpRTzG7yi17+uf+o1LftKeBu3eSA/xbcvELvQ/PfQHTokLrXBWn6mLj+3EpVZcBVLUWsckEgAxVP/AP13Q6yUv5LhxMydoNunLfo6U2A0b59tnlNFWJ6juQnQ6kIxfyH/AMecEdOotfrTJf8ALTZPswCkgWUZ5Rld/OBuc88M4AdXCIOjdY0Q/rzn1TZnogutq+0i4OqozgoQq87jin0ElPz3Nt1dtHjSPqXHsjyHzaqJGeoWJA7w0tI8TkrpbVv7dSgkIAAAB5CdhpCvbRd4/ifkLehF+s1hFOElhs9VRC6Y/wAlvMsDB5H27zJF91Ciqu/+dWm190oxm+CvYFxLCTDlHQeMFHeaR2EDNIDEXwl2COp/xZyYw/OudVED2lkpkKpoEX1CBfG7loNN5trCkNy6/wC0pbSBATCj+z1nhE57Mt+wsvMtCPBtuBpZoCeLfAiRzzw1/OEsEcobVyMSORBmcyjZkJFlQbwoDgEDBmwfPcdte8efNd888fd4qeQzDS/I+NbvkXhDyQw8SBvypSnWnE2/WohwTTTzDWe5u47qHShcWZZsEOnH0dxvBgWTFNfsVX2NX/P9uP8A77jH73fjHyzUHRJAMzILJMPARwcgsEnM84AO8F5lBJNt2EQocw0wNqeRKL2XbfS8X3TlFbZJaxPFd5dXS1W4E5FAbHJ/Kj/f3Pnb+HemLoPgogbksQU/sGt4oYRChqWbBzzXHLtDCnqcggMIAA9fCx7O+txu/wAr/wCP3VnVnqmuG1mWkpFQ2Wj20te7Jgd6P9f9ds8qfZ9duGHOiT0x9f33xzTSxeBh3hlF0Xe2s9GPAzgjQgyqPMdJ5THU+tKvtNN2nlnM3PkmWmM9mZzCYmF/ceLlVFVnwe8eewQxB86jCNyMVShjjghAw/h/Xmu3tWu9u/OuHbAwzzBzCLsKm/Lr1mjtRGXdFQbkxQtKLjr1cq0ZxC6nydP8/tPOOOdNPsOv9uYe6GWYQh32nHTSTCSRjHSwGVkkEE3FX3WKCARzjAz0f9o7epbLsJficJYTSVH9Vpk123lznJlnP10O+9eVOdcOvZtdO/8AKc7xNFw5UdJgZfDkckxQFcVxZrj/AH99x3eeHADEPFPBw1wm33qisVC5PQzXfhfdLlRp0cgqqjqEMitq112C2AJlDFCBPH/rW3Gvoqsmc/o5zIFQZ5gz4Ywate7X9cXW7apLPPKDAO1pw8t2R5x9e3F+bwiVbd+QmVepbZqWjYe7ay93F9J33uxIy6/x6JC7LqWRiXpTSiRgHzBPcNWOaYvHd9V60aoIiAIHOLDOKi7lya1xy1LBJzS7hSbcoaveS1QatUjTTgItPH7cINmExsScveIDvIrBQUXYZCRXk71DFmOFKth+XepsfJDBJmFDKKHOMKNd+E+fI4C/9S12EIP107W57ReaQw896+2lPJJCDRzgv03sh234x+w0x3zx5mph/wA/0kN1UXiAYarxwihCBBwRgCiwBiwwwjvHQinFW2HXn9H4M+kfpMr/AHHbvfbG+6WrTDL3737XzP8A1+6+y8nhv95/60zohmw3+wzwxx+ykmngvLLOCBPPJLNOcfEPDKcYSfdYZf0ug9Y24Ao3X93x9862/wCPu8dvesdPP8uffvt+POeuv/8ADWOOnv8A52k4yx672w1728ioorgtsoIPPLBPFPedSPDA/fXQXYffY433334/IwwQ/wAP+P8AjffD/jjDjfDDffjjDf8Aw343w34/4/8A5/8A/wDw/wCMP9+MMON+P774L554IJ6LyCADx13+N0D/xAArEQABBAEEAwACAwABBQAAAAABABARMUEgITBRAhJhQIEDUHEiE0JSYnD/2gAIAQIBAT8AQsOMtCI2DeNvj9ubLCi5wwtzQYWEbLYc6TQYW+AwtZLYc8IRtsH+g8bDDxJlAEzC8vbxMEIAH+Py8hYv/CjhShaktj9ubYUVJUlElSUCVJUlGgwRtsFzeiR0sBbIW2yLC0eHZh+URpydQXjYb38QSRMkLx/2F/MZ/k8t14H1/i/k+wEaDC3x+3NsKL4DC3NBhaNlsFywc0GFvgPktjTh8lsHlyfxwvG22QjdbdokQAjGy27QtQO1A7UCLyoHaAHaMTagdoUVChoQ8d16qFGwUKERu2C5CgoBQWNBhbmgwtZLY04fJbB04PIL5cnX43xmmCNsMqN0QqhvHbdEMX8mFFzpNBhaksaD5LyVKkthhx5OslhpB04PEMvguWFvhBFG28cot5UGFryY0P8AXLCi50mgwsPgMLWS2NOGFrJbDC0b4snXga8ML4Bl5KkqSpKlAqVKwvb4vb4id1KB2KlSOkSp+IWpHSlGh/qkdKR0jE0pHSwVstkWDbLAWyFrbtsMLRjXjThg+C5HIdJGgXwCjqLC3FObYZc0GFvj9ubYUdItzQYW+BxY04YI8Y5xfAKOoqELRCCwoRCI3YBQoKNBhb4RCARtsHgNBhfLgfgj8EXwCjqLC3NOSw0i3BclSeEsLedgpKn+jGgBAcIQovhywt7Dm2DmgwfDm2wWCOsWjoCPMLfHEeIhAuNYQpyWBRYW2ynZzbBzQYOKLm1sp2K27Y6cBhpCOvA04DB8MPwjyCv25oObYW+HNsHNBhb4/aLG2FFzpNDSWFvgacBHQaHIL554sftgEaCgqCjZUFeNqCoKwFBbytg5oMBvqNtguWDmhpLC3wNOAwtFjQYW+AwfDC3wOTAYcGP2+AwKNsFKlTspKko2pK8bUlSVvAUlAlZLYUlSUbUnhNDVKGkOaDC3NBhb4DC9It8DkphwYDnDmy3iHjZBjbB8BhaLB8lhRcsHLBFiwtzQYW5oMLfAYXpFvgMLfA5hwYDlgjZWy8cqlIWFt2jCMStl4xuoHagdraAtkIlbLbtBQO1A7RYZ0jRGoaIQcsNIt42UFC3NBQUOUhiFCHBgOcMLCNlg+P25vSaGnBc2wzwGgwc0NJoMLcsHJ0mgwtywvlJaWFHgNeLlhYRssHx+3NsHwGFhG2wWCNsM8BYOaGk0GFuaDC+DAYOfwSGFHWEaCksSpKEyiTKkoKSpKJKkqSjbBAqSsBgiUCp2aUTvwSpRUqf6YhgGARQCJYUeA0NIsLJYOXNsHNBhYRtsOb1jLmgw4g5oaThgwRjSeIDUC4o8BiBu5CheNhQoQFqFCjYKFCNqEA+A0bhRuVCwVCgohQgFCjTBRUHmNBQ0cIy54SFDQoaEAoYUeA4/xzbeNuKLmg5thl8BhaNlsFzfEeQOWHFhzoHATpJYVweWP8c23jbgOaDm2GWysBhYWSwov5Wwc6cDkD9MNI04LnQEeQhsfvg8jv8AoOTup+LxulI6U/EDalSp2GykdKR0id6UjpT8U/FPxYClTuETvSkdKdqUjpSOkTvSkdIFSOlI6RPxToJW3MTzkjpSOtOzbLbpS8jpWpUqVsjXB525st424ouaD+VsMuaDCwjZbBc2wouUUMudPTB8Bg5wwctgubbBc22C+S2C+S2BrwNYXkDKgoWiDJUFeIMqCoKFFQVBRGwUFQV5AyV6lAHdQVBRoKCgCCiCSVBWCoKgojdQUAYKgqCiCoKAKgqCiKUFAKFBUUoOiNgoKAUKEVBQGnBc2oUbFQVBRG7RsVBUFEGVBUGFBUFQVBUFQUAVBUIqCjQ1heR3UsbYW4ouaDm2GXNBhaNoLBc2wRYuWLC3609MGHGbRWHNoLDBG2wwvT4sCi2BrFryssLRYW+HNBgjbljQYWjZQWC5thRcsMvgMA50lg514Lm2wwtZLYYXpGsI2xxrFryssLcLZbLDbI0FsxsrZCN1stkVshEoxNLZbQVstukbWyFFttGy2XS2Q4hlzpLYLm2ww0i9I+NIRLAsCpRKN6xYXlZYXqwdIXlaCFF8BhbitI2c6Sigig4y5YZc6S2C5tsML0i9Iy5bGk3rFo2WFuHwdIRtQUAYKg9FQeiiDA2KgqDKgqCo2KgqCiDKgqDphoLQUFEqCiOCHhoUIsAoUIhQsF4UKNgoQtQoRFbqEAoUIhQoUDtCFA7Y3rFo2WB3UqfgQKnRJUlSUCUSZUlAmCpPZUlEmApKFvalAo/knSWwWCNtjWLcsNYYXwC13oCHALRtgHwGF6jf5xvSbbGsXpGkhgGF8AvSEHxpDguWF6QUbbBWy20F9utQ0jgN6TbTqBQKlSUXkqVKlEoFSw4BfMNRYXqNth8nSWF6Rlywy5bBc3pPCOEBEKEQwzweNuHGeAaiwvSAjbYLkb6IKKgoKCoUKFBeFCAUKNRtsFzrj6wDlgGBRKB0ijweN6Nu22W3HJYlShakqSpKkqUbUlSYUlSUbcsdJYaRlywc3+YKPB43qwXlzpw5YWNWS2C5tyxYOWGdIzwZLY/BhQoUIBQoQLYPB43qwdRUFBQdJjtQO0Im1A7UDtQIG6gdrbtbTa27WCtlsjErZCFstkYUjpCOlI6YqR0gVPxT8W3SkdKXLyVJUlSVLSUSZUlpKBUlSVJUlSwaSgVKBROglscHjbjTKlywt8OcMLc05ssKLlhRRY4YZYI4YZcsHOGFFzbYLCwjljQYXwZLEMCwRbAY9cAtw+C+A5YW+HOGFuaYWEbLYLm1BQlQelB6RB22K9T0UPEhepUHpQUfEoAr1K9Sj4lepQC9T2FH0KPqj6EB9UDtQOwiAf8AuCgdhQO1A7UDtQO1A7W3a27QjtQO1t2j6qB2p8V/x+rb6pH1bKR0tulI6UjpSOlPwL2+BexUnh8TuiIYOJg7KD0vUqNhuF6/QoHa2OVHj2p8R2v+P1T49L2HS9h/4r2/9Qvf4F7/AAL3PQXufi9z8X/U8l7n4vcr38u17+Xa9/Lte/l2vfy7Xv5dr28u17eXZXt5dr2Pak9lSeyt/wC3kqfgXsV7Fex7UntSVP8A9DGgf3w4Ro//xAApEQABBAEEAgEEAwEBAAAAAAABABARMUECICFREjBhMlJxgUBCUCJw/9oACAEDAQE/AFqoucNIQssafP6fTQY2H05Y0+SgjRQoMbDjbksafJYoNke0MfQP4I36qYlGBC4KooWVARiFAUBZUBQEBIUBGwoCgIAcqAoCgKAslw2Q4F7clc9o0+faP8AUw266YhFaaX9gher8saf+36fTQY2HGWNPktgoUxsMUMsXyWNPksa9GQ4bIcb8hxswfRG0VuK103KgrnpCUJ5XPSMxS56XPSJPlWFJ6UnpaZilJ6Rwp+FKFlSjq4UqVlweFIU8hxlSEeVIUhZLaqfLGkKbO3LimyHDZDimyHGw0dpracOK36sfkenWIPFIWj9TESEKYvktqpBsuKY2HGduSxpQFAUCSoCNIDhQPSKbIcbRXsyWOzlzRQob9dD8vkOMsaUmAGz+nFMcOLLGny4pjYcZ25LaqfJY0VgNli+WNIUis7c78FCt4s78hjR9BwoCgKAoCgIAKAiOFChRyoUIDhQiKUKPlAclc9ojhue1HN4XPa57QmLXPa5kcrntc9oBcotyhMlc9I03KyVz0jS5XPXowUKbLjaGy4bO0Wd+Qxr0GxuDGnN/pxTF8ljT5/TimyHDGnyWNPksaeOd+C+WNIb8tgvn1wHNbyjY3CmNPn9OKYlpCyWNPn9OKY2HGduSxp8ljT5bB/hZY0g2WwfYaYbjY2lBjTxz+nG81uA2jaGgKFAWSoCI4/xhsOPQbDy4Ynh8uKYuLLGkGy49AYMa2mnyWO87shD0H+AN5+obgxpue1lxTEPksablQZC5XKFMXGd5p8ljT5O3O3J9h/k/2/Tiy+mm1Pl9NMXFljSDZYoU2Q4ztyWNPksafJ25LGmKyfYfcfWb/TiypClaPpCkLUVIUhZUhSFppjhxZbBfLimNhxli4ssafJY0+SxfJY0xWS2DtNPljW3BR3hFzj0ZcWWNLTQbVh8qAwHCgIhQFAQstAUBsqAwpAbY2RyWNbTT5O80+Sxp8ljW00XzvO849H9nGWwVp+kNqw+XFIIl8ljTFZDikFkb5GHNPksafJY0+SxpisljT5Y0+S2p8tg+gMGOPRkuFyjSEwFyjhcqSs7OekZXPS56XMnhjTc9Llc9Lnpc9N0425Kn1n0ZLGnyVIRPDiyxraVIUhBjvOPQLL6csaKFBi+f0425LYKDZDimPoyd5fJbB9GTtyWNPksa9h29egWX00fyxQoMXF/pxTF8lsFCmy4pj6jT5O3LGnyd5raafJ/ghjj0Cz+X0gQoCI4KA4CgIhQFAUCVAYVsgLJcUoUNCFbQP9bI9Gm9X52misBi+XFMXFlZRooU2QgwpZclCGOGKydhcuNuS8jcUMqYnYNo9J2mx6Ber8uG1H/koHilKJpSpU8qVKB4UolSgeVksaQPFKfhTypUoU8qUCpCL5PvyfWSj/GyPQM/lxTGnNh8lxTHCho5LGkKY2HFbCh6SNg3iyxr1Fx/DyPRpz+XDaqcuLL6aDdPkscoUGyHFbRli+TsOwbx6gxcbR7v7fr0AcWoPbClHyiDFqD2xbntRyeVB7UHtAGLUHtEfKg9qD2o5Kg9ogxaAMWoPayOVB7UHtCrXPaI+W57QXPewewuNo2jbz2uVz2ue1yhS5728tyue1B7XKErlf2/Xo0/SxpafpDa6c2HH1anFMXyWNFYDZDim6fTTHaXDGnFli4ztDZDimNh9NNkOKbI3mtos+jSeFI7CJ4WmgpC1kQpCkI2FIUhD6tSkKQgRCkIkcflSFIU8lSESIKBEBSFIlSFIQIhSFIkKQpCBtSESFIUhSJKkNIUhDaMqQjSlSgVI3FweFKmSFIUhaTw2QpCkIEQpC8h5KQiRCBCkKeSpCJCkMGHo00oCgQg2qtwsvQYvktgrAbIRYUxsbwAgGNIMNsMWAQ9QpjbYKFNlsFCkQo5Y7TtGfRo+kMc/hCmL5cWWPCFBiXDGisBTwshxTTBDEywpyUDaniEaQR2y5cZY7chxTZ25bB2n0BtOd5paaDGkGMrlc9LmQuVyhMlcrlaZgLlGeFz20FjMFcwOVz2uZtc9rntQe1z2iKLc7eW573HaXAfnvZkOA2RtjlALUONpDCfRpreaKH0htVbsuLLigxsODbGny4UImT6BZY7S4YtwENoY2HFIsUafJY0+SxwxQbIYuK3mihQY0sbc7ShS47RI4UhSECJKkIkKR2pHankKQpClSpDS08KVKkIFSESFIUtI2yj6AxUqUCpeVKlTyWNKVKB5KlGeOHBUqT0VPwpPSk9IlChvNFCgxHChR8lEKFCyoCgIAKAoEKBCgdIiuFAUBACSoCNfxztPoG0U2duWNP3sO80hQ3mihTHYGnnYVgrDEvkoMEVlwidgY+ouGLFgjuDCmnnbljXuNeg0VjYUcPndyxcMacsdnPb87ee/bB3CtopQiOduSiNg9MBj6C5QY+4ZY1uFMbDitoY+sMGLFCtopsnbksacevr0GmKLnCDZcZ9AY0+XDGwpCkIKQ0hgWKkKQ0hpGwlpclSwr2T8MfcbHo1Udgflo2woeAoDQEaKgKAoCgNagNAUBBQP4B2mw4raPSfcbHo1VuPoLmw4bVRfJcUxsOMsdp2nadpcNkMXyiUacWWLH2ZHo1VuNh8ligxOyX56WqYpSelJ6XPS56XPSExS56XMjhc9LnpAnpSeguVz8Ln4Qlc9ozwue1z2gFB7Rntc9tz2oPajdAUIDhQoChECENIIUBzSgKAoElQNsD1Z9Gutg2QoElQFAQY0+Q4bVRfLYKFBshxTZD6ctqoflxli4yxw4Y2HFNkMaKGFZWWNOLLFiUKbJ3jLDkz6NVOcPlBFCy4ptVPkPpy2qn/ALNgoUGyH00pCkSFI7UjtDVp7Xnp7COrTxyvILyCGoBeYR1DheYXmENQC8wpXkOivIdFA/BXl8FTXBXkftK8j9pQJ+0ryP2lc/apP2oz0hPSE9Lnpc9Iz0p1dKdXS/66U6ugv++lOvoKNXwo1/C/7+EBq7UHtQe1B+4rxP3FeJ+4rx+SvAdleI9OoSEDLFpCJHYQ1DteQUwSp+Cp+EPL7VOrpRqIwv8ArsI6dX3BQfuXifuK8T9xXh8leHyV4D5XgF4BeGleGleGnpeGnpeGnpeGnpeGnpeGnpeOnpeOn7QvHT9oXjp6C8R0oCgf7EBELxC8R0vAdLxHSgf6g/8ABj6ix/xj/j//xAA4EAABAgQEBgIDAAIBAwQCAwABAAIREiAxAyEiURAyQUJhcROBBDBSIzNDFGLBJDRAUHKRcJCh/9oACAEBAAE/AuL6Sm8zqTztpxLUv5Sm8ooKwuWlnd7p/wCT6pPMKX9PdLrFN5RSzr7pHOae8UuuKX2pdal1kLCgptqW2pbaltLetLbmkXNI60tpbS21LbUOshQaT+oXP7sSyjkp1OFMFME12oqYKYKYbqIROtqiFMFMFELEsohRUQohP5SmnSFFRUUUyyio8WXd7p7/AKpPO2l/T3S6ybYUt60jmNPeKTcUvpfal1kLCgpnKKW2pbaltLevulvWkXdS3rS2ltBTbUttQbIUOpd0p7qW9f3P4wUAoBNAiVKEWhOcGXCABUBMFKFIFKFKE8KQKQKQKUJzRBBogpApApApU1uSkCkCkUia3NykCkUikUmtSKRSeVIpcwpVJ5UnlS+UWqVSeVL5Up3RB3QGSlO6gd1B26g7dNBzWpa1rWpCaYrWta1LUs4qJ2UTspjspjsnG2SmOym8Kfwpk4qZTqcKYJzslMpgpgpgi7JBwgpgpgohEoEQUQohRRKacqW2pZaltLevulvWltLaW2oKbakUOtS6k9Ke6lvX9z+nGaMQFM9r2A9eAeAXLDxA+aHTg8RaQvxTpc3+Su8UvpdZN5RQUy1LeZ1Pf9Um4pfSULUs60jmNPcKTcUupfZQoIUFKFKFKEQEAIKUKUKUKUIAQUoUoUoUoTRkpVIpFBBql8qVS+VBBql8qXypfKggFL5UvlS+VA7oBQKgd1A7rNBZrUs1mhFalqWpZoRgtSi7ZZokoRUTsonZROyJQcVHwpvCmRcoqdTKZOKmCmCmCmCJzCmCiFEKKjqUVHiz9zrjiwgTLN+L4HANGcV+O2E53PH8bmxj/wBy7xS+l/KU3lFLLUt5nU94pddtL6TZNsKWdfdI5jT3il1xS+l9qXWKFqDZNsKCm2FBTOUUttS21LaW9fdLaW2pbahyFqHWQFBpKgoKAUFDNQClClClChmpQpQpVBNt+5928ThNKDQLcLtesAEMz4YhgwrAbLhhf8lOJ090v5Sm8opw7H3S3ndT30uu2l9qXWTOUUs7vdI5jSecUuu33S+nEtS6xQtQ6ybYUFNsKCmcopZyiltqW2pZ/wCaW0stS2wodZC1DrIUGk9KTzCnuNLbfufzBThThThTDdFwTDdRCisXOA4f8lL+lL+UpnKKcPr7pHOae8Uuu33TictJsmcopZ3e6Rzmk84pdce6cTpTictL7FC1D+UpthQU2wocm8ooKbyigpvKKW2pZaltqWctBTbUO5Shah9qTSbinupHMaCmW/ceYKClClCkapQmtCkCkC+MKVS6lIvj8qTypU/KGal8qTypPK/JnbguLTmFhTPwGuJTW5DNSH+lId1Kd1Kd0xvlSu3UHbqDt1B26gYlQduoO3UHbqDlAzBat1qQdi4pMDlusEYkzxNELHcWCKw/lLQSta1rUnzQWpa1rWtGZNmgov2UXbKLtlE7IRzyUXbKJ2Ux2UfCB1KbwpjspvCmUdSmU4U4UwRNlMFMFOFME8qYKYKYKITzkohRCiFEJxyQOSioqKdZA5UOsU2wodZN5RQbJtqCm8ooKballqCm2pbag2TbCh1kKH2pdSbinupF3UGxQt+484pKbT3U/lsnw1+LizsgeZt+P5f/ALfE9L8X/wBsE3lFAxsTFxyGcoWHakc5WHitxAS3oYUOcGkRT8Znac0eX6WF8wYMMMh5TWyhE/N+R/2NNLrUlN5RS3rSOY09wpNwoKAUAoBOUoUoUo2UoTwIKUKRqlClCc0QQaFIFIFIE5uSDVKpFL5Rbkg1S+VL5Up3RGV0G5XUp3Up3UDuiDC6DTC6g7dQduoO3UCgDBat1mtSMUAYKDlqWpZpsYLUtS1IzJsYLUtS1LUmxgtS1LNGKEYKJ2UTsonZOjBAnZR8KbwpkSplMplMiVMpwpgpgicwpgpgpgohREVEKIUQoodaHcpQt+7/AJBSUy1PdS9Oj+P+TN2m6HD8v/2+J6X4n/th9pvKOOPinEd8OHfqVhYTcJkoTOvun+vS/D/1R3KxnPLgxhzKDQx7c8zwh8v5RBs1OExa0ffH8rElZKOZ2QTMIYeG1v8A+057WCJMEzEa+3F9kKCmcopb3e6RzGnuFJuKX0vtS6xQtQ6xQtQ6xQtQ6xQtQ6xQtQbFNsKCm2FLOWgptqW2oNkLUOtS6k0QUNSgoBQCgoCKlClClClCAUgUgUqcMkP3f8lJTLU91L+i/IwflZDqvxfmDZcQW68MVs+G5u4WA0twIEJnKOH5GM8uGEy5WDgNwh56lFM6+6cS2J/+K/GEMDD9J87MeeUkSwWGHufO4Q2HB+A75YsfCa6wsMYbYcWD5Py3k9lliZBYQ/6hz3PsDkFgiGI6HLxxOUoUFMtSzr7pHMae4Um4pfS+1L7IUOshah1ihah1ihah3KULUGyFhQbFNsKW8ooKbyigptqDZC1DrUupd0p7qRegplD7fvj/AJFMFMFEKKcckzlpHPS/p7pfYpnKOEBwKZ190uE07fCwmlrGg9KDztogLwWKIhf9L+Q2ZrXwaSsPDkbDjicpQtQUzlpb1pHMae4UuuKcSl9qX2QodYoWodYoWodYoWodYoWodYoWFDrFC1BTbCgpthQU2wodYoWFD7Uupd0p7qRc0stQ+374aypQpApApAi1BmSk8qTypDupTupc7qU7qV26lduoFOBUHbqD91qWpOjBNDoBa1rWta02Oa1rWta1Js0xWpRfsov2UX7LVMMlF2yi7ZTO2Ux2TidlMdlMdlMdlE7J5yKDjCyn8Kfwp/CLkx2S+Twp18inTXZuU4U4U4U4U2oqcKcKcKYKbUFMFMFMFME4jJRCiFEKKeoqKjwfal/Khah9kKHWKFqHWQodYoWodYoWFDrFNsKHWKbYUGybyig2TbCh1ihYUOtS7pSbinrSLmltqHdPf7xzmkoWpHMaXdKXWKbyilnX3SOY0nmFL7UushallqWXdSObhBQCgspwoKAUApQi0RClClCkapAnAKQKQKQKVPClUik8qXynNyUql8qXypfKcMlL5Up3Up3UDuiDuoHdQduoO3UHbp0YIB261LUtSdNBZrUtS1IzQQjBalqWpGMEJoLUtS1IzQQmgtS1KLtkYoRgou2UXbKLtkYoRgonZROyidkSVnsonZROym8JxyUVMplMnGymUymUyJzCmUwUwUyjmpgpgpgpggbqIUQohEppyodcfvbzmkoWpFzS7p7pdYpvKKCmdfdI5jSedtL6XWQsKCsPlpbc0jmp7xS7pS/pS+1LrUutS6yFDrFCh1jS6xQtQbFNsKHWKbYUGxQsKHWKFhQbIUOtSelMMwoKCgoLqoKAUoUoQAUoUoUoUoQGSlCkClRECP3tuaXIWFLbml1x7pdYpvKKWdfdI5j6pPM2l9qXWKbYUFMtS3upHNT3Cl1x7pdS6l1qXWNLrFCh1ihQ6xQodYoWFDrFCwodYoWFDrFCwodYpthQ6xQtQ61J6Um4p7qR1oNkLUOuP3tuaXWQtS27qXXFL7FN5RTh93ukc59UnmbS+1L+UpvKPVBWHy0t7qRzUnmFJuKXdPdLqXWpdZCh1jS7lNLrUusULUOsULUOsULUOsULUO5Shah1ihah9qXXHunrT3Ut60Gybah3MP3tESVKpVBQTkB5UDuoO3UHbrNNBiVqWta1qToxCzUXbKLtlE7JxMCmEyhROyidlMdlE7Jhv7UVN4U3hTKOpTeFP4U/hTou1BTKZTqZYh0qZTBThTBOORTTpCmCmCmCJTDki9ouUHtNipgpgmnMqYKYKYKIQOtRCiFFRXcFFR4uu33S7p7pfal1qXWNLrGl/KUKHWNL+UoUOsaXWKFhQ6yFqHcpQtQ6xQofyml3T3T3CnqaW0GyFB5m/vZ14kxTFiZ5VN60uu2mYnEcOibYUt6qdoo76eopfbhBQUEQgNIUAoBQCgE0ZL8qAZDdfjM/xqAUAgBmoBShShQCAEylClClClChmE0f5SpQpQpURmFKpFIpfKcLKVS+VL5UvlYgg26AJF1Kd1Kd1A7pwMLqB3UHbqDt1A7p0YKB3WpQcjNBZyrNalqWaMYLUtS1LUjGC1LUtS1J0YLUtS1LUjGC1LUtWy1Ixgs4KJUSonZGMEIwUSonZROyJyTsSQDJTHZROyidkTkgSonZTeFN4TjEKKmUVFEqZTKZRUc1MoqYKKjmVMFMFMFFNKmCiohE5IHJR4nmH72deD3JrYImBUMkSmjhHhNLFMdMKHXanNihwcYBYOfyOTeUL5GboODhEJzg1EvNlhOLph5T2gNTeUIvxHP0rCcTEFPj/wBQzPpSbjiXgIYrSn24T6oJ74JuYT3yr5AGAphmEeL3QCHyOzT44jwE0StA4t7kDGgc1LrrCHVFwHAmAQdNCl1OJ0FL7cQQbcHWQcOBMEXZWXaiYKd0wjwDwSnWpdal/KVEQodYoUOsULUGxpdYo5uFDrFCh1kKD0p68YJ2Jht6oKCgFAKCAUAoBShEBQClClClChqH7isOx4S6uBYCYp9uARQ4QiSmiA4sMYp5gQgYjjjYZjGb6TcINYsV0MIIN2WCIMCxYuxA1HJhX4zYNd7Ts3AI2TMTTADNYbYBYvNHYIUG44GyABWJD5GwT7cH5GKbrdwxDmgC5MEGrEdqggn5uRfK2AWAzuWKcoIlzTpKBi0FfKXOICY2DaBzUvuFYLEic1g/6wnral3TgU3n4O5k85LCJMYrEdBGaWJUCW5picmNgnugFAkRTRnxN06yf0TRExWJyprYJ1qXWPB2ycJc00xCxCgI5KwTDMnmAWI90mV021D+UoWCJgp37L5Dsncp9I4pHTgCY8DMQg3qsR8gim2TnGwTzit6rDMWBOcAg5zj44O5UKD04OMAUHaYlYebi5PfqACE0eDyvizTaQQBmm4jDYr5GF0sc+BtxBTnht03ED35bcPkZGEf2FMtS+1EOHUocCmC6f0Tchxc2JCdYo4c+GAm4YaIIZBQEY8Gd3tQ4SgdODhNiQ8Unmb74nCzujhgJ/JwLQU1oHB7AUxokHD4xNNwxGE2Kw8G8U0QCx2uuFh4OWacNB9L8XDMXE0jmpPMOHxHqVZExVpaXdPfApohwciEIIsiYotin8qaMkeDmRKdyocQn2UODrcH8ppfynh1UHG/B4yJQCe2YQTRBOEU5kAm2ofylCwRaSU5sYIjon8iDZoR4N4O4ObM/wBcO4p4JuhZPbMRxdak9PfB2YKDCgIIMg/iWxQbBdTS/M52UmelMwgzg6xWI6XDijiaQ0XKwxAI4cz4lMH+Y+k+JyCOCZm5/sKYMlA7qDt1B+61IxWa1KL9lFyiU2Oai7ZTO2UTso+ETqapvCn8Kfwpk52SDsgp1OpwpgmHm9qcKcKcKYKIn+lMFO1Tt3UwTjm32pgpgpgnuCfywUwUwUwUQnHJMOkKIUQohRTCohRUeDLupB109wpdcUv6e6XUvtS61LrcYcHWpdZEocX8ppeEKH8pQtQ/lPAji6xpfal1qT0p60i5paAmji6ycyZsEzBDeBsgIFRLXlCL3g7fsKZy0u6VN60nmbS6xQsOMODevvhBQ4d/CAUAoJ12+1AKUKKazNOGSlClClapQi0INEFKFIFIFKE0BSBSBSBShBt1IFKpQpVLqUqlUqlUMwpVL5Uql8ohQ8qU7qU7qB3Th5UDuoO3UHbqB3TgVA7qDlqWpGK1LUtS1J0YLNalqWpGMFqWpalqTowWpRdstS1IzQRmUXbKLlF2yfGCzUXKJWeydGCi7ZRdsonZROydGByWeyidlE7KJ2TjkgTspjspjsonZOOSidlN4U3hR8JxiFHwpvCmU3hOOSmUymUyJUyipgpgo5qKmCmCmCjmVMFMFMFEIFRCiFFOOSBUVHh3fudZM5RS6491NpPMKXWQsKWd3unv+qXXb7pfy0lM5RSy1Lbup7/qnuFJuKTS6l1LrUutS61LrUv5aXcppdyml3KaXWpdal1qT0p68YcIZqClCgFBAKUKUKUItUApQpApQu79zrJnKKXXFWHak87aXWKFhTh9/unv+qX3Z7pfymkpnKKWWpbd1PfT3Ck3FLulLqXUutS61L7UvtS/lpdy0v5TS6xpfyml1qXUnpSeYU9aW2odT3fudZNsKXczaSsLl+6e9tL+UoWFLLv909/1S+7PdOJymlyZyillvult3U9/1T3il1xS7p7pd0pfS+1LrUvtS+1L7Uv5TS/lNL+U0v5aX2pfal3T3SeYUi5pbah1Pf8AufZCaC1KLtlF2yidk6MwUx2Ux2U3hT+E/GAWC90LKdThfIFOETrapgp2qcKYJ5BaUHCAUw3UwUwUQmd3tRCiFEKIUdY9KIUQohRT+32oqIUVFYnKUOEeDrJvKKCsO33S27qe/wCqe4Uuu2l3SguAgndKX2+6XWpdal9qX9PdL7fdL+Wl/KacTkNL+U0v5aX2+6XdKe4Ui5pbah3/AJp7v3Pshak8zaHWWH/scmWp7goKAUAoBOAggBBT4c8nVShShShNF/alCkapGqULEcxjhMpWnopGr42qQJwGXtShSBSBPD8g0J3ytESFhwe0FSKRSItTW6QpFIpPKl8oNUnlSeV+Viluljs0xrpGxOaAzKl8qXyoeVBQzUp3Up3Up3RiBdDVKQVA7qDt1A7qB3RBiFA7qDt1B261J0clqWpaliRi0J0clqWpalqTorUtS1LUnRWpalqWrZOis1q2WpZp0VqUXbKLtlE7J0VF2yi7ZROyidk6KidlE7KJ2UTsnEqJ2Ux2UTspjsnHKyidlE7Kbwo+E/lUfCm8KbwpvCcclHwpvCm8KZPOSmUymUycbe1MplMpkTZTKZTKYKOYUwUwUwUyjmpgpgphuooHJTBRCiESoqIUVFd/7n2QtT3ih5gFhC7lh8vF73tKY+cRXeKXWXRQ/wDV0M7vdGI9rGxKw2nFxg94y7RTidPawMV2JPEWNH5T5cIjqVgtlw2igpthSzhj45BkaM03C/8AUta68Ing27qe7gcR73GQ2WC+dsVi/wCt3pYAgxnpRoxHhsIprg63DExS2yaYtBT3t3TXh1uBfAwghm6Kd0T3mzVgOeS4OT3SiKw3lwtBOpdS6l3T3S7p7pd090v/APNL7Uv5aX2pfbgOLv8AzSelPWnrwgoKCAUAoBQCIUoUo2UoUoQ5v3YlkKe4cSnB7/Sw4gkdFhcnFzYoH43+F3il9iuibn+SfFDe73xxMRuG2JTMN2MZ326BQ1j1TjGDYr8MaCfNDyDiYhdZqwvyPkdCWgpnKKCmW++GJhze900YrfytzDPg27qe9P5Helg4eI5uwKYwMEAvyOSCAgWrEZiYn5N8hwxvyH/J8bLp2EWMmnMU1pxHBzrLCEC7bgGTRVmpmGS6JTGweeDrJoT0SR7WCyAzWKMk2yd0pd090vpf090u7fdL+33S/p7pd/5pfal9qX2pdS67fdJ5hT1NItQae8/uxLVd4oxDAJrYMWFyCjFZELAc4nPpS6xXRYMfleaGd3vgU3DxMXEmxBl0HA849JuKDiOZtR+Y6GHDcrBEMMUflszisPDa0CFBTOUUFM4jC/zF/BvM6nv+uDQ5uXTg5s0F3BSkPJ34DBbPP1WLh/IIKEIAJohwAIPAiyhQ7p7UBwdZMEGgJ/T3S7p7pf090u6e6Xdvul3b7pd2+6XdPdL7fdL7fdL7Uu6e6TcUnmFI5jS2g09x/diWUVOp1OFMo6lOFOFOFimIQxhLArCdkphuphuphuohZTqKxXkFoDuqiFFPsUDksuGNqxMNvngzu904rwwx8L8ZkGlxu7OjHw2vLI9Kfy/9f2mcjfVBWHyillLeZ1Pf9UnnFJuKXdKXdKXdPdL+nul/T3S7p7pd090uu33S67fdLunul/T3S+33S+1Lunuk3FJ5hSLmltDqe4/ufV38IKAUoRaNk0CClClbspG7KUKAmRATMObELz9KRqlCcMlKFIE+VoWHhdxUqaLqUKQKRGVoiSgz58SLuQWUgUnlSeVJ5RbZSqTypfKh5To4jv8AtCl8qXypTupTui07prcrqU7qU7qU7qB3TQoHdQduoHdQO6AMSoO3UHbqDt1AqBmUHbqDt1B26g5QMy1KDlrWpGMQtS1rWtSMVqWpalqRis1qWpakYrUtS1LVsjFalF2yi7ZRdsjHJalF2yi7ZROyMdlE7KJ2UTsonZGOSidlE7KJ2UTsjGIUTsonZROyidk45tUTspjspjso+ETZR8KbwpvCm8Jxso+FN4U3hTJx8KbwpvCm8KZOKmU3hTKZEqZTKZTInMKZThThTBE5hTKYKYKYKOamCmCmCmCBUwUwUQiVMFEKIUUL/uf0q76XWTeUU9/0iwu6oCHF/KULDgcMF0eLOvuj4QTF2a7vql3T3xJh0RbiPvkFKGtgEKCmctBTevukXNPdT3Ck3FJ6Uml3Sk9KXdPdJ6Um4pPM2k3FJuKXdPdLunul3T3S7pT1FPWnqoKHEKCgFAIqAUApQoBC5/c+4qHPS6xTbCnv+qX8pQpb1p7x6pd090vshagpnKKCmdfdI5jT3U9wpNxS7pS7pS7pS7pS7pS7pSbtpPMKTzCk8zaXXb7pd090u6e6T0pNxT1p60i1DqRzH9z+ZtQ5zS/lKbyinv8Aql9qmd3unvHql3T3S7lKFBTOWlnd7pHMae+nuFJuKXXFLulLulLulLulJ6Um7aTzCnuFPcKXczKXXHuk3FJuKTcU9f1Cg0jmP7n3apgpgohTDdRTSJ3KKiFFRTzkm2HCPGOv6pxOUoUs7vdPf9Uv6e6XcpQoKZy0s6+6RzGnvp7hSbik9KXXFJ6Uu6UuuKXXbSbtpPOPVPeKe4UnmbSbik3bSbinqKetPWkWoNIuf3O5goBQCICGGpQmtExUgXxtUgUgTm5IMEFIFIpFKnNvmsNsRmVJ5UnkqTyUW+VL5Up3Uh/oqU7qHlNF1Kd1Kd1Kd1Kd1LquoHdSndSu3Urt04HLPqoO3UHbqDt1B26IMLqBhdQduoP3UHboh26aHQuoO3UHbqD91qTY5qD1B61rUoGK1rUtS1LEeWZppcRFalqWtaohalrWpakYxWpalqWpGOS1KLlqWpGK1LUtSi5GK1KLlFyi7ZGOSzUXbKLtlF2yMclmonZROyidkY5KJ2UTsonZROyMVE7KJ2WNj/H2priQDBRMyidlE7KJ2UfC6qJ2UTsonZR8LuUTso+FN4U3hR1KPhTeFMplHMKKm8KZRROYUymUymUcwplMplFRUVMFMoqOamUwUwUyBUwUwUwUyBUwUwUwRKmCmCmCiE3r+4844m6HBrhO6l1kKXnMrDtQ61TOvunv+qXdPdLrUlNtQVg4gfGkXPGfXLw/J52hNsKO4Um4pNxSaIqOY4x4HpxOJAw4OeIik9KTccT/AJcfxw7/AKp7qe7jERhHh3fSDmmxHCHA8wpNxT3CnrRjYnxsmgvmdi8gghQKRVAKAUAm9f3HnFDeZFOBmTHOjRicpQtQU6aZMiBwDQE98oihiB7YhYmIWQXzx5WEpjw4cB+QHYpwwPtM6+6f+T64lwC+Rm6ech7WHih5IXyCaVPxGsugQREJ/KUKCmcvB+LDJMm6lFYYAm98HYmcAnOeyBK+V8IgLDdMSUTAKYQimasYng/P8lqx3kaW3TCcPDi8oGIinPa25TXufieKTzDgU4wam2T35qd4htQbiiJL0BqCc+EODhGJWHZYhsmtI4BpJXRACYILFzg1N5obcDdtJuFiuIgBcp4cMg8xX4+HKCnxc+AMFhhwdmY0HIKL3uyMAnOxGQ7h1XzPMS3osDGOJGIhBEgCJTMT5H5WT3StihhfIJnuTGl/5TdUZevrh+Q4zBo6hFmHgwd1H/8Aq/EOK4Oc8+uPdS97WkTFNxsMmEeBcBc8O76XyRMAKOtGN/kfKsLCDIqIoHE47A6BX5GMcgwpvKPSbjGxGaL4CJWHiB4iEbilvX93/IOJQCdZDMpraH2Qp/5ODxEIWWKNK0hmSxMMvaAmMlbBYQ1PRX47AJj1imd3un/k+uPfmsctMA1MB+FiDvje5YLTGZYwL8QNTGytAT+UoWoKZyjhiYbTEwWATArFMAsKyNlgtMYlPYHhOEGShYQhELFNk5+UrVgslHCQ/NFOh82afHFMBZMErQFi4bnYw2QAaQKTzDg5QLr8Ax08SsTMAIW4m44koMPCTVHhIVBHm4gcH/7WQ4YrXRBCw2QvwN20nmanMmTcJo4S6oru+qMQRammGShMM18L4QByWCyUFY7HPbAFYTJMlisnbBPw8UjU4AAL8VkJjwfhzuvAhPwMoxiU0QEOPcKSPmx/AWOxnx2Eeiwo/G2N06GI4zWC/F5DtHJfkF/YFgtlYI3o7uOI6VhK/HaYklYh1SrFww2WU5ptuI68MQwYVoayJuVg4PcULKAWN0bumtDRBG4pb+4/7Ao0tECacW1Tec0uhCmRozCZ190/8n1xLGuWOwALtZ9ItabgcC0/IHcH8pQsKCsPl4Ykeiw2yhEApnWgpvOU9kybhNbx70/Ca+6a0Ntx76TzCk3FJuOPdwPSk3FMoDhSeZtJ5hT3/VPcaXOlmKFljvmPxj7WG2VoHAc7qCmPDzlajFdAQ6lMwiDEOgYIYWcXGPB2A0lBoAgF3U931xxNboICATsOZ0YpuCBQOBQww5/hWCHBzYkHbgbillv3ERxFL5Up3Up3UDuoHdAHPNQduoO3UHbqDt08GF0A7dQfuoP3UH7qD90AZioO3UH7rXutacHQUH7rXuta1rWhMte61rWtag6da1rWtYmG54Ra6UArWtfha1rTpoFCeC1rWta1pk0FrRLwFgYz8TotaE2a1rWtS1oTRK1rWtey1LOZRcou2UX7KLtlnFRdsou2UXbKLtlnEKLlEqLtlq2RjFalqWpakZohalF2yi7ZRdsjHJZqJUSolGOSi5Rdsou2UTsjGIWrZRdstWy1bIxiMlE7KJ2Ux2UTsiTEKJ2UTsonZROyiYqJ2UTsonZROyzionZTH+VE7KJ2WK17wYXXy4pEPjIKw8OXMjNROyj4QOo5KbwpvCm8LFxI6B9rCEnRTeFN4UycIuDlHUpvCm8KZTKOpRUwUwUQo5qYJ2JBpKwslMgbqcKYKYKZBynCLxBYZARdkg5ThTBTBRzUwUwUwRcm/uH+zg86SsIktz4s60vtUOY0utUzr7pw8Sd1qX0usULCnD5eH5TyGSi5WBhyYY4NuaRc8IoEHh3U91PUUm4pNwi4BB4PFyBoNxSeYUnmFJ5hT3/VI5jSLmkXNEBeC7jT3GnrT14PZMFDgKRQUKOtBsm2/cP9v1wxnJuLAWQdkjitTcRtuEVFfJnknVB7ZnZpj2vtxmCOOS+WFTOvvg7Bi6MULIkBYP8AsPDFxnNMGiKByivkBMBmsQ5faONix0jJMeHiPDExIWuoOhFxQsKWmDUfymdM0x3zfkDYJ7wxsSsLFdiR05Jnd7pHMU94aIr5S8wlyX4/O8dOHdScbXkEMZhMOtHcODjAIzERssKMqxXykJmIS6BRyT8eHRNMRFG4R5jELDZnFPM7w0dOBuKTcUnmFJ5m0nmFPf8AVI5jSOZ1Lbv90jnNPcaRzGkXNI60FNtQ6yFHWg2Kbb9zf9h4YmrEATmwACMQxA+E1uUULJ+YUXWTWwT6cWyvFYAg1YnKvlMA0BBkGlNaIRqw7H2nGDSsMxaCeGMwOHpYWHB1+GGIuc5YkZHQX4zC1md4r8j/AFlfJBsrbr8ZsoK/IcW4Zgvx8PIOKfYoWFLtRDSck6B0YY9rAw5SVjZuYOihAJnd7pHMVi54rR0WI8NEBdYOHK3zw7qYPY/ILBw/8pJoPMOEIrGMAAm8oTv9kSExsXxWJsnwhAJgg1G44Yr5RlcrDZKPKdintCjGU0m4pPMKTzNp7hT30jmdS27qW3d7pHMaRd1Iu6kXNLaCm2odZCjrQ6ybb9zf9juEBxgmjLg9yY3g/pSUblMsKHNI9VYVj7ThEJogIcHiLUBqHrg1kpOfF9lI0WCAgiAb8HcpTbCn4muGaaxrbcHNjwbd3ukcxT8IP6pmC1vEc/1T3pgg51B5hxLQb8DzDgRFBo4HmHCXXFYpg1TAiVqAhKKTcUnmFJ5hT3CnupHMaW3d7pb190i5pFzSLupFzS2g2TbUOp60Oshb9wj8hgov2UztlF+yi7ZEu2TS6CLnbITExUXbKZ+yMVF2ymdspnbKZ2yi7ZZzIF2yi/ZRdspnbJxcov2UX7KL9lF2yi7ZMmgov2UX7KLtlF2y1TqL9lF2yi7ZRdsnTZLWov2UX7KL9k6aFkJoBRfsou2UX7KLtk2aCi/ZRdsov2UX7Js2r2ou2UXbKLtlF2yE0VF2yi7ZRdsou2Wcyi7ZRdsou2UTsomKidlMdlMdlMdkSYqJ2Ux2Ux2UTsiTFRcou2UXbKLtkYxCi7ZRdsjE3CDZbBGMQtWyi7ZRKi5ZrUou2UXbKLtkYxCiVF2yi7ZROyzmCi7ZRdspjsonZRM1lF2yidlE7KJ2UTMou2UztlE7KJ2QJi5RdsonZRdsonZCOai7ZRdsonZRP8oE5qJ2Ux2UTspjsg455KY7KY7KbwpvCBupvCm8KbwpvCDrqdTqdTIG6mUynU6BU6nU6LkHKdTBTIuU6nCnU4U2amU6mTnZIfuZzupKZZOEQmiA4u6VNuaXVMp7/ql3T3S6xQsKCmWpZ3e6Rc0jmp76eopNxSb0m4pNxT3CnuFPdSOY0i7qW9fdLevulvWlvWlvWltLbUOshQelIvQ+378PmdSVh8tLripnWl3Skplqe/6pxO33S/lKbyigplqW93ukXNI56e+k8wpPMKTcUm4pPMKe4U949U94pHOfVIu6lvX3Szr7pb190t60tpbagptqHWpNxT1ND7fvw7upNlh8tLripnWl/T3Vh2+6R/s+qcTp7pfylN5R6oKZalnd7pbzOpHPT30nmFPUUnmFJuKTzCk84p7/AKp7x6pHOaRc0t6+6cO33Syx90stS21LOUUOsU2wofak8wpbc0O6fvZd1LrLD5RS67fdWH190v6e6mWpH+z6pf2+6X8pTbCgpnLSzu90t5nUjnNPfSeYUnmFJ5hSeYUnnbSecU9/1T3/AFT3GltzSzr7pw+WllqWctBTLUGyZyih1im2ofT3Ut60P6fvY7MqcKcKdqnCLhBNcIKcKcKcKcJzswpwvkC+QKcKdMeBEeVOvkCnU6ebe1P4U6n8FT+CpvCYYCyn8FTeFP4U/gqJnjBTHZTeFN4Ux2TjGHtTHZTH+VMf5Ux/lOJIOSBMBkpnfypj/KmOymOyYTLZNxYkiGYUzv5Uzv5UTsmk55KZ38qY7KY7KY/ygTE5L59ckuamP8qY7KY7KJmUx/lTnZTeFN4UTOMlMdlMdlMdlj45w2xgmYk4Y6CmOymOymOymOyJMQpnbKZ2yi7ZRdsjNEKLtlF2yi7ZRdsjGIUXbIvIMFF+yi7ZZxCi5Rfsov2UX7LOYLWta17LVss51q2XzvngGqLtlF2yzmUXbKLtlF2yi7ZZzFRdsi4gRgmYj3dqi7ZCOa1bKLtlF+y1bJsVrUX7KL9lF2yZEBRfsou/lRdsou/lMJhkFF2yx8V5yCwXPkGSidkyMLKZ38qZ38qZ38ok7JpMLKY/ypj/ACpj/Kc4wsvklgCpj/KnP8qc/wAouysg4/ypvCm8FTeETHoonZTH+VMdlMdk54bmUHxFlMdlMdlN4QPhTHZTH+VMdlnEfuKwu5QCgE8hMY7qiE2ygFAKAUEeYUussLV+R90u6e6TZfiYr3OINqRz/VLunul/KV0pmlwor8RvM/8AqhnX3x+RofKeDeZybn+S7xR3Gnuo/JM+IGhNbLIKTzCk8wpNxw5sXhEI8wp7x6p7limDFgNym4931SOc8CIq3CYAu9oYjT1UQevDFxJRldfjzyat1iPkhwxMSXIZlMxHzQfBM5RQbLD5QnvlHkqWJWTQuibyih1im2FGIZWkpjZjMaH2QoNxTiyyuWGIMHAOaTCI4CyZiTE5cTzD9xWF14FDM8DZNsKTzCh2I1qdjAhfiN1Odw/yB/8A28Tce+DMaLy2EDx/JdLhOX4TdBK/JaciELDg/HAyTMfXqC/6hkYcHYmklkDBYb52xRxScYNhlG9L+UoW4Pe1giUzEa9sWnhjf6oblYYgwChvX3xLWu4C7l+MM3ngzGY8kDpwc8NKwpnaieBx2AwXzNnk6rv+uGJiGMrU8HDbEuzX4zDNO5YpLsUNCw3FuJ8ZzRyTcWc5cDzCjEfKFHEjFNMQCnPDbo4rrhMdMIo3CLsTZYbTNFY+KGBYY0r8gumAasGaTVR3/XFxgFFzn3KbzfSx7BNEGgce7iTBNc8udAr8dxcXx6Jzw26+QQB34Y2LIPKwGRi526AmxDBBkuOIcG6sQlM5ViEuxpR0XK1YIjF5T9eIIdEzlFGO6XDKZgRYDMQUXElYbILHE5DVCDIeE3lFDuU8MR8oTWvLwY8MXWYLJoRx3TgCyivkbusTHhCLU7FxC2LclguLmAlOdKIpr8XEdEZNTk3HOc2+SIc4ElfjxlzTml3VfEHYhCa1zeqeXPdKPtf9NDEDwVcxVyAhlxPMP3FYfXi5qY5OshGnuFDRM4xWM4EyhYAhhouDU10Rwd+Q0RHVYRLsQO8pzw26AaYO4OL3HSVjOedJWAJcIKIdwxSRhuhdfjYZdqcvyGunyHRHCg0brEiMMDdfF8eYOZWC2ViGWLDzS/lKFuH5LX4jwwLAwviZDg/M4Y80s6++OE2EfPD4iDiGcr8cQZ7WJk0rAwpdW/D8vna1NEAFiulYUGNki5fjs/yFy7+EThvcSPS+PExc3INg0BYkzcWYCKwWGM7rrHDiyAWCyRg4HmFDs3rEbMWpolEF8b3v1J4ygEwQC7gnIWT8JrzE8P8Anp7/AK44gi1MDYDLNDn+li5ltHf9ccUOcyDVhYcjVhtDXPWMwmBCkxHnVwdgtL5k3r7UoCl1x4BsCmcqgEREQXwf9yDA0JnKKMZk7UGYxaBHJMww3hDVFO5Sm2FDrcDhxxEGgJ1ihZPzICGG0dFivzkWHhQunh2JigEZIiMGjogIBP1GVAQX5ExgAsLChmU4x0hAQCcdlhtgjZYbyIiQrW++QUIBM/2Oo7v3FYduLimXWIclhWpPOKHYUV8Aa1YXKsQRggIDhi4E6lDJAsVkxCaICCNlPJHdDCJzKaNCYyWgc5REVitcQIJmGbu4QJxQ6nE5Shbg9pmDgpo8JIyHY04fX3TiRzA6oCAATxMIIW4Sgvz4YrS5kAhh4r4TZAJrJYrvp7xT3ighdwp7xS4f5Aae/wCqIBDn+kQDR3/VI5jS3u90stQbJnKKDYoWodylCh9uEBxd0UoPCAVgsLEc95jxDYcO7hDhAJtD4wTGwFHd+42WHbjfg+ybYcIqPAnWFFRCiFEIkJjhBRCmG6mG6mCccwpgp27qdq/xxjkpgmPEFO1ThThThB2sqcKcKcKcIuzCn8KZTKZOdkpsrKfwpvCm8Iu8JrsrKbwpvCm8KbwmnwpvCm8KfwsX8gYYiWlNMxmU3hTeCp/BU3hTZ2U3hTeFP4Uym1WU3hTeFN4U3hR1DJTHZTHZTH+VE7KJmCidlE7KLtlE7IkxUXbKLtlEqJ2UTEKLtlFyiVq2RjMFqWpalrRjOFqWpalByw8Wd7gLi61rWtSi7ZZzKLtlF2yi7ZRdshGJUX7KL9lqWpCbNalqWpak2MFrWpakZk2MoWpalr8IzQQmWpalqTpoLUgXLWtSdMtS1rWtSMclqWpaljPdyrCY5q1LVsvl1BvVatlnFatlr2Wpak2K1LUtSMy1LX4Wpak25/c6ywxkpVKpPKl8pwQapFKpFIpdSlCkCkCkClCY0QUoUoUoUAiNTVAKAUAoBELDGlQUOI5jSbjiCDbg+xpKby0xgCU1wcIjj+TrxWsTBCIpHMae6nup7hT3CnuFPWn/AJPqjGxJGEr8NkJnG7qe76pHMeGPiPZIGi54t6+6WctBsU3lFAdMyKHCIjDrwdZYlobpjZWgIkBfIyMIp3T3SbhPeGr5z/CdjtlyTMIuMzli4sj2iHA5JgnxJuHWgptBpb1/c6yw+WlyFPcic6CmWpNwoqYbo4rQgQRFGyw3Ai/AuAUeA5jSbjhiulYV+KIMJ3PB/LS5zR1WFyBYmOWugBFMdM0FPxA1NcHCKbYpjJY8H4rADmvxmz4rsQoXPHEfKE3HMYOQuae+kuE4z4Oe1t03Ea6x4R1CnuCcYNJTcY4gEBmmsgnl85gbLBxfkPqnuWI8jIXXykBwdcL8acsJdvlw7+JxHRMrckf8+KG9OqyaT6WL+Q8ahZNMWg7hRgg4OEQV3/VI5ncGifFm6BEwEV/1DJC7bosJwe2YdaWcoWLiNw2zFDGfkYZFNfFxBWO+UL8fEmiNk84kTJ0TTkODhBpRdiHl4S65vCOQTzinUCmOi6CNimMfiZuWJhN0y3indPdJuESPkM3RTk8oTMDOY8JZ3mPDFOUFhtlbwFzQU21DulLf3OsVh8tEyfZC1LnQchmUTBfKUHRCxHwTMQwQc+KLoL5HLDcXBOOYQJcfCN4BHDAb5TMmrEi5BskDwfpfFDg3ndRif5MSWOSwiQ+Xp04fkGJa1NEoA4PtS0fLjuce1RhhFMa89E0SiCxsnMfw/HJM8d0TBFxfnGAT/wDJy2WG2VjQvkPzyQWNiwyF1hxlEViasRrVjwcWtamX4R491GNivnDMO6dhgDymcjfSfA4rQVf8hsthfhg6cVzae4IiIWDg/HHPg7Ca66awYeNDcU9ye108w2TsJxi5yAgOA5/rgcwUPkDZQ1YGFICepWICZoL4Xlji/aybyj0n4D340S/RsgA0QC7jS3mcsQwYmNlavyI/GYLEAfysgIZlYIlZClnKsQz4jY8oT3TCVrVhYco8rEfzxuvx8MtbEqDvmiLG6xoywF0LLF/1uTCA1AFxz4PEWEeF/lllgsLDl98Q3OKd0pPMFI3ZQHECDiowQEzo8Rc0GybQelLbfudZM5eHVEwQTrIUnmQCIiviMc0cgpC6MVh4cM1DNOaShhu6oCCxQ4kQTGwamYUCSiF0U4bFYTS7M8HMmPFvMaAxoxXTdbKGpvACP5EduLrUkKEcOCZGABHB7MRzvC6LCaAD7ThEQX/TYhyLsl8YDIDhiYby4uYc1hYEubjE8MXCnsVh4IZ7Q5jw/IOiG6YIMaPHDuolbGMM09sxA4Pw2vumYbWWCcIhNw5cWNPcKTzCnv8Aqnv+qILuUKBzGkcxT2zDi8RamdfdM2UAg0AKA4OAuhbhDPg6yAFD6XdKTzCnuNLaHWQoNxQbJlv3OsmW4FXKCehSOek2TOUUx1BRUVFRCc1iYRKFM3dTBTDdTDdBwmKnbup27qdu6i0ouEwU4WieaKnCnanOBCnCnCnCnCLwmOyU4U4XyBThNcvk8KcKcKcIPzOSnU6nUyBzUygC6JUwU4U2tTKdTqZR1WU3hTHZTHZTHZRMwyUTspjspnfyou2UTMMlF2yi7ZRdsou2Wcy1bLXsou2WpZzLUta1rX4Wcy1rUtS1LOJWpa/C1+FqQmiVr8LWta1IRmK1LUtS1IRzWvwtfha1qWFEiZalqWtGaCE0Fq3Wvda06eC1brXute617p0y1brXute61J0clB2617rXutaM0VB26g7dQduoO3QBic1B26g7dat1B26AK1bqDt1B26Md1B26g7dQduoO3UDG6gd1Kd1Kd04ZXTbfufZNJgou2RcUI7LUnxTSYLWta1rWhGZQduoO3UHbqB3Rad0GqTypfKl8qRSagpApApApAi0JrRAKRuylClGylCDdRUApRsoDZQCIEwUAoKHB9qSm2FLaW9aRzGnup7hT3CnuFPUU91PdT3GnqaRzOpb1904Y0ih1im2FDrUupd090nmFI60ih1PdQ/lQ/c+ybyhFAccRNtSObiTBAxRKbbjiOLYFA5LupKbYUTt/oJuI35XNpPMKXWpim8o4fkckN0LDgHw//angIlNc11jxna2Oaw3F2dAuae6nup7qe4U9wp7qe6nqaRc0t5nUt6+6WctDrFNsKHWpdS67ae6kdaChag0i5of+99k3lHCME1xjwffgXmPAuAXy7qYucYLDJzHDEOcFhCDU5+ZTXOAEbIJzg0RKxMQOCwjoCe8NcEMbUBvQbJthxfylZQ/7l+MD88aTzDicQBNxxnHKCxMR8CQmmLQU/GltmsPFmuFiGATWkXKZyhYr3MEQIo4pc7MJuIHLFfIwuX4sSyc9SsaLnhqMcJxAORWESWCPBrC/8h8bUi5p7vqnup7qe4U9wpPNT3U9TSOZ1Lbupb190s5RQ6xQsKHWpd090m4p7qRQULUGkUO6fvfZNsioGKDeEM0bJoRyCGpyew5QTBBMHDuRshhm5WJ/rCZyhEAiCewTABDDAXPiZprQcXK1DrJvKKPjZGMqYP8APieqe8ccIF+I8ndfGXY5yyWPySoCDfpNcPtYbeqxRFqGbPpN5QnnJNw27KAWIydhCwRDDAWLhF8CLpv4+6Ahwb190t5nU9/1T3U91PcKe8eqe/6p7j6pHMaRzOpbd1LevulnKKH8pQtQ61Lunuk3FPWgptDrIUG4paVEKIURujzD977IW4Q4m/ABERTGS8BzHjlwci2MEODBFxPA4Tp4BYeGGUOsU3lFI5ieMVFR1BRCiFFqiE+BUQoYcVELLdREEHCCyJUwUwUQmkQUwUwUwUwTSNXtTt3U7d1O3dTBBwiVMFO1TtU4UdSmUwUymUdSm8KbwVN4Ux/lR1DJROyidlE7KJ2WcVEqJ2WazWcVms1qWpZzJzy26EyzWpZzLUtW617rXuhGYrVutS1LUhGJWpalqWrwhGJWta/C1LUmxz9p84aSFhvc8RyWrdat00OhdQdup9cs2ag7dPyBiUzEcXQUHbqDt1B26NlA7qDt1A7qB3RjuoHdZ/0nYsOq+TEGoPj4TTMGmKgd1B26g7dQd/ShndQO6l8qU7qXygIhS+VL5UqLVIpPJUqlUFKFIFIFKE0CCkapQpQu7977IHIKIUwUQoolTKYKZTqZA5lTeFMdlE7KJ2TiUJoLUs1ms13KB3UDuoHdQRCDclKpVKFKEAIlShShShShQ1BQClGylGygNk63CCgoIhCyhwhwZbhDi3rSLmnup7k57WQj1RcGiKGMxAg2Xf8AVPcKe4U9/wBLFwhiQzQEOBxGjqmuBeeL8Z5jJZYWI6MrkLmkXdSy7vdLevvgGNFuLeUJ7wxsVgMmdOU5wankuBJKwBlGh1uERxd098DNiO8KRrQi2d+SDZZRT3UttQaetBQtR3/veoZKUKUKAUERULml1kLU91LrIWpFzT3il9qShagplqWdfdIu6kcx9U930sXXigbcMlBYrXFzYFC2fBz2jqvmb1T8V92rBcXsiU+MuV0OHcKcR0ufhYTnObE8ZG7INAf9cMYwZ9oOZht8rDaS6coczqW3dS3u90izvtYBeRqPEoEBqzxXoCAWLhl8IFYmHLdYTJRQ8AtXw+UGDi7p7XRNL2E6FB+Ic8k1gajzNp7qW2oNPWgoUdx/e+o1NuaXWQtSOal1kLUtuae8UvtSbIWpZyilvX3SLup7vqlxgfpYbA+JK+Fg3TWNbbg50HRQIIRMBFYTfkxC5f7ca2QWIyJa3omiUQTiGiJTXRERw7x6peyYhNEohxLHRjOmgzZng5ocEMJm3AczqW3dS3u90ixQEOJsol8AE1so4u1vO1LrJxdDIIOd/PF3T3SeYU91LbUGnrQ6yFA5j+99RvU25pdZCwpHPS6yFhS25p7xS+1JshagpnLSzr7pbd1PdTjk9BFM/wCoAyYofkeEwEDM8Mcw+wsEQYERFBoFhw7/AK4EAiBQAAhw7x6p7qe76pHM6lt3e6W9fdLf/ND+QrCbBoow2ObPGl1qT0pNxT3UFDhFRRIUQohTBTBAqYKYKYIuUynCmUyZ1/e+o3FTbml1kLUjnpdZClt3U9RS+yioqKiEbIKKiohEpsIKIUQohRCa4Z59VMN1MN1MN1MN0CIuzUzd1O3dTt3Uw3UwmU7d1O1ThTBR1KfwVP4Km8FPeR2ozvxIkZKPhTH+Spj/AConZZzKLtlF2yi7ZRdss5lF2yi/ZRdsou2WqZa1r8LV4Wpaplr8LUte4WvdCaJzUH7rVuoO3UHboB0TmoP3UHbqD91B+6ZNnn1Wrdat1r3WrdNB3WrdQduoO3RDt0Ad1B39KB3UDuiMrqXypT/RUDuoHdGO6h5UDuoHdQ8p+IBYxUuLiXJgsPCkbCKgd1A7qGal8qU7qU7qXyoZqXypfKlUqAUoUoUoRAUFAKAUEFBQ4GlvX976jemKabqIUw3UwUwTnBB2SnCmUym8IEzWUTsou2UXbLUnTQQn3UH7qDt1A7qB3TW3zUvkqXyVKpfKlzUgUgUgUoTgFKFKFKFI3ZFoUoUoUo2UrdlKNk1ogpRspW7KUbKUbIAbKUbKUbKUbKUbIARKgFAKA4DmNPdT3U9wp60931T3/VIuaW93ulnd/wDlS2goWodal3CKdjjpmoYuJcr4miFJ5hT1pFBpFBpb+961LUtSg5QKhndQUvlSqVSpoUoUgUAoI1daXWqb1p7qXdPdLrIWoKbYUt/80tu6kcxp7qe6nup7hT3/AFT3/VI5nUt7vdLevultqCm2FD7L58OaWbPjFPxmBfMTZqDHO5imsaOB6U9wp60FCg0ig0t/e/pV1qb1pdaoXpdZClnX3T3Cl3T3S6yFqCm2FLbfdLbupHMae6nvHqnup7/qnv8Aqnv+qRc0t7vdLevultqCm2FH5WJJh+UxrcWaY6uiwsfEwxIc9lHGcvieblfC0QUood0p7hSLmg2QoN6W0O6Ust+99xV1qb1pchSLml1qm091L+nul1qSm2FLLfdIuaRzGnv+qe/6p7qe8eqe6nv+qRzGlvX3Sy33Sy1BTbcSQBFY7jiavKYBHNYhw3EGQrDILRDg6l1xT3Ui/CKiESgQohTBTBTZqcKdTKKB8KY7KY7KJ2UTsonZRdstSMyZb977irrU3rS6pvMaTU3rT3Uu6e6X2pKbyilnX3RFNIi5RG6mG6iN1MN0HCJUzd1M3dTN3U7d1MJ/pTtU7V8jVOPKm1WU/wD2lT/9pU5/kqY/yomaymd/Kmd/Kmd/Kmd/Ki6eyi7+VM7+VM7+VF38qLprdFF/8qLtlF2y17Baplr8LX4X+TwtfhZxK17rXutW61boRzzUHbqDt1B39KB3TWndSu/pQdupXf0oHdNGV0/FeHStKwvmzncoHdQO6djYmHiZnSoR7lKd0cOYQJX/AErAv+mw18GGhhgLEe3DlmN0RZSqXypfJUvlEWUnlSqXypVDNSqVSr5GfL8fVAKULEwnOsYJ4xcJwziuiACgFAKC60FC1BuKDZNt+91xV1qb1pdxiFEKYIHNTBThTKbwnFROymOyi7ZRfstabMta17qDt1B26gZ7qU7qU7qXypfJRFlKpPKk8lS+SnNUgUntSeSpEWCCa0QCkC+NqkavjbsmtCkbspG7KRuykGyDREqVuylbspRspRsgBMVKNlKNlAKAUNVPdT3/AFT3/VPf9U91I5jS3u90FN/80s5Uwf8AqHg++JsnYQdDysF5wXfG6xtxdaj85scL7TDHDZS67eOLjHlYsDDc2Jcbruov+YU3g90oisNkxncjZCjrQULUG9DrJlv3uOYUQohTBTKYKOam8KY7KJ2USs0IrUoO3UHbqU7otUgUikClClCF1Ch1Tae6l/T3S/lQoNk2wpZb7pbd1I5zT3/VP/J9U9/1T3/VPf8AVPf9UjndS3r7pZY+6CmcqaZvyI+OLrFM5QvyMKdvlYWMeV4MeD7Ufl/6vtYf+vDpNwiU/Fc8ysWHhBnvh3UYGeLiOTOGOdbG7p2MGZQippmRQo7qCm2odzCh9k23733CgoBQChw61N60uqbc0uqZT30uuPdOJylCh1kzlFOHb7pbd1I5nU9/1T3/AFT/AMn1T3j1T309/wBUjnNLLu904dqCsVhydFMww0cXWKZyjj+Rilg03WfxiN6Py+Qe0OVnB7wwRKGY4G4WO48oWFhyjg17XRgV3cXcrvS/FDtcR1TOGPhfIL5rBwy97g42REGoUd1Bsm2oPNxJAQ1GP/wHcwq7qmUvqbc0uqZT3/VLrt90v5ShQ6xWHyCnC5full3e6Rzup/5Pqnv+qe/6p7/qnv8Aqnv+qRzGlt3Us/8ANBTmT4UAmPdDU3PibJvKODiAFhgvfOU61D2NfCKPRRCxT8mIGiyFuBOYUjJoqIWNihrV+OwNb5KiJlMN1MN1M3dTNQcAp2p+K0BYUBE7ouQeFOp/Cm8KJjZTO2Uz9lF+y1rWta1qD91I7dSP/pSv/pBn/wAE3q7xSUyl9TeY0v6UlMtT30v7fdL7UusUzlFOHb7oimwiVkohTDdTDdAiY5qZu6mbuFO3dTs3U4mivlZuvkbuvkavlap9cYFfKNivk8FfJ4XyH+VF0Yyqd38Kc/ypz/KnP8qLoxlU7v4XyH+FOf5U7v5UXxjKp3/wp3/ypn/ypn/ytcYqOJsFHE2X+Twv8nhQev8AJ4X+Rf5N1r3Urt1B+6g/dSv/AKUr/wClIf6Ujv6Urv6Ujv6Ujv6Xxn+lIf6Uh/pSH+lJ5Xx+VJ5RwC45uyQw4KRfGF8YXxhSBfGFiN6AJmAAvjC+MKQL42pwaE3DmdE2XxtXxhSBSBSBShQCJA6JuHHMqUKHCH/0D71dwqZ1pfU254RUw3Uw3TnBTtU7V8gXyeFP4QLh0U7/AOVM/ZRxNlHEUHxX+Tdf5FDE3UH7qR26ld/Skd/Skd/Skd/S+M/0pD/Skd/Skd/S+M/0vj8lfH5Xx/8AcV8Xkr4/K+IblfE1fEF8LV8TV8TV8bV8TV8TF8TNl8bV8bdl8bdl8bNlI3ZSN2UoUo2Uo2UAoD/74saVD9EB/wDSuEU10MjT3KKiFMFOEXBNcAvkC+RfJ4U5WZ6KL1rWtQepXbr4/K+PyvjXxhSNUoUoUAoBQ/8A4cIipSFrUHqDt1IpFIpFIFIFKFKFAKCh/wD3Lf/EACwQAAIBAgYCAwADAAIDAQAAAAABESAxECFBUWFxobEwgZFAwfBw4VDR8YD/2gAIAQEAAT8hxtFZfOm92Dx8A8Wi0TydDL6Niupe2Kj0BUeMeJQz2qfFp9FLfrTa7Fai+KyouHjUWFuhluhnsoZq7oZ7KGeTT59N/enV3ixjUPAnBjtQJlwtVFomTjp7pd1iv4LcqZEMDnHuCEPKc+G5hchzHIchzDqHZzENzkOQdXBdzQjuQ3IbjIfyIbkCUNjikkTG0JopJWEjhJJJI2QInG50PRM9wsWeCKj0OnzaVyXYiCBF0VlRc6PGotZ4FDsW6HYs0Ms+6fcpu7U+ZT7KdXdDQmVFhaxYy3RfLKLKfZS7Kbu/zaeyCEQ2OAe0WScJCyRnD41aEUqzHFQcBwnHhpj7OHB48KQIjqgBpAh/bA7CHJCLsUHcR5I7sjuxJq0IPVnZkdxHdj1R3Z2HYdxFGep3Z2E9xzSMH6qX4LE9SN6I4H0PqID6i3pE7Cdg8nLFblnJGznXOQdx2HVk6tqdWQ2eJKkJcaRKbEAc5znMIh9EbmcxzENxEXEQJRK3JQ3kPlJJJwbyJJJGWvt/DJGz706u6bH26GW6LWWMWOxYqLgrUaKb+1Onqn3fJGeF3bFpwAmRlPAyQtxqmpngniDMr0R0ujum/wBHg0r/AG6HUtNLz6bF2qbWWqGe34g/FSv6U2fZGEEITOJIIRC2IWwiGJIWRwI4DgEFYcXI4TjOEYPLQUwTAjyQ3ZDdncQ1JHcd2dx3ZKpknuJbiW4nuc5ITMsAZnnqcmOUbhXnnqRvI3EbzuLvPpiM6InZgp2kB5DoslQsHJWIFhOOw6MkVhZSBEgW+xYRyHIJDkOY5iJH8kCBKJLH2/m83B2GEnnIoTXeMzcRcBdheC3qNHdPgHiUMvd0M9Kl+Clv2ps+xUXjxqHimycUqH4XT5NLQl38X4RY6ovUqx06xjS7ihmZaGPloZZPxS37dPuoZZoTJi5KEzGVRCCCEQiELmuyGxDY4iI0icRwHBgQnjUCJ7vm8rF3LQphBkRt5NwMJ7wdqzf2aOqbOinwDxaHY8hQz0aGaeqfOpy/YVFzo8OhjzgPHwqfDfxJau1S0PT4Ra6oudHhUWM8Khsn0ZOuh2pDsW8Fg6ux9qbKfbQ7OnXC1gxF4sotpv7fEF6KHYt/M364C3Tlw25Fx2OYgfbvMySJy9EoknD3Ekk4eAN+BOLY+XZQ2eLS2vqdCc1xK1F7qnMjSeBT4PxFZ2pvCsqVa6o8E8Ki10qx9HiUWM8SixniUMt0M9nw7LFFjLFHiFjBiGzieQsbafJpdnWE1FFjLPz6GxwHGcA9sgPF3ykecKG7Ow7juyOdc8hz1E95PeLltB2hlrMb1DmYNKLGyHypN8Ts6HR/uQZUHEbiAQkcBTIB3F3VOQ0MSyN6I4n1wCyn0J2onYPCxAsKgCszpk1YfnnJJ7hksnYlvOaT3HVjynBHagJc9sLnOU5xLS7OQ5DnOYU/sKK5zHIcgqQqGYk3IbkBlMVAnFvwPCoudHiUXizRYzxKLCxQz2Oiwt0Mt0XOjwqL5YsHjqwsbPv4n/SnzqPGLX8RrKGL1plVqs0ZuaFDPbPExcD8t5lzh0+CibSJGErB9NAwpZmyyJNouFnyly4uP9HL/wC0xQlFMqLHVPfT4GEYQPxYQiEQhf1IbHEcSOJCJRlqcBx4bhwTjOA48NBhpLI4cDsEJuhEIjuyG7O4zmbMhZsluJ7zkj5BkKDflBEUJA4bkRmQEbyNwkXmZ1JyEb0RvRBS0yN6PrgyDRH1omSgnYTsJ2jReQ6plRpGawSQmJjoTIXA6Edni0h2Y0nCOQ5DmNycxyHMQHU9iUSSP+Ba6+Z/GFelKSkiLKZNJrBJP5Y8TF2bP4hJ+17j0THdxcjErIBiJb2RnqcqeD+hMWtqE5+mLdZIBSrz+iONBXLysbpYqLXTGX0DPAp9VPn02LuoVOtU611R4BYo8IsdUq1R4h4VFjPCoZYosFy0OxYovdFrqi6K2EEFn2LCEQhbdiRBC2IbDSHRDY4jgImYyOCg5bnvA7CO7IXLF82jqmypXrS0fYnfoJni92HSAK0ZqTwBiG3qPYynm1QDGh3IhnciJnYMpwlH92EzMhDDbbctvXFVjRSdjZmzNnwB67OC80CxUWlkVF1N4VLpvNptXfxV0sVF8sUeAWKPGLHVHiFjqi90eNR4h4VDtTLKZYyxRe6LXVF8VGjun3CodnVN2iws+6LovmcJcC3zkOYhuIkPkJwkkudU303hHg4JDmFOK2iZPkvH9IC5SKPaoS20SXdmQ7sTSKUnUQiU7vHwi11RYWqGX96fCpfip8mmxdio9xpRdLFTrFHhFqjxi11R4RY6o8I8ajwi11Ra+qVY6dYzxqPCPGouitRo7pu7U6OvhTsWaPehfKxI+g4jhxxYrcdx3HJOSJ5UOTymSz1x4jeRvQs5kZkcSN6PoMabc6InYidiJ2nbk7VQHW2YHQKWxgfNOfhGNUEaE287juMmzILSG4jsyGzIPRkeRqcTO7GFHqxPlOYaYBzHOc5KzanMcxzEdxlC7IbkCBI5TUEkkl4bJhJJdLFR4xYovlqo8YsdUeMeNR4R4VHhHhUXujxKL3R4VHhHiUyo9lXXw/Iof8MjqtpbodQ91PjHi0OnM8f4XB7FRBeFydYwNZHteGWEHkEEIhECKXRCIbHAQ2HodyGxxHEcJYGpwHGcBwi0dkp2HcR5IUJeSG7IbjuN4LLdncT3ifebgTRdQXozCioABJsyAhG5Eb0RvQkkxAlFQfU+p9RJJgSI+h9T6me6MrY+p9ToZ7JGVgnaidmAaLyI0hUABoPIaLKhLQHKE4YtJbhmgT7HRnRnUks1OhAiQJASYxAj+TkOY5DkFz2OY5jkEQIgSiSTyfmdRtLdDq19N4x4nxF4VPuU2fapvdHjUvY6fJpudUvxum7vT7KfYKmVF4VqLpYqPGLFR4wqPCLHVHiHhUeAeBR4h4lHgHjUXuixULnog9xBBBAwQIECBC/JDY4jgOAkPs4DjOIcQvBdhDk+x/M6vYeJQ/jdeMeJQz2qHUnmU+xU+IeFRYe9039qbvVL+LLT3Tb9ipFTlanWKnWKjxixUeMeBR4R41HgHiUeEeJR4TPCo8ItUXab+3xJXdUMv7UXi1S18rGg5RJOD5ix1QzyqfLp8I8Sh2+Ph5tPsp8FniqXsdN/am718T834pb91CouFlOVMVlRfFR4RYo8IsdUeEWuqPALXVHiFrqjwi11RdF8JO2lXYoZ7KLxYpK+Vn3EandmXVnYWFcZCwJ4BPmXJheyD6H1P0SdtACdVGhYmlG5ZGKwT2Jbie4lsxPJxoT3HYdhm0Yx5NhcCJDkiS5N0RoqW+oWk8UUJEr7CeUJCWZDkOQT9pyHIchzCJdHMcxHcgNoIbkCUShgSiUSSPmEkkkj5O0TQ4VOVOVqRYqcrUeCWKjwmKyo8I8Si50WuqPELFHhFiocFRdTPwUqiZr7dF4tVHuC+VnvwY54Q7SaYzYKEkJrFl3enyiVQp8yI8KhnsHeMWakgYruqXjQQIIRAgQFQ8hX0HEcRxD2hUuxkIXEcmrs4jKsTu5xHCcJxEh0cJxnHgNIiXYxqAn7CJDdnZnceUdmd4n3kg1jCi5YPl4e6UhQk1BQiNxyCSSxSziUTuj6YVZxZND6n1PqTtIuh1RPAnWkZjYWTQngJ7CdhnBOCyJ2IkJ2DO0rQTiyOE4cA7NkNBkcGMjm2RmiU5CbjsdLIgWwkhISKgT7HRnV4ZI7IbMjyQIjyWQI4URC5DkOQiJzz1OQjucgqQqBAlEjecXyss7YRZLUiZ3JwcDMZ2DM5EZXuJmWMnlDmTV0WLBLmxkBo6hoUxFBmRGSIdJu4oMd8pZlXwPCfJGpVGTqCzOny6EdxOexdwcEifZGgYoNFIhUwTkQVseth9oCdgRODZ9hFlF3ql4R9kKbajaGxORcxmEa06O8ZW+DT2CyVKmSlmZ62DKQw4nByWka4CBAI0Jk8IkhocVFwWErBkpBZycsE8G/IsVHhFjqjxBWVOSLsKhWUXSzGD3YwjIay9EEIgMIaEG2Q2OI4hpsKYto4jgEk8hRUNZOr5rDzMJObwUdh7BXwWCDGyXIuJYOwx5aEh5Ih4zMkMc3iRnOhCYjNlmyHEBaXLZoiaO7M9Luy90IWvcy7XdxXBbg0pOjy8LhnDImG6IdTh3n2EKTSKVsiKQ1ookIXIEsvSZsx6iebE1s5HNNhJFqRSou9UpKzLoFTtJZpaKn7sLCxhmR8kOS5mxMD1UFwGbGeY+UbkXvAnILE89sc6IyuXNoNm6WMrwKUvitTkTeRjYIxy2zMzGq0szJfCIE8j50SkBb6o8FngEKTUyIehkHzhFDQdzWHYdiR85hWWnOEiTRu4puF8uGsu8CGWbYCWRcLKPdhItkT2AjZEFwMnLwclC1Gkc5Eihk7aMywoohLA+bGQX5iKyywJmRn5LD3U+4hYPA7CUsW+JjMYWfsJCsX7dHjCnT2IKEyDuB2LghM4JqUmDtjcLKmlhPKREs/qwUwyy4Z6xQEjssM1gMhtwiAZG9vZAlbqodzqlDalNCc9DYSSQWhoc1ywQ064ST+zeIrCFMIhIsfZEATNCIt6C2CwsU1LpB4Z4CtgFajNgOcyOqEoUCugJUQXFqQ4HqiWzuJCdUeOeIKuwyAyUFzFsZIdieeDCISbCCWnRmZt9BYVGabISSWWF0WMj+DBYQxk7CEMw3IWOQFQMSFSYm4yRnWoxycxLmfEqhkOjPPLRCU1WyEv8AYUUsz1+SxjHOadwmiaIcA9khsu8YeYInPI1JrWdh2HVkjZOxFlaECHOAyWnSAizo5zkwHIJJyHOcg9khl+Qtw5DkOYRLPQTn7HMchyDQS0+2chDcgNoZfeSiUSiUZjokkkkbKSTIhHk4zh6WMLC1d4QsfYhfD+4Qy7HVqL5EhMqMrUSKSxUeCWOqPAFZDGJRgpLGEIiqLoqPdS7aHSmMXRDON0UTM9RIVuCZ+eTVqUxoFCl8lpapu7Us9lEVBPyF/IghEBpCqShENiGxC2Elo0IRxI4iGwqsDgHsDRZQSI2LPAcZxHGRGRORxnCcIyaT7OE4cSVK84ETuI7sST6Ikd2d2d2PXHZkhLdktxmrMnQAjcuVMsWQl64LkI3ojcZGYluI3IjifU1pGM+mGQ6o6onBvpgp2k7B2ZQWMhC4MA0+RO04DhJJp8hQUAuzSaBOCwbm4R08iHgPJOYMbZCivJbyW47iZUCaLjsOjOw2R0Z0Z0ZAt9kOSONRiRoASByHIcg94RAtw5iG4iQiCBAk1dEL5bnxymWvv4nf6PGoZmfy58J6EFwVFrPAoZc7dDG/SlUjpPPp0902rum37p91L+VPvpeCqL1PiCtR4grKjxBWVF0VF/4hfIjCCBxAhELYgQhZhDY4DiGuwhqxwnAcQqBbRwCGAiPp81+oeTSxs/bp9inxjxqGXUqdI0VWKi1nh0MudunylSruqXTeeKi7tTo7pt+6fcqfcqXj7qn3oVF76pvCtSFajxhWpCtRfFRZ9qm/tT4LpV1DsWKNHYqP6/NcqzftUeZcqW/NTl6DxqHVK+OkKixnh0MudqGP+9KvpN/jT5NN9J7KbF2qbHap9yptdqm12qfehUOCpCo8AVGRhUXRUe1CoupvAfwt2LdGjsVH9PmumWsTtVCiaxwPNJ7h8wmd5Jmcskdmd52kgmTacPmOU5xYToKdWG5zlQ94dJ8xzHMcyOQarOHMjmRzEB8zhuchDcgMTKESiBKGzD/gSiSRhs/Ykkkkf9sZJFcJobp2/YVHuozlqxvKm10ptd0+5U2O1Tb0U2ulN7tfFGgVTlRcFRY6U3d6X8I3YsUaKX9fmulrr4UmYWZM8hDkQiEQiEUDiOA4idyIXLQTcxcThOEewKZcI2aHAcY/2uhIJjiOAhEnRfrOT5nIV9RrU5VIckeRJuzKYlyNkN2Q3Z2D5jKvqdh2EU7IWk3DM1wmJbyYnuLd0oASMNh5yidnT7leOtGCjcJcepG4jcdkM5Fh2O2H6n1Fip3xeqOhZwdCdpJTpStUTtJCdhO0aCy1J2UA52Sy1pN/ZkpWqp39cVtcPyznnJHNwsJJbye4ZyyJ7iW8nvJbhzfImJ7jsOjJHUMlsxcGdWdWTLoOjIckOSPJn9jqyPJHCcnUUQEsjnOfDRFJMzkOY5hWXYl3OYhuQFd1818sdUuhS0V3DSvbwbJ6nlsLSh6Kb4rOjJLdrF0hqfkWswEqMhPYilSoiLZQxxeKLacxsn28JX2455pWSXrgioFcxs66cDx2iCiCcTjIydtRJLTg6yTByyhaNjFWbC/neHe4n62486YeQgTk2Wnum1diotXapt6KfWp9SmxdKfYvdNz6pu0/04XY2rpTGe1LtIIRBCElIhbENiGw0iwqLHEcRxClGWpwYbgOERJuvn7FS8Z4Q2zyGb4sfeDQkZM7ifzdLErOhE9sxZfiOD/+xDTB4KPdT0Zkb2tB8OTkOsai9FtSXO2CFlZLYPrX9Vh6VK9B2mK8jNrkS+RFVkScGrIjsjJUNUVhZEZn+DowevULXWBGfuPT0RzLJmrRhARKSxdjF5Zhk9zJJ7EIwe6n1BUWLv4hf8QLOim1dKfaqfaqfYsNcdHfwA8PYpTomPgnDT3T6Pn1an0OiTgQx6tUBoe4iK2VZWdCZJlhK3wbAaE2Zc6XMG/cI6nK5uhW6Qqc5KWTuQ80vRa6ssfbFhDJuogZ6FKJqU0ZFU6BH1jkZqDssCLwzETKMxqukIGDxtgqewoYNSLCNl1g8sl8kAnpfFr6S6kvpfUpsdKbfSn3rB3WPqYvDzaEe3T6NDsWUPbun1fOLLYhsyGzOwiyMXxgcpyickykcwZNY7cIe6iVS1iG5GabHMQ3GJEOieBJlZ2kxsimEkokkSH0YddfLGRha1jJZYyWg9zZRaMUk4NjZPvCcGenSvij59N3en2Yx8kXpfFrvjmhfCvRptdKfYqfUp82nwXSkfVhBA7FlGjsRGK8XzPkuxYQQiEKMnBCIbHEcIqnkIXI4cYOMyuWgjmJtCIHEJdhScyFgzLkzm5y7DTkS32O45GQ3YuSKHpm0G4rSbIbiO4yajOzO52YuQnvHHUKMWRZie85pzSAGRiFD7cQfDz1o9zNeVE05RajShZchkMyNxyojhhT7BG8jciOGGVqaftzvhkTsJ2FudydpO0naSUsStSdlAAms1J2UAN8vKlJp5ZNaVuHsdcVeacwZa1OYck5JPcOby2ZMT3k9x3DHZqT3E9x3HVllbjsO47joyVLLUcNGdx1Z1ZPGWp0ZHZkdmR5wyFITQooSyOc5zkHDcWkcpynMLyFuHMcxEbP83uqXrTePEoeE4zyCEhUDwMJJ/K05YfAShUrUGX9WLkykM4/98cCQkixdUWFiiz4516/EefTf2p090+ym/tTdTX9viHmun26fNFhGFxIj4B61N3bGCENBBBBA7CCCEQhXECGxCGkIoIbHEcAqyOI4jgOIgvmvLpZc6p8Q8Kh1XgFioZ76fYpv6qbpY6+FrKl6tK9fiPPpu7U3dqfbTd3pu703dqfOp9mn2afcFR+uldTX01/anyKXbSrqGWqNHYv4S82rxap4FDFSXRWoZd20+xTdSeIWLqiwt0OkOq/0pdP59Pk0396fZTd3pu70vn3p86nw3S/G6X76fKfxF5tPm/Ev60q7oZaqNPYv4Rf9BbxyHMcIhuXVoQ3OREMGZGX1EkCRsQpJJJw1iJxZ7tEmmk8LoJo8QsXVFhbodS8WmcnVLpPKpv7U+TT7qb+9Pk0+QKjyqfKUvwul+J0+5T59PnOqqh/EFdQ6bSKjzhfKkjwHFhEO4lIsMl0ODDgFSuRgtxkN2Q3Z2Zn5kwMZJcfLjllvMLJcc3AOWT3jdWpy6G3L6KYybpoU22zUhRqDKg0MJcAa3oTX1ORHIiNyI4ilOSNyI4n1IPMxD3H1PqfTBfU+h9SdpksE7SdpO0z+xI4SdhOwnay1J2E7SdhwDZcidhwHBgM7JqTtoCEzy6k7aEltNRUbANJZYgZOZEvKlGQyx75pPcS88aUSSe4lwcaHNJ7iW4luG0MtCe47DqzoOT4OrOw6M6skyh8GR2Z0Z1HJkWOjIkSI86xkMN0hjEBMvGOYaCYOY5DkEyjkOQ5R7w0vt8kkjYrahloMTVOwnReLFTkXGLOF4VqGe3TOVUvUpvCsqVui1mQU1nrQyyxU2hg07sSFcUP4geZTciScGiuxo4Hri0Qsy8LBeSNBFE6icrCcLglU2LlaP6w0Uv6U/0wlDWkE7YZFd108FgnkciwilQQOxwRQ7MYEPaWaSQstM5FyRCIRAmbwggcECEQiBpSiFscBxHEez5ZobSJdBshh2tyKTdDBY6olGRI1hVUxwWoQ9tBjCYpKNRMAlS+1g6jl9Klox3dnFM4EJYaE4oCdxaZKZ4BYuqVjCU0uLCb2B5BYI9USalN2JLIdQC5mJmwPgCRNkKlcYdS1JZ4IKFLzcHeSJgZtWxaVIbLNZhOVi/6YIbhMuViDYkmIrs0GZgneZyLc1AdmfexrRsNSPORIUEoDiS1OYYedT7YgAKVNrkmd2ZtIbDerbJ4yMmNkiwGbJ8ga8GNxB5ULcjlYRIaSEO/AxjCHgmVvxirCPTrIZFhvLjoXAqGYlbEOZ+csLWLslNZDsYV4uaNPVHSoVhaTQsdXeM2n3oS83J51xLd00MjCBmU1D3fM3+GMoIhsxpCDOi+WKlqX+hDoORIRE32G4S5sUxxZilhi2pLH0K9Q0nu06MTzdPlIuQ1EFO7fszddqB6T6FkOLTwCx1SecJEzNuNoelh4u27e5KXQ4680LCYsyTwET2k5Mxd3hrehFN8kh4AIQ0Q7IsFkrssmkSsmRZHeovYCQix80jDKgkDUQZi0E18CRKBMs74MiHYud2DCEYs3O+HnU+0Ig5hrUYzd8iUDhD94SxY1IkQTsZ1ahyVM0iuSzIu3FZeyGQHDHXRIhEDrBansDIpHe9RKk0wbH4sZwyl8JkgHWWYjl8gVpMgipMbY1Lswkk0dYp/IwRNbKNmYp5lmdsfdhPSWYGE0/WWjgRnW8FFKhr7+ScGyMEkkjzHQhMnCT2isqYT8Khio2QrYJJYSGiGW02jHfEI0IySw2lp8liNllrh454yosLJIzqEO1YszMjXmhJPBQlYk5h4r0GyYTQmOn4r55GDw8nFpvisL+1Pm0aEgpfy0+zTGJGCS+hEYJJYJZuiSJwm4xP+WwlZg/4IeLwm9ievML0Ze4DNoMxrgwbnLz0IEZCu6xeE40lrZMWpIkEgxhLcujX3giahjbCDShRavgOJ/KJ4RWehLcck5JzxjefJVeQSFRBPAL0GLhEbRG5FwaFCshG0RuRG9EbkLmh6kbBG9Eb0fQyD1gjciNyI3ogkqScCujshF9T6l2iwkURYW+D6H1H0PLPoOjyE8xQ+CM6Auh9CdqJ2IsxOxE7ETtE7RfdBwnCwG6G48qRkHNkHAcOAkMhkTtJ2E7CdhoROygAPLJqTtOE4ThGZ5DgoATWBOApKQZ9tSu9YVH/55sdKc2E5cseufglmtycdESlhc2Jlwu8BPcMk4EhLcdhZrlhOVaDsO46syceWgs7LQXMdx1Z0Ysx5keTsOzCjng7hGYDpJepEhfY7MaaEVztF26FwpsIg5TkOYawYsbkQWL5ZLvWDlAxA1YMbzqF89niJWN5g1M02LtU+MeJjAz2PDWKwQzWMxnm19orlkc4L1+I6bz6tfh3CZbDQOd1HzU+7T7NKupeGqfPoZ5pGOfkSJ/kqUvyVDFdhGEEZ+iCCXIkSGiMvvCCBpCkELYhbCqGIoIIRA1lIIIQil0W/mfNggSW4hQQ0ZKiRZ5s5EyCwTcEkfJdiobhCzGEjbk4chlAib0stwEOVkxGkTuKHLL/h4IM5qTKyjIRigRvYMPBAUU+1tgnLmbQz+gseJQxE7cITlI+hNH0DppDyUdDLqT1RjYjXdNqZVrHgvWnNprgWaJ4CXNk87hoZGWcgwaNCRr5TRD4PK+7DUzqOBjRk2eDfpT5PwHPD3KfZpV1L06fUoY9M8FUr00+j8Sv7fCLhZ8Dxi38zfnhMFSRCwEJiFmL5eRsgkqEVSFi7pkHnRKxP8itvApTyrscw7tCjss5pY0gcwtht8YTliLezBTjcV0XwPaUJZV5QsjZ7sazuNK6wxXlnhHjUMjHGsZUfkJddxZnVmJIEsi6qub7cy6NslBcrs3gr+qW1U8m4VRaXHMzFgJrOFoMyMD23EirlkAsFBkHAEzu7NszuYlqKMFR5NPs0+9S/fSruqfQp8j4fZ6dPnU+d8U1d0WstUlnwbpY+WcdnTGZGDSLCm3YsjTVzXeDeQqETFSQhIwoWFreZ0sydgkkQezBjEiLiwP0Ju2Kyi5FmkyKl2JYQShQeIeFQ7CyYKYTBceDSuI8lwGc3e+DLlL+h3p1mPhMYLgruEbKizc/0P7XBqM9f4DCfaFQ/BTr6p9H+SCc8yl/0ps+6L3RYosF8G+WvmYpa1JWopkWouEyScOgu8Sqs243J2Jqhe3FYUFG3b5ZGha029TpaHAONikzfYnYsHwcC0gfLLQ4GH4I4Q9pUBTgDSgqD+YnncZnGo2qefGlMt+RypZYgcqcloLI4K0BICJgNIjWhOAOE4BuayJ2UABh8NACekp9UcKhPmdSstKQd7GouDE84LWm3bStcPycJySQHJOaS3nYNnJqS3Hcdw+Qzmh3OjOjIbM6MzMh0ZHZkNmQ2ZGtSGzIbMhsxcWZkWZDn8O4jsxbiNxJszgZDZnAxBHZkNmR2ZM1y1fw7ZgSCMuxv71Kvtpt+6WWPulUj+CnxjxqLD20Mu+I1zoijR1S/ivYEvmyfidL8WMYOzqhnhKnzqbsKawxM+2EYM9lDPZhGOeeyMIHQZFwTIgjBc+wsIwu0it8ro84WssU+aJ0Ow+fen3U2D5u6U6T0afAZ4KosPfQy8GKuNjZuqdHVQnBipLwy+bl+L4h6KHUHnLF4e5QyzsoY2BJOHuoZY+3Q6awt0XhWJxfIFQqCx2L5XQpJHzDZaW/cQsJHYv70vTMuUmzBUWddPgngqLC3Q6g3goZcXAqNHVbWLquvmf8ABdOj4k8BUM82n3qGXO1PmKfe6GPQbw04+FTvYKuSNjfpR7hfKzzKbnwJFix5VN61LLndN2l6tPjnhqiwtUMvo2R/KhiZnFOnqtr+E+fYp8F06aTspLxUM8mn2KfY6Ge54MWD5KVmi90ZKDxix1RYuxUP1oZf2o9ovldhCn3Oc5TmOceCinOLfOfDTPjC5DuIDiYR2Z2EeSGzJS7CGzwmYnzD2LNngu47MEr0sc0nvJbzmjGy4HzjlHPFkyvxB7wUNxyxwlFIkQxuEcw5hl5lHJLMW4GPnnOFHhJeZJOUc05JfRocw5JPeT3mcbDmnNOaQVnkZkGVbA83GtjKpL/aypC9zKBgWIC2OCemzFso4BwDgD7kE7ETsROwTtHFoSCbCtCw41IzikVlOw0wTtASNq3HAGtJXzJwlwCdoyXG5OxHAODgslS3OPRnkbzDs42oebGpJMZ2VYniJyCG84mmdnKOUc4YbOiMZfJHMOQcgfLMJK4nvJlPePhmuc05hzTkj1k9TTwck5pLcOzzC3JyDkjbTr5rBE32OI4BKyHHIVAqicRwHAQ2EX2kIhCSIRBMySI3MhELFZeFGMUxmDZn1hGKZ6V1N4ArOqGJHvomZLbti7YqB2Cemzw9Az7ZQvBT/XGDbUKTZX8Fv2O8NCTw6fYp/qJc/ozjXduvgvFWC1hiSSEMU8Yn4sFbI8MuTPYzGqQlMkyxOR7JcohkzjKnXusFELoMglcUdNwhxLo8SjwDwKFiMhaLpZ8EZMiU22QnjBsRzWg2h0psiidJa/wbYe3B4QqzBF4clR5OCwujHS5J9HDJ5y3imkOWRjyh5ISty4GJzlE868LBzDNlvBKubl2SjOhlwtcY3VQFG/MsdYNL4SEaYhj5SdFYujXCHg5ub+8YXkMD1L0ElyU5ISgm5ibnWSaMG/w+u8DIKU7M258xtZZcZI2x+Vy3w9sTxsFxqR2c+F6DigyIHAkZTXszIJS1ZGjeo6yIU1YThoxTzGuaJnCbl8g4oWK9cYEk4GbNV0EK8SmQK4gXjkPjoUnmj8wSY0PcxfRsEk17ImN5sfzIWF0coeSGyoqUZlcuxFl3GqdGJuMPEof8BWQ7JuxRHvnhkkeSYvokWVmGiUtjjlS6LsQ2QigXSdRb20EWRTtuNEN6EWBTYWw/mFFhFeWuQsiaEom4WoojMiQMJXFjsXJk0HU3YiTJE/wBYy3thCIM0SZD5h4KBUPHbyFbcaIRahZLETLCRE0g3DyC9B+m+5JC2ocJswRUs8HroZDxscckDbCZNw+ochZb1EffGSfmKmWOsLHNzOb1kYroQ8U7McjvVIyaIFmkZrukaXwI5cEnuCLcDWBd1ZtGeNFkL0EOZmbhv2EKQKyNSJEtcDndZEoz1JxawSEjUwQKCctcpEpUZEChjnhCQiFy4JQoInNy6dOJrkhTKKGZdC/arGhkMyl31EotYY7zkaCUPIlhMv5hlZLFyrWp7mZ0xmSG5CfNSh6GRkeHRks2zRCSkSOUeF8eAeNRfEsibluwvyQ0dRCG8ivQTP1mLRci5BrNI8uhDJZBSEhmlLaikSEguY3ejn0NRSkNtcZnsuRsM2MckeIDT6T60Kh+vzWsv943EKIHFd5IqhAm1wJpGb3MkeTJuRSlgkqI7jAIWmhnboUyQIJRPHsz/OEEJWPAEsnsRplo56PJExLWpWOsEU8tXW6ElkjJRX/6KHSmTbwkcWIlQsIsM+SYWDxcHCcUKaB/QRCxfixeD9tErkaxWiB+0ijJ21EGmg5C4ISdKFfT8NU30nvdFzo8Cjxi11hGHiC5Ki6KxI5jFF+hwG9CDOmFI4Y3oKiETkJLDOPfB+mECCA1d0K7w4FUWsXyvmHU+ySRpBJIhMguonBAlCQSbnILeOYhXNYOfBcI5RN/U58ByGfIZ7wONwxCnfrsOx3HYdhwM0TU7COzOrI7MW7GZEzHadx3mTcOSqZ3Hcdw+YYp5E95Pcdoh5gzKCcPM78cu4UHHcdx2HVmqO47juJbhu2YDyTnYVsyqV74fLEDhw2hYJbBwk7Roh1R1RO1E7EfiH1PofUzcDi+hOxE7UcInS0pQgbnHAOATsROxHEufU+p9R9DTQfQ+p9TIdrFkix9T6kg8kwNBWJ4nVHVCTTEEqtBi0H0J2oyrK4suh0R0R1Rn5NTqjqidqI1mZEOLk7USTZRMxITpE7ROyTtQ3tRwk7UTtRO1E6zSFksjoOqPoSzPmuEt+p2O7Ow7jJuLghuyO5AgQjRikjgsaEcJxnGcQn7DiONHEcSEbCIENiBCIWwi+ojCMPJIwuRPFKywgjAuTGBoSNrJis2VhA8HnYVwIwjHwMYIEl+SKHZ18Mx0EDBUaeqdmJM3sHrpl/VOul6uDRU2mVx8GsUP+B4FE7GLosWGv2TGF8RtUHHpcGJqXcIqQl52M7No4Mwzt6YULiE1nwIZI2yQ22w1ioWU1Rd2+a4L5U2liFR/UdGGIRI2RbFQ37kUJ1kLqQI8h0mkXUs2DaGKSnDx6GeXhOPrFAvCsqJyUnYZthYDXEKdRuk029kQNP2Zuwmw1JSuNaMjNA2ouZ6kalQ7M8alelKKoYLZfG6DjdDWA5FdIT8DX4EJyRCKAmxDup0dDNJzCUGEDumZf64K/rFvMU1Gen8/oSz0SCtshNCO9B/o0SW4IomhXUvXG4HMfgFvbQn+81DxYbKoNdkzDF0L7HK2aJdK8Dlb06H0spDG5rNrETVaV5E8lJHnyDSPYm3oTsOnaGRi2HzfCmwpBMiOa0md0sNSMgVvNsIvaGIyiakIqlYy1R7BUa+/m8YsUNJjBsUss6D5hCHNlkRDHpkQqSzEkkcI7jA2QAzDJrTMAWFDNaViIhizSLlZshGWDUDSZKXM6JnmwjW7YlLosMzitRHqFkM24cFxfN3FpQ3Yk4a4NJNWFOCA2SDQRJZMmotZsJVwnrsQZ5cRJmcCyFh1VmmXOlg0V2TgvWhh1z4HqXMLjtyXgJYCBNKdUOwu6S3SykFuI1jbw1l9EAWkVOnogkp2QzwvQpCWiGXMCwt0Mr32IBEKXQLIFGQJCdkJsMgWUQkrC9VPpEwRCEfWmcWICYOlLZRWoxo+3LldciaI20pGutoQ6q1o1icJuO8i8CYleCWySTwYq1Fgc03dfBkMly7tUWxy0kSLKjbglmccfMovFiovoO3z1wtYZoxBZc4VlKTEjHIJwJYEwwUgUwoyGBGwx5JqTa52JRiImohVjBim9BZJIYmfgsFhychooVhLtuxvisqEKchTtyHyQawhjV1yIhwKVCX3CY1ccNmhHyOvzg3NA9zP77jxcO9Ycw0wL1oSnVJXYiUEoSQkyieIjJpIaU5Uumz0+jA8GK7FBBKBRPoaNNOjw1T65CKdZFYgyTlUplm8xYUSQWWGbgpLeDmj2wvCCyVGVLsVF/f4gjaTFCxufdDZiyhqB83RZ+a+WcEHMQiSgbIs+AWEZGQE0ZYShpcICQhucg8m4QhmI4ByrDcYWzMoOBiA76GJwHKKEGaIZynMNKQo9TvO87hhMQlyZwM4mcDHyEaeTzZDcdxwM7iLMEdmQ2ZDkjyJmNeS4bixxM4GK5DsJdmQ2ZDZmfRjy3sJ7zmnNOXVTsV0oH6biyzgnaE9g4RO1FvonifQ+mElP0RuR9T6n1FriN6O+C+pmWRITsROxE7UbboTtRPEniN8DTRfEPofQW2XZ3RG9EbkJJLQkENEbRGwRuRmM0WqAuI6CNoWGbIjkI2CNgjehJ9zhEbBGwRuQkOYhcKlAj8IjaHsjOwyNrFtY5hUk+lzzknJIXzFj5roquQybUVcxOwaI2U9iPrg7Ca+lH9WHDKuxcguY7CG7IYUj48GM8hjK0wHHhnsCrBxI4RxjiLLOAhsQ2IWwiTZCSIRCIQigVFA4VyBoXJ9kYtCZ9zLCEZC4sECXjhBGHqpimfsomq0dU6+qV6aVSet8KYhKVHgDflReFRau8Jxvxpw8Khl3ahltFgqNQsbxZ810ydAxM8XyFhGTR6ScE3iUlYTZBYLUWnMkRk5cJE8LXQmyfJSD0nOn26pUMeJg0w3Y12wxSNXch6JQklTWLzFLkrDLT4UvSnT1TopdJ6qXZ0J0K/qlU/p0+h8KZaxZ4R4FF/CScNHdPkUv1weN3bBYWOm0d0PFLCxdi+VMuHgDQ4shjNg0qiIQhlFaTVC+E+xGj0mmD2TXTqPB8JmM6NIg2pCHmaE2bEmi1CwRePGxVtK2JSeeYalulT7eM1nmtBiKyEKMkcxImQshztQMehbi9u4eAKt2zEB/WLtjgZG5rCATNKR+Med2GncxJJJUevSr6WnonCcNPWKZJ6nT6HTY6FQr+qV6qfUp8pU+9Q6R4R4lF+n1KfNp/rhGOvui1lqi5U3vBYX9xfKsOz0JJrmRDNTAS82OMohpAmSIpeChOSnFxyQyJPAJksIFL8si5LJSKc3B0XDxKHaE7kTt0pftxSnkrBymGXMVJUV2iAWwVlxcNmd2Jvw1mh2lu48QiMZNo2JVkIY6nCUk4YQhWeWJRJYQl6DPQpV1BmnqnT18Q/KpdgVC8Sn06fMVLfvQx/NQ6R4Ba6ovfFPPoZPjSTKhsxYqQsJW42hWfZyHMcYZOEXz9rB55wgRpOyJQ1EKBODxCBEXRhYxyroZFg57vlhtgxZzR4R4uEkkoVCTRK3IbkNxpcOZHMjkRzoiXOYvIUnOOYhyMiOhtRyc5znMKfY5R7hznIJOToSDlFM++FyHIcol/JDAjyQ2ZacOx2Yae85BKTYc05+Pk6Bw4KdpO0s5aE7SdpOxE7EdViNyDMk8j6n0Eps84OyGtojY/CNn8EvNhoI3o7o7IQPZEb0RuWFrqufTA+p9DRPUNGjaWQmtB7EbX4RsEbGXBuKP8AkILSsmBTVuBBWBCu50itrk5YVpFmHSSDzxTVjchS7ZKaC3hLcc0kNcO47juzKuxJuyH/AGHdkN2QnGOAe0NWHAcZwohR6F8+r6DmOQ5iIrLsgRESGDPoJjk4zQLDwEj6iPcSeqh/p9zLuIhmyO7I8ndRYOM4zhGgceC4RxBEvsiEQ2IbENhEPIXIQIWxDYaWDCIEIaIfshEIhbELYgEEIhECu6p/oPleNBMduBnV/gllsjRSfgdL8bqM1QggJYMoeYgR6LFmi5NR57kSj16fOodJs97C0sHhHBr6GqGcyLMzKMIXRukJUHNQNBoKYVsX2SC1io+ip1dUOm/uL4Nhao1dfPZAlgcBw4UBErsghELbCMMsFhcLVK9aWzFjr4q/bT7FTay11RYWaGe18+TSFGKDPsJFYc7k0icNWuFxToa9SH21QlqJCMxlFKFOHqdL5Jew1izi2OXmHWFgfk6wE9TLaEJIPUp8qm/FnBofsw8yPbGwkbtBHG9C1JFtEEXNI2KcqHpMSLWJ43E1LdClcp1NsBXCR4zpV/VDptPdOqi1lqoXr+ewVlTcqXV7ha6wWLZ+qbhYp8ml+2lvNU3ui11Q6Yz36GetSr6WY7OOdSLWfoszCKhklmTpWEMayRJNiG+zI/COlZmJSlkPNpCFWMPcpi3AmBi+6MuBF8zLCAMQzuw9enyqb+2nMjlikyxvC0qQtaWPShWVIpOZ7D94Y3EqPbpV3VDsWKNIqFdQmYs/iWrU2u6XV754lNzqm+eJQzyaX4XT7FTe6LXVKxQyzsp9KlXdUotKU1YyhCXImXgQ6bBacwEOEI07MVwhISSsh2YHqwyNMH5FP9aVfQZ6lD+MFa+1E2lbCXNWqMhctKhUX9sE5+Bq/rCSRsh8iVuQ3IbkxZnMcxyHIIlnIc+EgitGcDOrHwY0tufntQqfM+O3i1RJc6xWFwsVDPMpZThKJQy/RDchuQ3ORDqWYyhZkNyG5yIRFx4czkOZHMjmRpS44RwjhHCF8pocA4BwThCm56YDmxe240If9GKiBNM+BFoqWRNa8K5GFmJxpgf92f7vANxZaHD/AE4v6cI4A8u1ieBISX1L+asdvwPa0R/0CNgQTg/hG1+H+awGSNeF4H4cH8HsfwQCNv8ACNv8I2fwa2/wgvmR/wDPB/5rAYt+E55zR8hOL8EW9OaLAJ95zTmkjEZiSXkBkBzmnMG0MyW85JySW4WbmzsO4jux5BbWFxHASkQFsHER2ERAgQhUIaEiD3C+erUSWsZJICJHMcI5DkIAlIcTF2OjJbiSxecInajNWEgFiS3vTMzMZO7O4jC52HecOHCWWuHxnGcAVTcIUCyOE4WEaUIPI4RxDhHCHpyXOFguEcItE4EcSOAaWxD6iCEQQf1pdvTp9Tp09U6aSvpenTdQMfyUMs+6Vqkmj+wmNFdimSyL6BbCdnm5FBPwDWLF2LaLlQ6tYLDX2L5rF2W4YPIcpOAnuT3HdnfAmXhcJxEBFAkoQsFgrsFjfFTf3pnJTb0U3Oix1RZQnhY+1PlUM8Kn+lOnqnR1S/FisNFJXUvQJouoGLl2Co9zospTwLmi5YtFdmuz0a6+x/LDRML+1L8DxkYrqLGW0XKhltGnsWCwsF83sq0UsvqSssU8LuEkkjZzQLF4JP4Z/BTcLFFrPCpvdqGN+1PhUz40zTNHVLspaKSupJ4qbqS3sFR7mLGw8Khbt1iFwXCeKRXG+aFc40NWYkWQhYXdxUPxfCLhaqLOEYMsou7CIwf8B8gVLspZ7sZwtLKJpzwVoKjV2Kj+lPpU3BWVFp4VDLnahnm0+B8RppaeqXTP60q6k3jodSudqc33dFhZJwaGeSRKPaxEc5ZPQTxUXGW0qMLF3T5NMqHVDY+YlbkDkExc3RzHKco0HYQ2Z1Y+I2LjkYvNrCwQnYZRZ+fyKnbi8Ge7GBItFb4haKwqPZTp+KNnFRaxwmi3sJW5KJW5DcupXOMcI4w9kXccU4pxB7MuJyHId34dn4T6fgsuVsPPDLkDzW0/zZ/mz/Rn+LMlx3P9Wf4M/wA2f7PAHG/TjD2RIFwWwOw7DuFr1oRsfhGx+Ef/ADIBZ8mJP+iGOC4dZi3f5jQzvWUXoBWX0DnjiOZJ8dBOiaZp2OSTDMMebTZwsStBBCbHciHiTeanZnZhu4zUk7DuzuOzw47sjuyI9aCziGCNkTmyMrjQgWOI4CGw0IRCIRYLkIIIoCLxY/ghUO2l2PdgsbRPIk5DmOUVJ4xHk7hrVmIywf4BOxCZrXOyI2MWcpwOSckluJlHc7ndnZgI/wDYISblig1/SG/6I/8AYR3ZuA1hfccRDYOJzuOjYJ3J1OIcQ4RwiARocI4RxHAQ/JCIx09U6cEY6PiGvqn06GXUi19qGNkYhawoCwfN0KWeg1j2fbF6COcTfhCo8rGfBL3J+W9B/WiJW0luCWsM/EWFbQ6NhaobKJ4IbP0WPnUg5jmOQhhWsie7EbhGyucjeLEUZV2KC5DEuAVSICSIWForIWLNXdOnqm7qpvFlF6pPn7U+QKjwVSr6Wn4tOXFOGnBPwHgKm4pJwZ5ilkMgtkE8G/I8Ms9lhdKO5J74NmFREjoWE0NCUs8iBBm53Ei9MJNBPzBsn3hxIQ6AlQuo+Swkk/oSSSWUngCwQ1m4sJ86T3kcahsQjKFLPcRRaK3xe37FoLFlj7p0dUTXSsVFwaeim72p8yn1qU89LT85js6pnOqXhqh0ky526UdL3sKsakYeEeHhArJs5n2JT2K2M4dxYLgg0fjJDVmsW1v6i17jsXlRcXrj5QuAhYIhIglj/wBhQKgRaqFgWF6ksiw1ARyLfxg3lpZq7ptFalsunT2Khlj7pXx0SxUeMePTc7VgsX/BUP8AgFaKTspRTeFT5lDLXQsHyGd0QSakE8L3R4mEqbHhOuWEmouSiVuccvIgmOQlFkeZBItiVuIvCnTzZyocUnmxybeqyC/Q4RwsA94VZi3ho3JsTkKZsGR2Z3E95dY2eKOSiEKO2HusHq4zN3MSj+BbpmgnCwsfdOkXxH2CxWD2Ur1pTOo1kLHwjwKGOp9iSUShpuNc6k7kciOEcMTfCyODhXDOKKXLKLmTOHc7Ow4hEH/xyJdpJrNe2OYc855yzXtjmHKOWc0/qB/g8TOERbK2CcInYJ2DNbykRfQjYI2hJpfqJayY5ZzjlnIOQcw5RzCeriyQmG+4zAcBOpkd3h8zOw7sFrzQvzu7nadmHwCfnDhFocJxnGLZOM4kWqTJsJBoQIRAgggj+ZkRizoY6R1GgVDeHlENzgHGHLM5sZjuJvWJMfvEOBF5lJG0RuRuYPNfDnusFyB6zHOOac05RIu/CQLvwDuOdnIzvO84jhOLCcdIQnDOE4RwjiRwEIghbEKiCK4/8c1lrMSK3wcH/hYEEkk5ocQIHIcpym7JTAhs8DhGycJOHyEwkFyENxCtoW2cItoW0QIEv+FZJJxSNEzscmEludyO5HCWycZwC2iGxDYhf8SyT/8Aphf8eL/hv//EACoQAQACAQIGAgIDAQEBAQAAAAEAESEQMSBBUWFxkaGxgfEw4fDRwUBQ/9oACAEBAAE/ENTf5xeqMrQYmQdKlas+5w7HhBZaBKmC9FPjdDQ2ohR5fdKlSpsn/j+okIQ4hTpRUSBEmB9SBWgaC5hB1PuT4PU1URZcWbjsg6Xop+TqsblAdTCM56fFzYiUwhCVvSfGNCXFXhYr8DRZcWXiPg9s3HdhLlxTH82gy5sjx55cuMWJkvvjLhNsz8f6hoMYPT+oarpJLlxix59BixoxPl0vMY8TMsOANqLqbvoT4XA8pghF5gx48ENtViwaOrPyEP5GY/lCoVsS3kzyztYoxF0tWkG2DOxnZRbkgbBWZ2k7OdnOxiqk2w6GL8kOlnaRQA2gRpsgvJDop2UebwRlm+dlHqTvEKtyCFeG0B1lOsHrKW5BbjMUec7ks6ynWB7pTrAQHWU6whOyIgJZLlXzoX4peuxn3+AsT4yLMNEjfn4rR0qVLPBgwRgcGNBU8RCBKny0x8DRl5nwoUNgJUqb0HF0I6bJv+XAx4kSVAiWQ5ZGLBiy7KOlxcR58+qabPLBhEmKbzRhBlL6Q6FhmGoE+LG0hoz7SBAlQi+GGhGLD2dTTd9f4d6LLlw2HslKj0iPNE7eENkZaN52sz2WFmf0C67sGkIWJsk3yb8GE6RBijklkdnTV7DLZTNl8kO/PJ7nOzD80aKcxHvzvRn39onh7JXrcJMt37TuwXSa2QAWw48hSlVL9zKP+8MOzbKvKjDXRlSycIGQpUbaAbokgwDNED1R5JlW49RhQKYwgPJZqSUi0CDRKtghgIDoo9H7iv7wZ3cp55RoMmoGaN5XP+UF/XP8iAQLAYABfVP1kOg+p5vUxq5VMwHdhJTvKJeUMa1RCWzlh0kfU80uKDEOgnYTtpaYR2aHWJ207kO2ZzGU6yvWUilbwLeUpKSkeMRkK5iWSzrEP5IJLIJEQJxly4s2eeEvRlXRsaVqfOfvRIT4TPj6VoWUxkQJiCwm1qk2eRDbStNnAasdjz+dKlaK19XqcZoow2jMi7JejiMkO1sHabYOLMHQlRGItjCo+cKDxN154Kmzxw1Z81M07YaXNkV8BbJc8pB1Y4764Rn7oPAkhDDgWb9oa7dCau0fpIaBEixd0xAiSoEdTGlErTwgJRK9CdohQIMG07BHpIdNCNRH4m0/TTs4dFFKcktg5J2sOnlXLKriPibk5QTtzze4Yxe3WLund9p+0lH/AGiQ3QrkeGfuZTSCwlhDMs/aQkBSQ54reRlnRUOqh1cSN0cs5mnYA5Y3lOZDp52s7OVXZBCgq2eUHhL6SKmQhAAJoaGKycswqBCwh1E7iXbqLG20AC7OrQehrAtKRhh0WCddEEryESbzuQeOziWvZZ2kOknYR68aki8yHUl3OIit+v3Q4L/gde3IWEZG+kqmXfkx4iUXNzOuF0Wb3iOi5f7Ytn2eFleOHB8xPj9Rm1nz/AMReuCDCO0y6l9R0pkNL02/GLBCXLnwWK+CbZ9jSiF4tkVeM1Xo4BL4HSJDT8RkIajLyQ2I6EVeRPjoaVPgs+NrUx8TBXi1Z8BneLRemyMQbaGmRGbOrLlRIJn5mFS4RmR5tGLFlrXIYaJFdu7g2zJTpKlSp6KU+DTnKhfjYFGASpRCNkrROwaWDaAjUHQTto9DHokKNGRg3JDRJ6MGKsAQ7080D6xq3YaXlD+C9Ki1HRXTe6g8gTbF9lLJTLUa9aUNveoBQpv5otp6PStbiG8B1Z8lPjdKlaTvSnQYnS6ibIbvfE4N1JDVU+E2Ggy4vaitIuXLixAXazTdpeJl4ENRixQHOrFXdhjDWxDWxdE+4bEuXmE+cnw0K0Z89PhI6LFfjZj4mlxnu0NDoZcYTej9cNGOlxZ2vLF0GLFoiRIz7XW4sePlLgwZ8Rmy7SpWjrxs+Cabpsnw5sw0uZUhsa3EHDhadmGrM9NeiymaQ4DU1qOjHZhHdiDQeylDBmSJlw5IncIxG49MllCqDETbeL6Vesr1ljGeuUgHnKSyOIt+ASyWQqgV9JWRdAqM/C0ElkUgB6wuMUIIsdAGDoS405J9xWGGuZ9VF69SHE5DrgxJWnxMqBKlEFv3SoDAiT4aOlZiT4XQ1+QT4WjiET+KL0oaJPkYPQ4MG7M+Boxnz0v+HE0J8Z0ohGfCZlFUNHQzDUNDbecGLFjtMx5YOgS1OkNBi9TKHjl8EfFOBIhcfEWroeTgWO/MhtwDJF1LQzGfMNFYoqbswUfb+N0WATl/JOynYztYYai0JzYtynmim1tEihgKrVomTYiGBXaBWRdUUlmUiFm2gKPyyMakQfjHPeFeRCjdLK03KW+ArRbjyXGbFmEDMFQwDMCk6aHQ+p1xGqpdOZmwIisI8typumGKjAhdYl0cA6rGLGSumgdyAkN6qhqoIV0AcwxKJwGSsaXPOXdKOXGsy7MCdyQ0hGmF9krgSz+ihh/5Sy8wMq3U7T6nlnfYxjNWnd0hFZtIYZwgFWIdPOxhVslJHkgBhtDoJ2k7WIrTabFbE6FDoo9SMy8pgbyJWWSyAeZEfiSzrLI1AfnT4KYmNF6WUfDwfCnxXAi0WKDLlxQEhFhMF4j0DRYZXQrRH5U+M1Zh458Y0EIbZ3IaEGuydkMhKiRhxeYEDRm9OkMqBHZm88YRgT5iGvCfwGqaO02XCsTN+Xg2Tcb5uEObAvRIeapU79mEJi8K/DKrxoMGICqAQF5jqwwUfVNE0TEYLJkEmwrJCZKsvQ+YpyzaxVhU5g5sKvKREAcqZbsg8vdPWVo3SgAAoDGhoc48aEqOvAz4kJUqJALEJRKIkJ+JqolIPelE7EOkR6ZDwG8q7iPQ+o/10/TS2gyCK7mPQztpVAmhzIUbYwkHaiEGxEjmNB5ZTs+0oO7tFvbdR/vJ+7hWNKcqE4rGlkUKobnbMxVGCd5O60hbeRga3toW2etFxZ2hRManaTt/U7GNuG0YAS52Uz6VPMYspFrCZj1Q7SZt1tMIrBMX0kHpIqMhUpxIc8zt5j2SlPLAItiEZ1UevikWDAAqd9Mm6D65j6d4gAqebQK9GE0A7wXJh0NB3YtDlcEN52c7OYNkqTTJOzgXJDoPcXNyb73cOsSnWA6ymD46EP4l0y8Ol67Z9jwO03+ETBhahFi4SdGIxYljCUH/ACmP/Bz1KwN4iRGg2MDcwdxdZg8vBsjBmAu+oLEAcSz7nPxFS2BbFC10DLxrvUhTh1DY2GpjKbyt2B0UCur3neCDFFM567noT4ENci7TZQ12aQaM2R+pCGjH52gwi8AujrxYbR1+8mwjDT4k+CQ1+BPhoGvykPpOB0ndD6UqVpi3afDNElTDzJ8BK0qGvEw6SoktTBWiSpuTI9pUqVN7xB65Wvy0+O0DTFICniVEQBNo7IMEAZ2IdCEfig1AdIvyTsptHFodNOwj0k7MGKmCdpKuUu5RE2YVfqI933Hqe0CgTbWfGP4DgdN+xDwb0yD1WVqx5nTgM9RgHtAb95gucOk0YLmQkfb33MnjCcom82R4PmjdZsjsr1Q0uLE/z1iUKbj2zKJuEG0ZauqrfO60ueyMLjpQMsplzlFWsO7HeZ/1IapekxUV8/AgYMVeOfGIOhN2O/MxarwEsZ8ZB1Z8Fhqxa29H6sIkqtHX5kNjViqfwoOvwYfSQ1+UnxyBr8pD6WtaV8FA1+eh9DWp85BXiStEmKgrw8Dy8T4srXDxM+HDQJ89PjuBR2EqVKm3xwNGBN3j1VKgiKjqPTKiStDJvVQNXXmPubSHEcLHaAycSjlnZyzknZTcvJlQqXKSyIiIzflSWa5eBL4EElJGPAS3Qy6bGMew+EoVLw+FRIqG5shCtRm5VFytBdNoKXzAvuAIwXSHIy5l8znKgR0vSH6UNTajHyMNdvDbPjtDWz2lwLMeH2/D4X1obNK0xn8Yhr8aGvAcD9ifDIaqvMnw3Dh9Lg+YnxGrPl4D8bWp8tPjaLp8ZnwpcIx14mCQ0CfIT4jVn0/ubWiaZnjhwoQ1S01VK1DGG1BXmYakQdZbDV/i2SxjaFXbpOy+55ZV5xIVgEbSYSQ5I3aM6CnSUOqmOW58qPI0ft9MeCneYA1WI9SAY3XaMDYSswb78xeSFOljzzHYQwPWndnO0nXMU1E2gtrabuYJuiFgsLMwAytGEkc5EdjLJc7tE5r0w/QhEKvojCL3YK18MSl+vlD/AMJSFc5Kv+EK9vSW9fUtN2EjkiFebh1WCRh2S1DgG53oRdrHoYhzYYdBO0nbw5I9zffJCvZO4TuEr1hKL5krMyvWU6ynWMiT4SCSkIZNH4iXL05aK/hIMNK/hnwjTGiDzI78KDLNPnp8RwfITLwJWjB7E+O1Z89MvC0NPlpjBcNPmJ8JwC35JgapPqw24PmP1BoRnJ44HXqlTEgoGhptPZD+F1uLEz7RwMeU+LDgP0amm/x6DqPYmXi6VptmztZrUGIM3ZAIaVNj1WUSpWjAf4zKJRKJSH1wCk5JUAlIUVr2D5gBK6JR0iKgjB0nYnaIjoTYfJLuU7Kdh6nZeoQFMkL7idnDp49LMUEK4Tp1t5r2gTfkkaGH3H96Uc4OrGVF3CYeYs5es6h5sMJVFz6WiRbjaVNFid9Dq4BOTYQoCO19Tt/U7aWlNVmY0KqVyeRBiIvYMyrIwc5VorkYpQw2Cs1ACJgj0x46Tc63QCnCoPRHhF84j5WqUUjadWR0ceii7qlMRYJWi6MkaSeRhBMa1+FhJUlQ4pMQ553ujOZYySkW5eWcjKrxMCwWHcnaZRyYdJhoLwzmp3J3oqbze3jVF28aNsu67x2k7adpLLJNxQ60p1lJR/LhD+E12QZexw70+LCLptn0eBjxdQcOfkQevqwYgr8vA7TZdrCXB0VDoHXb0jUe9N52Q0JslrX/AKeB20s1eFmXezA4FXi6mmzw6MWEe3s1mm/5IMGpFXjmx4ODHwz4UIafIT4RGOqZhKlQIfYmfjSoGlPzJT8CVpUHuT4SVKiSp5kF+JAlSph5k+I4PnoPUSpUohHlPuASpUpAX4NFOkTAvKFtddA6BHpk7JM8rFJ207adlGnbNsmFBtUREhFieSdyA9mN4rahD+BhqsTPTTW958Jrc2RX+PS5cWZ+Nwr3NOWXFm2KztLS4MWI/wAYlw0Wbvu+oPBtf4zwLPlIvXgy5ccYYyGXBjtHKaEYsPBYS7swZeuXhcP04aVobB2TZDRZvTYcHxpmOBeqfCNL0PqnwI6mT4RwfKT4zgx8mfEcC9yGvE1Z8vPhOGyrwJevyE+AcFcnaGxwfF6VK0+1wO0XpahFDfkyowIvQz4nBte7/MeIXlk7krKS4V0Z+NBl6LE+I4GZ+DwqvOite3hm1br+jR0YsXZAlQ0Ps/UNWfQga1D5MXqK3/xUJWm2D/LrAlSo7aaS9Fm/7TgZ8Bhw4akXwcDNjwhpcuO15JsOBz2NF0+NNpLly5f8E+JwOYo4PmJj4Tg+ajrwpejFXlz4bVi9yK/G4Pkp8NqT5yL0uDI/H3/EL47pejPimjFNkPy8C9M+DDXL8ug/hddrASwt5yv98YQ+uItxbhbToTyUdQQEbiyg3zEthIKkCkXzkcsp0pk6ujEDNUCLtE7ud9O+nVib1ZUr59K/RxQ2oQycCBbyIKxByUYBUlndRLkwX+kei+oLFr/9J22dZmWdyBQ88RzkJpHWnelPeJRedjko3WDBh0ixB1vDhCDs4dBMEWm8SdBOwnZRfmS9Xtc7aHVnencm1Md6d4lYjrA/CgGIlIg5wSFSXLlwD8j7iKgmixyeCXopH6pseNLlkQ3dOFfCmQdB0+UnwDgZ/u2j9RLly5v++fGaXGYedB60NXXlxek4H7kx8RLl6AM9D7myGoHsQOjp8xDVnxjSpU2TZwY14JRkH8MK4jR4YG110qo+ixuSKhtKNewERs3o6fjOCpWGhpS4ESJibsnahPxpUqUErKH543UWENnIykBGAaaJREgPysolHSU6RMJfk+52idknZJ2Jlw2jFQyYdBDo/U7GVNkpiG6Hw2HogV5XTxO0jtBNsEdrDoZ2Mr2EUNR2OkJK+U7+DEbbUqp5Jd1geywyQrzdOASpETc7ZnyorlEEFjfLFmkjQJSd7MGJPXy4cIkKio6EGl1teGLlFQnazs4BQwMT7SiyRL4gFd7QOdIQtVUJGY8IHoi+cgE0qoqRcHZgsgbvDDMoFQnyhe4nYRsUKphKg4n76dt7nawjAFWw9A2n+boerBjhhhuwjP3c7uBbWxiNcKlQAbTvodRHljZBHsnezuodVGtmTnKBkwXPSwejL2Li20Qh2YNPF5IEh3YnO5O/DFXpqkLyxUwkOdZsOhnZTtIylHECFzuzvSjCeoGgaGqcBq6GV/L0YG9Cq7kqvVg2O7EoRi0WiZ6JZsxkimVU0mixEUrh1BObes6PcFEIsOh9wUrirHSQN6bl1BbMMt3jpdO8HoyVinsMMFxyMr/PTL8Wu8Ksw+5TCGixe/8AWi1L8ypDBp1t5gnc+4QEFlKZXAyo6pSkKBFlpCzBB20xQLYOyO135EVjwFhtFuXshghTrFxAJLKw8JENGeOoTdCh4YsACRg7ogIEd3Dv8ejBmgRl7qm4ACGlxgreZCQbiRTggyBJcqFkOHKEuJZcZJFzCviFb6gCluK3JsKxzdjnylh7TYQ4HtItS9oSESFVlR4p7otlwKiwROiivxGmNHXnx+lwfOQ+jWpQ8ELD1nMCYiEr+CbEomNMvHK0gEqIg+GFRDQq9WXA/MldIHkTOGuqMsK87adrDpPUr4EuWsWzokemnYRSIQLIdCeX3PJEV+qH8u/4nMc3GFDYNFDvGx4QmDABiOlM1sWIyskCAlxtps0VL4LqAJ2YaJyzx0R6g2a8pBYaQE5wkPenkRjF8ZKFAc4YoOnLByIYWx9UsUWrV1iX9VGw60e53EBhLjH7/wBQjpO0YVMMxYwm0Z+Y+5sgraInR1MAAEtL4j8rIx+URpNvbBCUXRBYu48Ql7mamFLmSwzOq7mNxbp0ZT4MGoVRly6rxAxnWV2YjRO7BE+bqCy8hlFRtcNGM3+PR04UpcrmMHSARM6ltCClhTLu5WXWAuxKRkBKIRvxHZgesdEHcyxirlGPlglDvAEGLgwup9xJUsQCNGxE9wCFU3TT7HjgxbtNhKJSXK9oFkBhlUsyDYE3QSY5cGW9peZgUJUi26qLMrGelRtLuCM5y5eEfUgKoI4rNmby8brErdTBQbqBZbl2iWhfZipM7AJUWjBKSQDdYt4gKdIo8jM81YAkKOllLX0XRG1D1IhuufF0h0uPPh07kjKqSzinBKsXWOzh5mhlqeaLcSu1lhODbE4xbLNxHxFdc3CZGbh0hsS0gQWar2DKwbQVUTvFAtZTD9NwhDgrgZv+Jg/KXqzAeENypiZQpzgI55CU1nSolHURmSL21RneFmHmyrRhXKy3ZllZ0yrAd0JYlaTkyFymZRHgC7oRgnnX9oKBwfMfToSxILEh5QqxW4rT1IJU3EDo6HtlhBkNy2AFRQWwb0euKIIq3xK0IODbVVFBOTfJREbyPA8SXN2Z38JyPXEAhsEqJLgP4CHAc+LQ2yLdymagABufuFhyJQxjkbcoUNhDpCFDL16M2RHnA2hjHUhkGi4Y923nyD7gEuIBQQjSaB2irwTY8cAoXLoja3ZZL10wiBgnUQhBAIxYNzCE8oZHJhNss/jbRhPkZb8SdF8FBoN4NUxGBOkzlOUhyIQ32vGmag2hwRnixKijaDzdLUNr8J2yI5N3cEAqpWJ9f713GulBim7pKx2nKAQICNuiwJuVLI9IftmPF04HiKAAthAsBrdZfAt7sWYn4o1FKggNA1DlZljpt0SxsEDoVDT3BM3+crYJZ4ZhsaFcNa1PjQxYZY8hx5AgHLABlIKFd5sIo5DEHBTS0G5bPNVlE9zLt5KG6V0irRVuT/MlP6ZX+uCPeUYS8CZKp9Tsx2GKLzEDObfEoncnel5vBPxfMEIKJOk0FxErdAd4ehlxsio15jckUjCUbn3Ozguxi8bdCEswdBO0naSjvLDQl2kOmncIs3IECqrXqd6PWne0gouQynWViYXtgICZTwyhOMslJcfsUGY0MSv4MoTMA2ly4v8ATrKVEIS5mvJ9wg6Yht+H3FjQbjpveSbEuXLn1/uUOcsqGq9M2JcxLh9MDMA7aVAqU8zhoeyEuUTIYqeIiFDRBESEMdJsladiIT0mwlSjT5h9zZoscs2eHS9fhul6vlkNc4BgY7SFromYYAm0RtGVAI+oXzh09JsBT6iTq6d70eG9blxU2U/I8DHXcJCVElQ4hx5dKlRErtc2VKlSp7hD/AlOk7RHoEpbTETmJ2J20OinaTkzn+YNyJ+mnZ+p20GdM1jzjKrRgTaPiUawR6ayQUMZZyztYBtGwuUZbySzQCCitPuWkcxoO49x7vuIFFy+NgVPL7gPNn+jKIIDPPO4wkUlSR0WmyXea0TA3cw6yPWzu9OqqtkDJ/0Ic8w6aU6KUjN2elJ8s56bykYQiYN4DnYryG5O6SuyX2wemGsgMkwFVF/sS4OyRJ2Ysgkjsvc7X3Dp/cYBBqFrL1AGzR2bD3MroQEMJ2MIznRWdqcAH+69waoFTwxO50w6uJtYUzeHO60S7coB32lcuppDqCWQuCyhYgKVoIvMyTAJVl/gTssBxHZKNz0nnh3PU7j6iqF7On353Ypzh2dN20E5IgiobJS2x6CPTe5uIdogZI8xh1JWDbdhB9whRtDjWOrp+3ArjPgOBm2ZeZwMz7a6Dr81PjtWbYyhyRpeiwf8d9b0X+XTV3wZQlSOwhr8JiuYhps0ES5ei4+h+ocCy/zfQhFnw2HA6iIaM3+LW9Pg+Bmz4Q4Cb+iBwUPw+4bRYun1PuG3BePc++EgtaMfc5GpFS902oSpUr+VD6pUCVDY9Y+JrUqeGDBwYJ0qBg1qEt5PuG0CUSjpAudJRKxMA7w6XbTskenAityTs4dLCjQhxRO1j08engSAbkUBo3QQgLNaCHG8HwZ8bgZsu2DosuPDLJQ6XosWgdfmI/T0HW3N1y9L02MXweVE+HQ1dSwDxwfDdIHXbN111riyv+zaDpeqmgxYsHZhqscalwjHXhw4NvjjqxUfCHBtf4zDStP8HeGjpme17YPBy+v28LIer9ocFcs2tLlxUnabXjW58pNjxo6L0RYaVGOvx/c2cG3/AIzDaGr9OG0NRINHT6+tTeg0KiTYOyDGhEl7NIw/j+PMPFL4Kh663TbLPUJGYjtwkr7o7XqXg2x2HSnA7RWfP74QKdDw5+CbTgXqZ8TDXbHfAmyWB0P1wvSWy5cb8yDL0WKU0HT4Lhfwy5euE4/h08JG3ALL/V8Ixf6uG3Aqf+MxY4KGe33Fg0uXHXiiwS9VUTwcCswUHB88+5sOC9K/0zZwL/LpBxxMNKnyjQ0zXiK/DpcZj+CbCGpu8YSv4XVeuVV4VjTnooc35zrUiuhVIU5UQ0KA39MKgXRKypakp39ES3PSP6E65mRWhBVuxCeznYwCboEl2MH5J2MGkjklrO6zsI9PP30WNvuJyAUQ3/mh/fQbYv5ndJbU7BZ207SFeyWcyA0PKKzmxO9O4aQbnJhA3B1pTrKdYFTdd4VlIwioFfZBJiIlI80Uly5cD3S4MuXBJEQYMuMFdul6O28ogX44PAwkG2ly5mHbBs4MRI2l6LBf+LMGXq0qgbGtzI+ofMHgyD/Fw2OD6X3DBCXLiIOk2HB8UiwcDpfH3NhE1df58w4Mozg+I8OP4uDeh12HHihtwbuTQ/hvXD1pWjpX2SiVKIH4IJ+YfmEHHNlUyTsEemR6ZGr7MKdidU+p0hOoJiI2mQjZGor71l3LOxnQ4tcMYS7NYpbL0sr2rKNAoG6s2wEGXGZB2rDYEwBuCX8mYNn3AeT7jkrFroO0NEy6K1KkEO6d2Oi+0BITM7TcgEKf/eZr+eU5e2YYGssZak1sWLRyS6oFUVzuU7nTA+aYN8e5a47mPV6HGlC2AJgUI8qkNf8Ad/PWEZ0s7SdvHoCCrBjyhA54dwkFY8tSuhOxJXXB1wztsAhVTwJcA9KWFjnDEoJfTnYTsPcpQBLDgTtoRs7QaYwIn/Fn+jCj/uEbVrAg/wDUYDqvceqgbTm9MBP+4ddO8mPdAJjYgQGWpQQLbRtKZbh1umD8iOAWa+4GDrapIJrErBtoV4CZLzgMygkrLdKn9U2YwP0p2PSIcvSCcvSWKDi0BX/hP9ieX1PJDA5DAOvqHVnendl8dBzaw6KLjTDxjs52s7f3GlHknRp2PuHTTukQqdMP470VJMR7OBYvk1WM70ijpJc/8XFjxJbh+agi35Uvg+LPiJWtuh867Jv8rqwRID3KshSvI6wCBokTb0EMhe8gahB0DKAr8xWrBXymrHnPhQ0Jtl04lHD78iPyWJJiKw6JwO03oaBg3rd20qqCX3SX6HmNEVAXlcDSnWDwCCpx1IMUB8yVYUE1C2iL5urfS4UFLx0qGzwyv8jol3tmdoqRfQiokOzNnjhHVV4c2cKjWoYFaVKnyQCVoEXvIIGo/wB/PQYRILJ1+twVEHk+0OD5R9ypWlQF/P2lFQAjTEBtbwAqY6QCUQRAJRGoBCfhYCdglI9CbB6RbknbTtvUDsSjsTsJ287eBUGyYdkOinbSrYQDOiH8d6b/AJi9RpcuMpV2dLishcUXJVq0DKV9/tE0CHEct1pmdOzK5cuXKvFPiIzubCXFiY95Q0G+AYOaipxcnTqzDQARCXL0O1yGJvJtRlPiqXrusOhZwnMNGb/ifFhrsdKEMiPs9yNIWC0N1PnwcDzJ2qVHmpSReU3iokJU7hkETan0RyM8oMFDsSyQAXoZQfS+1y71DQmA2xRHaO3wbg9OZi05jNrbpUJkKEHqHQM33ZZ5vUUhzWy9dqDF8MNWbeEFXj8Ow9sJUrQejw7vDBhoaCOA2f8Am4akYU6n7dDV5f4zBjrkT/Vw2l1rePHDUYvyaB0EWPtA6XLh1eIOlxYmJLlZcvXgg4g6nxYfxXB0eHmPDxwO0W9eqWrc4JUPKbl8/MXStGsDJkgNooC6LCE+JPjI9jEpaaJYQRLJc5bPShC0FCGLnYqAAMEQkUyEeRmGhMj0Im16Ui6EWki3ySM+ZN8zwH1TP833C9bVo5QgE79RtmfZYCOjpiY2SE0QW0TWSNaNMxT88I9hL7JMyn3rTKUFnvDooFE5TlbdKnq7NyEoKg71ptIKAj+KUNDW02jbiSK5yiQ8EHHBieCHALBI1Y8+PQjp8Jw5k8N4OohrceO/WNF/h5w4P9Hrq6YB/wBXockMmixIGomXn/WhHR8KKl4heg0y6bvibcdolaO/hg2S6YOh8SEeK+AZczJ3igV7QSR/QTsekTc4bhoRO6+oX1NEMb2kYyBSVOaAnbTspf8A9IqAiEZTtpWW6zqQousH2EHF0m/S6QHakD1iM5WXYg1Nx72ldBERHfKoHVm4pU7OxBl6LEEx9VwABgMGtIjG5pU6Oc/qWTEsiLZgez7gJSWQqgfnyyEXFMekwJLmJZULnBLmNPgMxCtFj/LoNCPS3rv8cHSmgv8AFwqvI6XLlzfWQ8At8EOAaZ1+Y+uEf78iLWpuPUcO0kTg/wAfrw7RIiXDTM1zAJ8/9cFQW3TQNGWPrFaKwUoMdKuViCvxwYIwGnw2h/EMuYvsgKJR0iJ2oyFEe0Ttp2cehiwbHSXusu3M7SWOREDBmIphMMUbQ0LID/2M2yo89CDYuRFuT7ltqwwXCWTKHkTqYUW+Sdz2in/Sfv48UHVhnEFXCurAAGB1n7mWP/rOh7YeVMZWqkht+efuZkrgi8FctvNmOAKI7MAJ2QI8olEg6iPJc7+DycEI8KdNQkNOHVaiZJ7GdvMWRKLm5pm2+odBAtxGjbMq5ZqdM6N3IrmSJJYeQNEOYwI6TabfEcMJL6SX0kHoJYkGyX2TskeinZR7Iijl0vaztJdqFWJ2c7P3CIgeZTGYijCA0uU3pyQ/bnfw6yWc8ZCoN0s553k7+IdRSo64h1kr5oPuGgNUeH9Q0KzQOYrmWPXT9PoVv6YrV4L6lfPgnLn+JLSVLF0fUEbw3VH/AFJ/sQchtgc1K/0wH9Ur/XLGfAZif+E/ST9LO36TkrhlRkZ555Ydz1BXBSm8Q6bKeb6nffUetL27YlW+ra8qQos7WdrO3jTK8zoE7f3O2mHcgLj0/geAYsVp7YbEuXLi4jt9uGvXFEOoxNz5fcqlF9iAQoNcfBPjNASqn4QKKiTq9cvRIVorYnBAGVZjhCoVaXxH0Jgd0DeGmEBPhoQ1B8+jK0HjzQ1Z9KGrNrzgasXB54Eg0AaJMZCVq8yOCt+OErRjrunSomnwECBrSM0rStbzX6lSommf+3EqBGMB+ZSpWv8Av6EEQlJiLF1gSkAmIC/FKJUx0lEEQaYlEw7shiASkZEH3YCUlJSE/EwEp0naJ2oSmopyJ2U7UpbEeWiL8kq5Z2sG4G8Ogi/LOyjXthou0P47ixYb5YMGXLixp46DBjrzJ8RB0uKHPqvR0vSPhEuXoosjgrrA6Osr1XrnwUNdsS2Gc37hHgGS9HaP16A0Zs+cHVi/Noa/IcOzk0dPi+Hf4YcGepdFXCcvDg8Hyn1qx4u2XC+V9dSy46HqfTDW4675g8C9OHCxL1PtfUIS4so+BhwH49SPDpDXd4uA6U4yMNLlxQjpcuLiK/FhL03nwI/T+oajVGjNvFY4NkTqDGKaAS9PguH5qfDQ13orXz9y5em2NvywdVH6yENSIwZcWfAYMHXJOnAuOoTW9FuENN/DsIRxwNluDpc/JSbcHyn1GMYzYVoGjM+3wNx+mb1uZdhfiDL1yiNWHB3vogy5cGP86+ocG18wg6Mc2gZejHpXptiMXBky2HB8whrfFely5U/SG8s7edrP3Ea9kuSMidt7hI7pKdYScpg7AgZ1GVecCoFy/wDWV6ykpKRQRieRAyyXEVFkL0NLNEEsUvZ/cuDLJcsH+71Y0Z+VGfjaXMaSoV6yzV4mP54Ms0ck23ZCWS4spR3wZejpR1Y4r1YzhjqG+DfE0YwTnA4zS5ctCoOvzn1q8JGMOTpJ4K196EvWj1Cxw5D5/EOD/I6aGhPlLNmtzNulw1WX8YMGXFnzeDazAENGbvPgMt/GhBiyiO0Okj0crNGZl0yv1cafIEcJg6j2x6bA1C+4Jb2TI12ILb2y8/8AafuokKllguYMvJpuuK/9YKFj/pGzN5j1ILcuB7S6kFyDt0pkeRLuJ387iFIWuxi/PHkv1Dq4WXdjtwQOUp/mQA/4h0HqGWwrJUwGlBF9qfiHSQ6f1OSIooKbwkOmnWHqdKXNyO0zk1Kgw5YOQWhcyYl3YqHUqJKBpghyrC9YvmITIq81OyB6IGu0dhA1QEZZ2CdlDoJ20KxbQdEnYwfcR6CK7FgZh2Q6H3O1hzTELebE7DQ9jOwiVuRadpouxn+rGluIB5dVidpe4tUoQdTO6nfxT4otQXdRPnilq3cHNTASDTuXFF30zJuneaIqSvO6QhzR6+HUaIvZ2IrTMciIxFLfCxKpXqHZK3VGtGLg5f4ELf8ACX/qipti4Jv6Jix65Wr+CU6vUzg3fMqb+iUcn1PL6nmgYrlejPN6lvX1KpDMzVTHz9SjdYd6PVgvPDqw62iSbw8EXby3YxlDzgHJO3nazosNcHA8NaGhguowYsAHJFGU2RTgUp+IDLly4/XF6iDL0YBY5Yat1YoEA7MdHseNamyKzwIOhGKOqb6dB0Y5CGrl8Y1I8Q0XdhqqboQ9qGZBpWh30gaVDXomzpUHJfzB6cIVokeLswIQjHj6v8UM/PCC0qbGEOQbgik39iBYyp5ohMQIXFurBsMb3chAmzFDdlNKeZ1DR4O79aACKG/61KAoIg+X9ytUm6/3eASoho1Qm51UiAF5LFvglXGmX+XGEZNwGogwSViDwVocFypSITbdRlSjRSU7hMpC7lEomwlEQuIlyybBtY8MxWgYuTei4dAnYiIX5YB0JSU6QA2hptOwTtEr0hMEK9k7SPQ+o0bIS6df8g6F+IZcuMG4hUipRFskFTIsuXLjiG9T4KDLgxW83KV5o0QxSWCMVU1feF8pyEOBMgjLeD3sAUE3SMjRGk3HRMFOYHHl1tirLUO5+ZcGcq5gFAWstQOZKMPSHfklTFtpcykOSUABhmHYj4aXq8M+ewhK8GonKUwSlMUaFc2nOWWiKRhbHUtmKasR9tEqZ2RQNr3jLoMRdSuecoAttxqbCybUDVhEMKNwKIaLqVgOcuF01hm97WY2lozOWKgg9SXFjHci9Fi6EtC0s4GDErSoUNnQ04Ifzo3Poql/GKm6EdKYyWMM8EFLkrIADYIVZsykSHYW1hmY+TCBA17cLKGPibe7ImRtvDUtzKo0oGdvS6LoUKgLWDgVfmO4VwFIdRIGx3gypvLWsco7lBazIeNbFQW7DqsIBuRGqJVCuPd68YRGkrey1USm7DcTyZbjvobQIsUOubovRZfURLc4KGPYGUIEJ71VAhQjskQMdl9xHwrnkhtoMX3pcYTGCv3wmMtmWNwrw6mPMiLUrxPQXBKj1GYk6uhfNTP2FQKjJWAjphYZnyIaMZ8jgfxjLnsEuDL8JUtMxSF0pdsvi30uDHvMseIly5cWU3tGBBYvZdS4G6I5AWGRAWMFh1gEVdkxJU3Y7cyr3LY+qUGLxecx2cKv8j+9a1gFcrg1kxKVs56KIMJU/cUGn/U5WFB6uUFyT56P0tbixLh5gzH2kOvhkYC0rN91hhTe1R+wj7YiaU3B/gg9AD7jAWldxADcpisOkqwakY+EktwqwdlBDcsRcMXk6EHTc93SvKJygG0DlKtDpKnmupWUdgAI6k0hBGneGtZUFHvGk3ByjlHaU1atCQMEWzwaCxImMdJncO+BFYLVRklyIQX5jCGlz4ktMtgIzzbnlBNEXqhhH6vuKO0MTqIDXWoAWQcVFAqBVQ1+FFSmRt61BYst0OeUy9VmFsbGL+Mx7hC6yKB+WMCjAIHeKxsixsfioyqJU6OEWEMrWt0i/IYbMw07IzTNa2Jcoje6VAkApQuib+ovzdGhoW/P+4sIonNUOqw+WEx5YpKWgwyxLR3iXmqX5rRjz5YRBdwA/MC0M0OWLTOTCGi7TJebrUKV+iGzQRe9hL0WLC6ph/GQsEc8mA6w0qQgSJfIy8IRcIyAdEeDtLIMuLiBRFyx0okWAxFNNmAmIMgm9LTPmeBilfO33pcqnP1MMCSicuCYLOtkCwAAGIa3JrtxVy58nP8AW6S9dybTuwgIxveb5uWypESECMUhWlwarygRZF0iucrW3rOpLsl22dIFKBq5Xswdbi9nFDdt1XGEjoKGA4jousEGXLhDu8BBQx63LpcuXKu8jQZelLINWorw/wCoGNGzMRj0bEBpa1zVjPu0BdplN4LjHOUWdYD7Yt7rGYLpXKOHS4TDQFXsSr//ANrS8yop9FEeuI2XZCyFl5gBtHyAreRhcAIudy6XFZAmTOg+4TPSHqloXWAlv99M8x0wK0dp9iEXhY7kaMRjkKAnwtMpbn50F/lhqMMNHywh/GLK1gEVGNNy2B0iU8qIQjmnc+odTCv/ANEP05uFqSBEdr6hJ2nqdy/E2/sq2WcH1H+in6qE9qHHaAI0opJkFiV2Zlc8p41d0xzKzEIvLn5HQ8f9imAcEznUYnX9MTqOhHmm7YIBapStFJYTjcTi1W7eXyEVNNFxGqUWdxGaLvIxc5C8hHlIcyYsUugYRGV+4nbxVtbkq5Y/3kxYPudJJheU7SdhO107abNf75OdDXNDidQzs4xvTyy0FOIlyQt2ai3/AAYx4gjJyGwKN2R6Gdl7hztGbzBdTHsnUPuV8vvTOG5KErqoxbodXDqYle+idwx62PURqkI3fTEY+89zvvc7+Wgzosnee49V7jA72YCa4d6R3IQop1SLcVlXqw6yM6g1kHqPVxjXiz5UeEUGhyhp6f0w/ShPYdFJag8AqDt8Mz5Pkn+RG/8AygFNCE7XpKtz0l/9J5/UozESBf0hYLBjHNjE210lpi/UKwMA/wBI971LOvqAIAaO8Op6MrNfwjHKqwKHeDA3oOcRbFMO06t9TvTvy3pmbQ/gNRjC+TLjdQhvHpX1abY1KRgy5cV/kTYQg6Md/h0vXc/EHExKlRURWeaLULqs0XDE2jgXZK1qDg5lLu6fCStKQQtb/wBsCEUoXiQm94Y2xGiqVEmXiNArVEHs/DT78YaJKKeISpWjw95WmIQwNQjoqHuzccf5RFBlCDcWeu5vTBMQjPzMNKlQfJwqj6kGhWnw9JpUB+B9ypWlaAqJKjPgvqOjNky8b60USpUxZ3YSHSWIBAJUCABAJRAQlfQIkIoiIB8SBgItAFhIDBAgXlQCU6SsoQagItuGB7AgMRFHEB0nalSDZXKAlJ2ptHmh9MON4LizAxcBt3QkMCAlwlwuUvaLWrN0EGWJC7gHvU9UihLlw0Vog4Qo+IgBBzZUQbssiClLJvVQHNDW4sRe1GPFcYWwZesUBGmMoOH7JeIfm0oxratkeUVkocpsRNvCMVbLmy7jEF15k2lOXKCDUZbU2J8JwGU3Atr5jSOfhMpQlPGO5QImoX5eBiLFR9oQGgnRmlLXSyGm7rIkYG+Ckvqi5Q0Y/a6bKRLfQ2S5GYFEuzRDxUO0BU4JlH1IRGyQexjCJyiZqwxG5wkmCVRUMIGnzkDQ0x7w6MsO2ny4OD4eg1y8D70vRm4vlwGb3v8ATg2S4OhPjS86O2gjgd9oEIaJOsitVxHcDVm97+DYxWHW9BscDtO0NX7EFDD+O2O0SW46rgr5m6aYF3QhHYUW2+n1JMoTEveauFsZiTwoMGXCOirq49pOaPY3UL9+GNpOpI29sWGNSKYOCGuyGk5Mjh5EkHAtvpb5EWJMlW3iGCHxm9TcasJRwSWB8uf5h5WEFM5Zfkl61kFd4pyleZl50Vp26XLjlwjKrrMEgwBBCxom/hJELiARyGg6ZeMhWNBbosOVioyqMXMq93R4uhhryZiE7mIgldWfKYMOA2EIjAZKp2isAFhE6uRGraFmIj8x0a+XAdIo5sRjN7yKDXa8raCBzeCMfuQeA2ui4sWfh7oMNficBi9OXwNeCLiIhdXaYr1w9GrFD6NROU3XUfUOD4T6l6s+WaGu3zy5ei9TMPFHXfmxwdfaGr9c+PD+MY4R/jIMFLHdENWShhUglzdcwBKg30ADcnibHtig6EERIP1Fyndphh0CORIpioWS9oOqxAD6tMr1ZM9XSrlzdSUgG7OieXvFNtBncIx9B6qzBQbKfcIAS7hECgmY90+Hly9HlLIzl2amHOYlrWlYYWEeRDXd1MZ8cloC6krU7rTZq16uyVanMNDRfNoRN2FiABRBWrnmUEr6TZ2bRn5oMEjsCpZ01QmVYWFOB2EEgwiz5zCGv2tFlxYvToDGE33RQ1WiG/1PA6URjFmPfaeuBcQA9yYaMQhLO5ACMuO0w8suDLizPxfriFerNzy4PkoK8etxY+SbNK05vENAjqZ9MP47lwD5ruTlX3Do4dJ7h+9KGYSFuUHVFEzBygRg+4iVMTMA64Q9r7hzJa8y1UywEEw5R9xqMPcOj9wYNcwYse5uY+4IZPuCDLQ4PzcqlRcSdnuHS+4co+4V5PuYyAYf7yH9tC/J9zt4YEBrHBTShAHufuoc4e4+0VUJQJSrn7qPRT95LiyQhoRVzO1mfbOxlxn3TF2E+T3MJ/6mXb7gzB9zD3Ash/ZTtfceVOGLYZ8kKJJ6oH3Ub7fW0Cbjup3k7+IXdDr9H3cIGc1ceni09vF+SN4s3KqAMJnZE6Sq0rjOczUp5H8wg7eN22P27cOlmPZ7nZe51B7mCBeY27a8xt2e49B7g+59xqyqDRKHnPMP3NATup5NpRpx+7P20wYXSyVcvuFP/U2//c/2Zcjcgn4lbsrregel9ymyNwebzCnIvzP82f5seu9wDS80c2jPXxqmRhqu2vn22XgdBsfqYTXZr/TGLRc0/rlf65+vgUx6JWyssr/RP1E/Wx/o4aWbohv6Z+ln6SKZ8EMP0Ts+yDcvSJ/8ZQg4iiX6J+on62Wf8IC2llX/ADn6efoIAg9Jh4tT+EcRbitoQhMSgojb1Z3clDAwY/VhVQqGjUbaDNEDSiVp4QlStfz8oiS6YM3e0jLgxSEZwqJpUoN3T4vQ03I7Pl961MDRkNUxK/jOBiE+kAlQJRH5UIhKlEqSCVKLhFRdWUaVEhNMqGIzDusrgVD1WBwXdEqJpl5srQECUq74EqMGOHyTPw/qVK0XEOXq5epajG/dwbJQvWaJSUQYhMu+VAiDASnt0pKIkVH3Sko6ShygKZRDEOkAlRSB1gNCECAUSiVlEBs9JiYgEr7kOH8lxYnyJcGEDFm7M+cwZcuXMtODBlx5QGMYMGXHnww0GLoWebosSDUyYvUn+Hvo6DpZ3/ixBhosp9jg26QotFn04MuXqWHgW/OhrcWiNCnzGXqps9DFlz5bpcvRYPMJcHRV5UeBa8zUZcXB3wYumyfEffAz/c6Rg6HaXq8HXZG7mleixLjzS40gItkWPLpejojr/FmDFl6GJ8sJcuKn4Y9E0whtaLl6E2asdyGO8I/Rm3+N02Re6XL1K/Ey6I6XLlQ9STZFBhGcYRjpcuZu8QdLlx4iHzosvRioRu1ubnpAYulx+7M/9GIa70XuZeuyO3yxIaLLh0XL0I67SvU+bwMVB1HRRgz57wMeHzoYxnz2XpcGL0sH+FC4+6Gho/Igy5cvgc6GY+jTMYk2xMrUrfr9mjCJPmUuMCco93X7pcHTbLi9V+4RZcxL2j2paDCOvIgrwaEuL4psIwdPhw2iwjBLJhho6O4k2n8ixYlZLlwZc+Ox+vQYaVb+iDEy4MWJcu8lw1eZhhqsMe11wZhdKxMJCXL0NokaVAmKd8Ff6scG54mPkfuDrsnyESVMQTIm6WlcJkhrePv0vRivPyZWqo6HzKgaMGXu6XHSvvlS9fiwcaEjHf6KDqM3UHBX8WXrsmC9dNxjNvBkjEP+LjwN3SUVxalyd37lw02MGvUdL3Q0nQ0y8yCjejUqL1Ztjrme0jrsgydXoESUuew1vR47jpTLqsIfp6TNUEyAvchp0hpEH2+E7j6iROBgAOYd31Ohgb+ktKzH9ZU1P1kOh6Q6fpP18HAOxmE/1cr/AESuz0QQT2kvkF2XeR5Jfl64Kd/6oBBnGoW5mLpyQiFZQSdxoWKfJ+SJVBMsErqA8wJhosLZzNKYge0txyecyVpvZIWf+0eTK+yD0lmyMpzXuhwpujK/9oVF3OkQ6oyck0wjrcqAMX5iGsF2KLQFhEQ1uDO8qAy5JIx32gHVTvIpbzY1RIGDKKvIj02l7D3oE3VS50D3FZmy3/6Q5w9xp6GVGgv28sMQOZ7JYiBZRENpOjR+4l1sW/ZXW4LuJLvMTuD8wlVfgE/1ZyD5TpfOHO+UwbOlkLNvuLTAdYpYFtbDOUPcaq1DDs9zqj3H+2g+/ujxpviH/eP9lP3s65PzAMaWhvqwsz7p/kx/fjzKfmYaG3nU/wAWETNgvxEJ7ku5X3+5bwNzPWUG/wBw6mF2fdHNRiF4TzMEHTLCM43ZVy1IG7Ey3EuijBY3gQt7mniQJ7BQq2ZXzo6Kwm8DJQCOHIwxnkG0kMQ2dFN8beVDSnOp/C6bstCLdzA+T1KIO2WGKg3g2m3odB6h0EybIdFKzXNCoxDpE6InaIqxLKneeCdidkhUogeAmICATESK4BuZXAB8pZCKImIdtcv3K0o0J+PA0NMV74T8KVKlQ0R76G+lm7rvHpoQkdbqlEpCrKltPQxIL8v0lTdqJUoiQehCpiVKgFPOVKNDZns/LDT05WgSiA9sAhKjPua40XizcSHinxJVQuplKfmS5cHRdMY6AJmxWXCXH5U7BK0DB/zOhAI7aHqck0MBQE2Q4r5vUxe6rxUZRg3BjUbPh/DvLnqph7MQFqqiVLJyA7OR3YtuFkCTP8n3KgRCYr0U2rVhmV1lKP8A7GvlTnywjgKLcRpjqhmCBoq8yAC7JiISo5Ox7h+wGQYFSoQCT1PuUpBlEqbXu6WaACJEBAQi+RiE3FRByQuLiZqC7huAYfPX7DqS/wCBZcVqbY3LyVBSgBGZHlMV2ihrdmGKWVOs3QyzDZ7pMUYCj5m8vNG0lQaIS7JsS3OTnIhL0sw4/ZAOf8kpvWmJ+ZLzUWIhnh0OMQW+ltHJEi1xN7qUu6rrBfY46DBoUE8uC5Ul80fpS9Dur0210RjxMd5p+Mx+nGCwY8Rl+SGmbCDvzEjCG7E7BQxajntiI9o7RNIdktIsgnFQRiFn3dXWCFgrV9Egn5mlH5bLCsWWlWpD5GIMiJUe2MjoilUBKrQWmDaPTBomDb2hX6LaYHTEDKToSiOsxNSyyR0Y8KOUHRFUk5TVXsTmqzijBDKfUJCUbLLhlLxBvtLS4L/IhQSOw4lB2Bcv76H0ZNbYywgotglq7YHYqc35d1sYeU52CVOsNtwmaxLHaKNuwGElyvUyW1g7xhYgPCwdjaOw9fsjpKon5Y+NnX8EpKvbXlAGBCx24NLi3FqNC+qLsgQdoKwODF5jj0UEvlhFNqlz4PS4sa06468RKR0R27y9lCq8UTBLoAeLIwCLREBEzEdIDLAUHTumLNjI5xFCMNYgaU7IK9ToiK5CjZDbuZjWtUeiuUFJpAgjn+ErQvaWkP8Amy6eiXeWrflHacuT+RBcvFEEe2YOsrgGp+qENbhDjVZuU3XXStvDwqqPdbko8UZa5S1FwZejQoaPaOWwqwPXTdOsIzdcy6uIGfDFouNWABezUTtXA7xgbl5QGxpiWgrKU0diH/5aFXC7qr5YYzIOScoEKh0ixAcHMxmQoLDZh7m/qH9QhsskwJ2mKAlKuoDKFQ/LfC+PPio7SusAK4tEVamyGjZ/9xKohCbIxWdcI0Y5DL2rvTbBb+4OualWilIUTeLWzVtLsiEXVVYApsIBd3B+YIpU2xGwbxvRiwnZGmpODE8FslewIqEzEgVEGUOCBaqA+IKNHmCMvyQNFwQpgCIChm500ER4H2O0pIaCl88KghyBIwhANglxBdnojtqMPm/eu/LED2Bcu9OspfKn3wDmdP8A3oQZCsQM73Tnk0h48lhwTYBAoCAlbK7GoQrXN9RhTF3l3oVGBs4bQ0Dp9kBx+6swktkH8wG8VwxOVlhgqMuA6o3SOsdFYUIKXXUm0Xe5kx8qCj6A0qJMIpSA2sjEoUmp77IerRt/MQTlliQc6pfRXmhC5JTAfYxFeTe8zGgE2oSLgEMEGWVlghl5TpA/kYUDBGjvufSAOdYtbutU3UBPWLCj3mWLANoLdlpD3hoR2TpBwmjoOoz40+Zlwhh1DEQb2iUN4EwcAmJBuFo8rt3SBo7qBFdUrptBnMBpmcXcEq4BKDMGPc2xBAjOal+pWCK782XGPxTnNqlRLuXKFAIh8GLAzsjVcHEen4G8Q3Yligf+YQdSy+CjLm9rn9iE4fkJNsxmtlHnaVA02zA8+hKm2Ud1EMDkE7jRniqAhF8lCokPzcIeIeoTab1EIYQPUDHz0Wbg61perUQnxICDoAbEjF3fUHRteVQhgSpUp3q9ksSMrQ48371uWDRc+Al+OVZqz4770OODM/J1Yzof4ZcuLH7UV6ZqVPmJX8aJoSYxUH2JWlT5BAAiQhZsx2lZimtFFjwM7JjFQm6qjQqBbLQQa6rEBsGl1kVXcIBDFXANglEphtSZi7oaIQhOBRdvN66EEl32jgOhpfCsohujnlOsrHhdybHC4sgSAdYCEO8Sx3ynQodJOgQ6SWrSJ2hth0EKNkJmDbGvyRXudJZLkPMjF8og0VwsG5vqd1gnX1O6+paBBFSnCek/2J2vSPM9MJAeLSpv6YPt64H+uH9fEAZO0MhsRh7Z/wCJGtO3AHMg+nGv/ODr/wA49Tv9m7Y1m1G0WFCiGeGhF2kcT/wlH/hKf0xlW2Jt/wDGB/piCKJWoE4h1zJ7TZd1Ng0M7iJmICbw7yKNxLo0nfT/AEZj/wCojbtYIDuPcei9xPlnZe4qiBBqHTRHLOzj/cS5qWDF0WO5QhhpgR3L6Zuu0XByLIK0oAPmD0ufs9O/YQstbk5x9wlej9wW8T8zBgwLIWP4cwTcdOYhCjdlcvpm+iV6ZRIB5a2rixHrlZ7vzLmRdKVcvogeYnsRg4FN1A1GznOxK6C4gPNAPlCDjaOzFptJzfdLjYYQUYm7RXt5ctt4ixtR5lzgElsAd1S4shDmfimLb7jNIOC4dP7gnKZ0k/M/cT9to7G0NWz9/EggrFQu/wD7MGHxmznrhq/w3Nt2ZlRGUv1suyyiVjU88RhVdoRDrIW3b7gLuzH9mF2b9wjjqmcogUcxKTBg3LDoYdDpNoYVfqW7n1CUdLD+mgy6QZ0c/udlOyTtEemmEHLAQCUiEAYt4BGjeEqINKZlEHqlfxErUBTCjUo6SkBIK7aWuhLaBKIxXPcH3bKYMVEQ0VKISquSUSiAiK2mcqSKgRCA/OlFyiVEifLKhooD2QjGnmRpBa+YJWrS3dEla2I6L/OjAqGK0sEMvBm9JWlSobXY/OhWhEPbNBmum68So7RWnouBn3/vVlLd0eztSXN4mGWc94PZqCvEQJm10/AiSlHWpvdqoZCuTb3g1kEMovsdZkDsglESJBXnYEvK2gLJdeTKHkoWEgMKNwlH8ge7TskBLw5mCCPANkV6F0dB5Jt0qUR28HDfGz485DqjoMYqcNeLRcuLiDg9FGkhkIooRUszC90DLOsuUSILWX1hNyIU/UMWlsxYQUMGIi9LQZhEHDosXZDVBuhM5CdXXDyz8CH4ly0cS7ENRSAGbZzEYVv9xBj1wdaA2dx6REw2yMECDoESAJyVcAu1XUSWqgEYGCBVznmzDzGotipwSnJs5VPRjtuzhees0QROcXpicITdnZwx2mADvtCGhsfvlHNlBlIayuSXzMdUd+dmbqWg94cF4ouPSJVeY2Y5W0tuTeJVTnWNzAK7SrFubVBsIP4VLgx6Al/Y2UuyAUwD4FyqIdVndgRM/C4aygFY62BD3m1oLheSPj4wVtVwMybayXNVQo3zFVQyu47LhVTLY2JGG2mviNTdBfdCzA5li9GVagqdFNBIbSzlUsZDBSWDkem7ho7BWD8gW4S9ove62MaItEkWw7pQKl3gXDOV1GtSpkfmLbdgpGVXZdQIVdxyQKKnjYw0VOuUFTUuWM33iEGXH6puupCOnK6xsIS4qQFPqoQhwujwYeRPkMWEsgQt4202vY0uXL7wVkjCDFosfZYcmXO5SUrdEywBd2kGwwtYw1Qpo7x5gLYbsQdqphe05YfS7iR4Sx9V2jtdQmCNj9QUUxFolnYDgdjm7xM3zS252hEL2HHmbIFWgpE2JcuEB9Bg83IQQu5+QuISgMyzcmycR4o8mnOcocJcz8hc/MJ3YjFw8rLgUXdD62KvVjrGj0Ql6QEO2czfeXoyRlw3NT6hQ3lpE2AdWASyLib8muQYy+jvLUFave419a9RWSrQdllEID0JvRU1QTojDS4soD2YT/JUGzNovIeWjo0JzVMYjX5wQYavzoGjdkAsBoJAdQAE2TcdRooO6hEuCYfnHxTvs3SBoglZxLtwPRHQlWDlekGfWAhBeaWl8GCf5Udpuoe4HM92V2UJg6RW1QUUowQFDquBZkHq/cWCuxq/zMqVUCKCtkiW57iVYEEMF4j7EayXQpgD2MMtOpLm4kA6IX5hH2ozW1KHWBmAIQjjZQIoGQGllFd7qBA01vFRbgfhMLluhPvy711QWgNMy5DvC6AR3HBsaOkENH63XLpn5oaE3o7gNa1NLl6sXrmMGWDOF0zJy488zGDguuyVIoCAlYuU4XBiFUgdYRuqxbE2gznJlGQzAnk5cQUUjMQyTjsjVhRB0ioZzohatdhmxgjgFQewE2SnqAhqMTkRwdRAwgF2gzp4oJWmMPhS9QmAXdDeBe1YEGxDT0ZUdEvzuUoHIAnUTwEuSoAHWwDMHpZNgSljAOawy8gznoaVID2UFU3R8ZoVQ4JURC0BnKbsjqSlyXLGIiGBsAQMbGyRqKzawUaO5BHdmNwhowHcBhwAsGQYarH5UIBEdmYNNwLjMBY3EuBA2IaPQQsMJSQK0eIG1jY1R9IUAtsQ4YLE5npgqnRaOhjbfhH3HqOqyGwTwaANqOaiHwko6Q3eTGlDn4hqggaoV2zZB1VTlS9d/e4wYsxGfEIDmDYlxaIx8rQZcKBoy9Sq8wZjSle6YwNDiOBirxxyWc6LIQGJRLx8SzQjghG0ogEEQi/CjoOgGLJ3JsJDBmdROqIpyRCXBCyjEC392hI7iKH/AKS08gphKL6rMO2FggM5lghBb7aO1YOhySJ6A8Cr2lbgY6T/AAGH6kw3XpKiuCbgvYif/GH9bP0srXXpATeWYIf0sR5ek/Ux6HrLjYLBf+cF/wCM7fpF+UGWnISjt6ShSxYraH9RH+hiuCJtJ8MP6+fq4HZPdCxYmefQ12p3xsyt3zu/c/cY/vy7UHMOgnZ+52Xudv7myeSZmHNe6H9poW4xdo9GV6ZXkk6mL5ZaI2Ypgdc11T5ScIXRceTGh/w0L5yQLFqJ2oNRFUFCzlCD0SToTQ2gZ3u3fWXJ7472Uq2yeKLoO0DH6o8n1T9HNoqmNURUP6SHM9EeR64Q3oIgIu9k/Ryv6sOZ6Yo1OTaYlP5Jn/8AGfpYc1JflLxJSY9EYpFf6uJNK1hCdF9R/pp2fqYdvqKQojS1Ox9T9dP1E/oEuKm3pP1UOg9TqD1L/IeJWK9yX8vqf4kD3vGkLcQlHNmwESwFB2herxPBi50m4IgIbgnvRMe2MqlZgaqU0JS2YHqIi5JfG7QizMH685pSot/EatSSVJJyzAc/94FSqUy2rudx7hMFin3AsckeG1wdBO3nZQZg+pd0VRjTv0kP6iHR+piA5ztJ2U7KHTRSBeJQMTtTtEYWOIKrpKRFaA7wEKtoR58p0lEogJAhqKNBKQTByIB0gERAQLzRKdJSIT7vAxsnZgasN+CA0XGh2uzDGhotebqmh8XTEWXc+NF6pD8ehLND9OENGfY4HiFhRn71WfKSzwNaiqYxA0GL0IY0DphwZifKQb0vQ6kvS5snOhB05HchxqsG/ARa7Hqn3NvQ/kVhPUJSTISiWVKQd43WMwbDTEpZimh1qXMslYwFoobQxhwnsyqNksiwe0GGgJ8ZnxNRC4LsOi8zlY8d6hCGm44W/wDj7iwarUCnwz4LRUagEsBuCM2QI2uP8wsAG7O66iDHaWskgNS/5aMWfX4ba9xZfsQZcuMX0suXLizadmBLi6PyuF15egOjPj46OnvVDVj/ABsMHTlFfki4MuO0xfLosHRfzr9w0Ub+XMPEg6ENjDY0GjaOohklQKlx3LcIkNpsyOi2LiX/AC+AvRA0lwYz6k5EvUbfxKqKE2/U/wAM4bo5DQRiRVsiNc4BV5ZUTkQGbY7MEbLgTEjtARtDeI7lbzaKgNTqwWQ5+pVhg6XqRFcB+4RTDellGKTbtghmA4gbj0ZnAqKP1MWs3CFhC6JGzpFV4mx7kIMvRYYJcotGTJgtruxjqrn8xWDIrAwV3JRty4AN2hEctLTpFcRG9odCCYA5IQcrokBDseYBAjodC4dhqFlGIaMXWtmWXiLgR6XskJBQYDRjvw8x6S4xj82EXouL7UWLMmhb0xIxlzB4F78DDRnxcvRNHj1EYKW936a50/3OmtxcRW6J0cebz9y5cZh5cz8SBrZibRIaOiAhosdH1gYStKu0hGEiUTIXdA1+Iz4kqXLgvywGpWjtBn6spYJUzKdvCfwCpvd2Bp6COGpdSyHnWY1GZ2dZ0mL0DLZ6E+1MOBdOYLVmpme7LslLTPLE2NsxK4v5iPATmemKhtbwcd94LWoJTj++ehMQSY8c4YhmExftPi4aJcbevahGFA9RhHh7ReiwCnbqTEUFOoCYBPrDAP5QfgijtauzZgXjgwLZScmb/pD5hrwpenNxD9bBNps6QosR3sj5iWwy7qyBYtkIqgI7Q0AXY0I6PYg1vGgDwC3zYcH2ox0piZOzL0SUS3aOAYMvd9xaseJgau03nbQy4s/1OkdCMuDofqXLgxYgLWVnBReOE1ufJSp40s12Xj7htoGgv8EHBosWZdlQqDBmyUxg0xEVCKd3W5RBn4jTeWT5jEUZlnWdtKe5HCXmnayrln7iWIELghK0YfwbwWoLr6EomAIEYUuSIiqXOcXAXqlujaxCocUBNoIM4L66fCnJUywUBFxAPoFlNxIhpuM5PXuzeCQSM/MiHwYJKSkaHMKqrUpiucr5J2U7KFanOftp+2gV0SwTb3SgQKTDsqJ4e+8aqrOfm6B2g7Wr2RgGiUG2DNBWLGI3XWT7YMaCT3pFzEG25YnVGiQLpUZ0pwBTO7Et/ix/QndemWqXTPl9M83qdn0i+3pZRJiRVT/Ulv6IT7jEbbgRYj1D8z9kQ5ih1ZFi4MP2Z/g6Ht/cVXgbVOzh0Up29+i58h2+4CqxhsxSyEnuhS0wcpX9ecn6dNdemEDvC2JZ2epd/wA5X9OVTPqmLJan1K/qx/oXRUPP5Q39w/UO71ZXVFcrKEyyNkNzzFIaITCxmObpMcjzfRLnTyFTpH1N6f0jmPhGrCA7lMPSpT/5nNfGPI+MOsstCq/iPI+MOu9T/Ihs7WSPJXqLlIUmsFLyrfEcVUbO02qXqWbfEn+ZDnr1C+K6M6CVkS0DdKC0Xcqf9Yh39sf2oJ/6pQPsmS4Ac/fP3EapbDm3Fdx96IIwNXdDoYdDKv8AlEiCq0g/kAm7AXPJDoJ2EeXGHcl5kFcd5Bqwy1wPqJdhiFhOi2CwOvgn94hwTGbQ6BC5tAHSB0Iq26pdzEw4UOY2VcuNe1FYTEN5987/ALT/AAWeWKsNqi+EhsaeFkjaxm5cZM7afrIHt6JfA5HtqdonbQ6CdlC4G0GuuUOhDpp2UqbQCGub96XYIlsQekKcOedonaJ20emhWPpKdJ2CPQJSVo6FgSiIRCBid8vIGi8TNFx2XvFcD5giRUdnu4EjooGhGZaUaMdnl9zKaNC7ABCNzg5R4NMRo0FriUI92trOR/tP83aJq7T4P6ODZLWvV9EvQNDxGgiMQUTWfXPGQ9WLl0qzrCTudiGAAUlbXLDXIECzLCo2Qdqt6rPil0npFNYuY2bnrlHGVblsS8WE0IaHxIanE2ZUYzaeE2cH/iENMX4YagGqW3MMP5E0qvkSMxcidSAuSdqdslR6xXoQ6ROlAERDMQlNRn4IMIEJvyMuEJRAv4UNCJiO+0mgw0fo1Gm3/rOhL0+EzA+g1vQfufvS4zbNnBmP3H1L1Zh4n3w37n3GB2IHlcykCzBKw5+pZ0CIRVs9Ys9dT8tF997RGjaYXnKo/wB3SVnFGHUA9zuSsxjw1iRanlcrSFhjV8RW7KDyhBlQwSv2hEBLpE7E3R5j+76i6u0GXqfrW4z5DQdC4lL5sepisUs7wdPoglqEII3X0IV9AS+itxHEtpsShrsEOkJcuWL0p9woqmdVXgRAc1EfJdZaAjYZ+Wp5vChmXgQ12xY8AgGNWEq0vRCuCzbtBDU4q4K1Jym1aXL0yLvoQXRYZlg6QZcGDEiT4aDFB1KQhBjqXxSDoMXEVd/UaL1wQ1qy/wAPBcxU6pl40JcubYvm+4Ou2YmkNR9300NGP1vuDwAzcIYEC7lHmwCig6xcOXqqsYTSUvh1hh7UQSkL4JQNq4JQLW+ylKJix8CHPQUS87dalnFoEVB5QIS9DYaBNwRsGpeJcchM7usJyB3cVKEbLEqN/wBeXAz4v60vRYcvXWIsFZzlSBDRUnQZVdqAgxeXqzMI1YXYH4mJdA0uEVLySj4kvqJXjQDWeJDC/h4Xx0CGm9CmhUSb/ODESVEqFYBKgSwCDCVAjDa9yH8BpWlTM2B3goQ0HTCIhFlxYiLYMGXB0/xkIQlx4pGDBhPgz4yGgzZMuxSHAMmhepsyGXrkPVTHxuDYz7MNdk3PXWY7T5f0hDRlfxfuENVDUVOk3Bboubn9MogUWonFyAeYi3O2AVYUnUZ23kFTZg8E3fcfMIDF7kFDg033+LIOrM04Yz9R96XL0Cm6wR1f5u3A7T7vAsw/2ZhDQ7gKjkMB1GoyUyLdYOCXLlzNeT7imJZFijui2CCnRlfdCWaLK29kElJWDaBzTsJ2U7KbBbw6CdtOyjTgS0Xz1k78QShn0z9RA/1xExLk1BpX8I6EfsiEE0dpfeEN6aoS47MGoS45bPsQhL0bjpIwWKXBYR+ogy4RYjIyXrW7zCBJ3Cd4lJbyQrus7CdtP3U2Q2hsTYnZTs/c/dSywgsP3MG33P2U/ZRofugAIQT/AO0/YT9xH+3I5IC074n7qI/9pbBqgXkUw2aaHvvpmxl9MA3DS5SlqCv9E/yJTv3OxqUe3UggH4qlfM9Q/wC4kt5vZFSHcVK3Y/mdv+Y7eDnH3LQH8oQBCfuof2kWEU649Ce1D0flL55B1Hj6gWzV5Qf8uHPkUP8AxlIAOFxOxkdaTtoAGw9MRmFd2Cdj6lISZOVFTEiNrCGzmR5cWPmR0vFCyING5OSHTQ9J6h0MUM+pKWgh1non640RgKSpSA9sbNjRZGFknMSFakwnauPBRwCJAq5bFSkr7XMxadUha9YdF0s/sdDwzsEr/bKf2wD/AKQBZZlpO3ojoIKgnbJ0SdjEeSWHHOHRIw7RAG0qhBSBccJv88H8ly4rDszEHbV0I/LLqCVuREr1I5JkaGZVuIbXyTsNAigjCxvBoA1tF2QnIgmvVQvo+UOj9wmGmGecdpzA9Q/Wh1nqLMybFuZlv7p3e6A/vgT/AKxUr9or/adT5Tvvc7T7hw5iTYKgcB3RhyZAS4ImwsOln6ydpHNCIVLMdYPE/VTb+iYP/CB3QvyixXxSrkh/QR791qEKm5P10/TTtPUEbINgbJToQ6RK9JSAUejlaYmNDUaEQjgpGqR23qdCFSqn3PvganwP3wMVlwEl7nrjrsmb8WDwHbe7Q0VEdtDVUps0GDNh4aB9gEVXwGGY9kdhAAFGgdMPAwl6LDMFiXpvTb4FpBnTZOZ7w0ZVDzDiLBGDD6r+cbo6IUGS5a5kOsQ6CPTzLKZfs5awP2oh5vcqG8XhjzwhTtgRslfIhU0T8YgOkogiEZV2hoGDHFlFdIMuDHaK4TQNHB7PAsfCGU3wUNd3wx+qDL0XiO4ly9cF7PqXLl6PgYcBs4Fxb8nhS37uF+7CXFpb+RwM+P8AvW9H+B+ko6sd9hnxoy5kVKk6pquOYjZ/h0NN6YF2hLjLH8Smp9YwGG0uA2ASgLu4S0TvFEzsR0rLqwo5TOAyRgy6j0y4QtAMuXPhM24a81DQYsaV6vMrRlo7T7n+ZZ1jp7hC6hwOxCzS5dsMyXvFgy4sVKO/EaF3oXZH+Mg1pINMPHhNmuyKldVwj8DDR0D8w1GXHXjj9JB0uL1MTMNkvS9aDoo3431L0uMHp6DoTJH+5hBl6Ko6rQ0ZdB3OhDT5D7hoTlLwdz88Cx+h98DKF66CVHafI6MdAOsG4k/3d4tMy1vDLyGtAOcDDkNydmuUtECmyh0gr4hUXMbzFRyDNvSCDR+5FoEZd8iW1CZuLFfkgRhF6NMaMv8AhgTZAm2YSEDVBoqYDKVhDjeJRbIa3Hn6Old4w3mZN+ldaBubsdDTOhhFzuRCECtFlE2eEcHRyTb5pu4OTyhDRmzgRPiT4xwbuiGu2f6nXgEL+NCVKlTcdmg6DCsOAys/R6Doy8Xe6Guw6v7hoS4G7x4fgfuGhpgehpNNkPstUiVDX+nMNGLHS/4uBDQ2o68cpLlCpCviIorF0iEr0FeiOIZl/NwXeIEZ+HBxCDLjuPBwP5BLNLOsLrAcvOHTTDuSrknKkqGEOmna6Sqc1Doekf6SU/olpughSQld7pSOyB5IPyQt2+4rdttAHA8Dwky7MG0M6rHHEdpsgMGGOW2i2JDUmhDQNH8MNDQ2yHDQaO0XJBoRi+lg6EYz1QTQ0ohSitGDPhMB8EwYSzqRTqRBcgqe52kOsTto9F7gbCsVntD+7JTv7yfvSf2+JqNUZlW/th/a6cOBW5wXD9diRv7Jf/dDYezFAHzJb+iW7fFP8hP3kGe1pSIbfDMH/CbMheiV0pjEYD/oh2f4R5FvxJ2sDUSJYLscw5kX7eUyvfL+R+WDM5MqP2h2n4Yv9Nnd6mFVE9kMlTEN20PS+phlaj/cn+4Tuj8JWyvROekwW7fhOq/Uw7/RKO/0QYKbxldrloai8DaXCH9NCq24lQvpfMYZWBQ7jP3MGnJSDBCjswsWpWfNTaX7iIQ6XAQNFuB7waomzAAV7IP++f4MsH/vN+G1if7YGj75T+2VP+0pUt2h/YR/uID1gEwVUeTUXbWmeq4QlH7EotooUjhhDoJ2k7aDXEJGkAF4gQBESkrV50YrirwMNDDgv+Kh5IbRZmNHSksmOujgYpCkcKlkQ0hAlTmTqCV4rOxh707sOq+oco9IB/4zAAyQQb4nnPzLNhDl+2KmzG4sAhE/4Q6D1Buf0QNFOeYpscObO3/vP2EvWbEjY/8Aaf5MAf8ASEhaz7Lcfu/FTlyAiQP9rAIVY5ssouyKbj7ZZuezCqre4ZMKGXTIjcR6GdlATAJYBag/oof0U/UT9BDVFVSKb+iH9RDpJVyQ2QT2pToSjpEmKu9gStKjs9/3KlLvTEa/I+5jSiNQSh/mdCtRw9DwvD0NGITZH+L/AMQIanf+zMNKm2E+V9wGLYqCXKvKg9Ypg1UyDn6eHWh+SGxoQBewUx+pvFjRYM+U0sMrHZ5wxgclU2EdusJhEkK8ujceI/st3OUqMmzDV4+IMNHl4eGB+FgRixKvKmT9v5mIjzYVlGV8s7ed+dIfUS1LD00pxU5dto6eUq0TePQktz3kOe4xk0QLUB2X3O1cBDEw7JVwgPInREJUSnuSmgNNk+9DQNL9iGhHik6msOB14GYl20NHaX2f4ZfAsfQxQ0Y77YcDHi5V+9DRIrT3fely9Db5/egxm0+S0vRcfm/cuEDGG9i6ly5eJ7GgaLHt6m4or7HBbI6LxVwN8IvTue8zEnpgXY51DcEwcCDPgo8EuER50lTf9kuEXBj9zFSUG7FpYcMEXqUbIrOgEUE9Myw+hAfmQZczczH1Ubg1UGRAjTuaFcUQi4YQ0HTYrGlsuJC6qBxM6K34CU7+EjwkV2pCsKxCraHQlcdqUClAQomJiVCK+EPA7zIQxDR2l43B1ZXwm3gNksRkJcuD7ugaqPdHBegfqNbiPwsvcXLzovDh2lL/APaNDVerUMWZLsg2S4Nxn3tWMvHy+4MGLLjud2iwYR0fVzchCXULdIfvR0uPVr0WlSVAmEH5mla2pgya62WpUnIFYVjc+UmSaAO4TdLCEFmt3r1bzY1aHEFBgY2RvZRDEQawI9mBC/mYibjdA2tmWGk3FgKdHoy95SqgRpQZxeoXCXCzLBT7rpV7Zql1S5bAvaKCD1QiaZLwRIJUx8ENDS5cA9kgKmIZkQDsNiBQfzZnUZuEJcuXLBmODaxYleZcxoq/KbUNLIrU/NiEGDpmQeCDBhK1LX98OBWey4X6MrgeDtH6iDL0p+bGqu7AxuDGCv8APngdo7ivU7TAdIGg6DMTQYsAy1JGcn4SpWr86DGBCD8agSoMYZHshomlLupPXDTSrCbZU86XLJcZfxCQAsHY6jSI1zic4w35UqCctCqsENdWyxApWYTuE7CBizmo1K7gBmLZ7lFjYmuUoATtpZ6YGAybW2yo/wDaBCRr3B22REFIYXcVMezRDpJVwbgkVTkJBhbCBAp5gw0Ad4IDTertK0xDLKzG3EnQzpwblUwFQRnzJXPK7kJc2zncQbdQBtqh0DiOKtWZP3g4l6CRhc0uX3hFx2tMJcuCzZ5ZlqB0NHaVaepCGhNvhgqoQimyb/lB0I7QUZ5QZemSeiXL13PJHQO0UvEufMRzExLIgNyMpYIOZO8TvQZshKBmP3UP7qftyftSYqTks3J+5lf/AGIlv74tgkFWxIEwa/JE/wCjKv8Agy/+sAC902dIdNPxMyydLEbieUqGew73Lq+yC/8AaYv/AEIIXgoE/YwXb2zH/wC8Lv8A2llXLVmUbwF5/cu2IeZZt7IbbbKlG0uro4JACyVFZt9J5T+pn66LKEXfE7P1MBYlm3wl+8ugFt2TBv8AmdbQu4paVFA+Ncm7eKxSSUUMnUcsvPiRgKpfzJ5J/wASd32nchZtuDOYN5YbuZTvQRHSlkJbapFrrDAFGhB6EOexif8Ayh1H2CLT+xAQAnananYJXpKdJXRRKJRKlSiVmVxHAaHBUSJp4+kYBNC9NkwactM6bJtHfh+6bJZL0AIy292BcyV8vuH9pEf+koQWmEFXNnaYNtBJRCulyZv+oU4m6RFtF8E6vo04cwy45Y0b2mOKnF5+SHVw5/uid6Tp1wiBREM+9l5Sx5hhQMvt8jNi0/MBVfLD+ylnP3n7+LbrCivtDoe066Y9TLN7zJckoJVJ2E7WdnAtvRAtiT9BAP8AhP107WHSIHoTsIdAlEQiaKSiUSiUQJRKSpUqVpUqVA0rirgSJ/BUqVH+B1HQjfEJAUR4qhddbgBF/kf/AIr1xoLw7bHJg0RNVxGIFG8q3Eo5YjuZSxF5ecZ9BJZ2Us2mvgDabzYh1tS2eYcLt0W7ZHXzu4COjw6CD5YPYzskDyIHSUSjUhx1KlSoaHEH8JxGpqHBcXReI0Nb/wDida4Uh/G//afxnDcvVvrvxBGepTizesv3UN1ktzkOsYddnlh+WHQwDlnRodNDooBoVoQgwuDLgwhC4QhBl6BqcF/wBDU1OI/hP4Djdbhof/bXGw/huXwHAfzn8d8TDqNd41K1DhHQl6Gl6EvgNCEIQhLhCGpDhI61Khxn/wA5/Kcd6PCcJHSpX/0nGfw3pngP/gWPANS7m0vTppmDryhjQ/hNLgwhCEHQhCoajCEGDqapxnHfCcN/yXDVeI0vQ/8AjHV/+w/gYErU/wDivhvQ0YTOlGhVS9MaZ1Nv4Llw1GDFCEGHAaDDhOJ4D+Y4zQf/AIrh/Bf/AMg8Jw3/ABVwV/8AiDORKuWy3UYamoamm0Jz0GEGXCEIQ0EIQlwhoQ4DgH/4T+O+A/jYfyX/APAcIcd//l3wurp//9k=;" vertex="1" parent="1">
                    <mxGeometry width="1494" height="726" as="geometry"/>
                </mxCell>
                <mxCell id="3" value="" style="shape=image;verticalLabelPosition=bottom;labelBackgroundColor=default;verticalAlign=top;aspect=fixed;imageAspect=0;image=data:image/jpeg,/9j/4AAQSkZJRgABAQAAAQABAAD/2wCEAAYGBgYHBgcICAcKCwoLCg8ODAwODxYQERAREBYiFRkVFRkVIh4kHhweJB42KiYmKjY+NDI0PkxERExfWl98fKcBBgYGBgcGBwgIBwoLCgsKDw4MDA4PFhAREBEQFiIVGRUVGRUiHiQeHB4kHjYqJiYqNj40MjQ+TERETF9aX3x8p//CABEIATsGPwMBIgACEQEDEQH/xAAvAAEBAQEBAQEAAAAAAAAAAAAAAQIDBAUGAQEBAQEAAAAAAAAAAAAAAAAAAQID/9oADAMBAAIQAxAAAAL4/p8H1bj1egmqC2FpRZQBYKABYKAAAAAAAAAAAAQAAAAAAAAWUAJSKAAgAAAAUlAABZQAAACoKAAAgqCoAAAAAAAAAAAAAAAFgqCoKBYKACpQKAAqCpQAIACrAqWAAAKlAIB836Xzs3mOeuPsXtzUpZRZVWUqUAAsmE0UEKUiiLCoALFI1CKIoiiENMw1cDbMNsDbA3eNOrmOjlTo5l6OY6OY6OY6OZOrkXq5jo5w6ucOrkOrlTo5jo5Dq5U6XkOrlTo5jq5U6OY6OVOjEOl5I6uQ6uSujmOjmOjmOrkOs5jo5jo5jo5Dq5jo5jo5U6OY6OY6OY6OY6OY6OY6OY6OY6OY6OZOl5Dq5l6MDbBOjnTbmOjA6OY6MDbA3eY6OY6MDbA2wNsU0FqUAAWUSwAeD3+HF4Q567aze/PSUUVQWUWCgBMbxsFJnWSamhz3DYUAozNEnPdJNDFqpnpmNKXLQy0MN4TXHpKsUIJqWDZcNjE6DOsaKAACoBSKAAAAgAUlAAolAAAAAAAAAAAACKIoiiKqKIoiiFJQSgQAWCoKABZQAEqC43kAihQXNDWQaMtDNtMrBrOhYWoKlFlEsAHj9nkzfIjlrvc3vz1YW2UqUAoKBLEmsbFCJShbAAUEsAMUTVhbAAAAAY3gz05dSyiKJYKQqUAksNAAAFJQAAAACAAFlAKgoAAAAABCgAAAAAIKlIolAKAAlAACLAAABZQACgABLnWDVlALAWC89DQAVZRnWUaxooUCoLYABC+P2eCPDPmuevqejwzrj6lzsWC2VRQBZRLEzvGyggKFALBZSLADBU0FAAAAAkuTHXnsoAKgpCoKCZ1DQAAFgqUiwWUAEKgogBZQABQAAAAAAAAAAAEAAKAgqWgBBYKlAIAAAACgAAWUBLjUKCgAGBuUWFqEoLmwms6KlAUBZQBAeL2+aPxwl9PpezWPT28fsVZS2FtlAFgssTO+fQUJLDTA2xTTI0wNsDbMFsNMU0zF2wNsjUkNsDeISbYN3NWoKgqCoNIEx0LJk3cQ6MDbA2wNsDbmOrlTd5jpOY6OY6uVOjmOl5jo5jo5jrOY6OY6OY6uQ6XnDq5U6OY6OY6OY6OY6OY6OcOs503eY6TMNsw6OY6TEOjA2wNsDbA2wNsU1IKhFlJVIoiiLSag1jQMjbA2yLijbI0zSs00zS5Ums6FgoAVYKQAce2Y/ESyX2a4evfP6PqxuaWUtgtlUAChMzYyoiqk2jDYxdKw2MXQy0jKiNQy0rNoijLSMqFgEAIsqUCwCLcjo5jpeQ6uQ6uNOrlV6OcOrlTo5jo5w6uVOjkTq5l6OY6uQ6uY6ucOrmOjkOrmOjmOjlTo5jo5w7ONOjmOjmOjmOjEOjmOjmOjmOrkOs506TEOjmOjETo5jo5025w6uY2yNMw0zSoKAoiiNDLQy2MtDM2MNjF0MtUw2MNjN0JnYmgAWCoKFssAAPxGO3HN+x9OzWbYLZSgtlAVQAAAoAAAAAAEAABZQgAAEKlBCpQlAAAALAoAAAAAAAAAAFiKBZQAAAAAAAAAAAAKAAAAAAAAAAAELAAWCgAWCpQEWCgAAAAsBZRYKlAAABQFssAAPx/l9vizf1g1koWUoLZQFWUAAPNlPWzS2FqEqCoKkNMjTIrPI7oWoNSCoSoWyCoKgqCoNM0qCpQBYKlACCoKlAABCoKgqUCKBYKlAIABYBSWCkKAQqUCgBCgAWAAAAAAAgsAAhKgtyNMU0yNMjbA2xTbA2xDbA2wNsDpMQ63mOl501cU0goAAKlUAAlPy3zvqfLzf1iXWaCpSpSgqUAWCct08fTh3re7k23mI6Qxbo5ukMTeaNZDeThxvY6GozOmQ2MTpDz9cdTlFNZz1JZ0OblyPTbSNlxnpgrfMmtDnubTM6Fxnrg49fF7C21Oe5tctDE68xOg5t8ybbMM7MauiNjGevM1KJeXoPH6PP6zDY5468k6NVcTpE57tMOkXnrn2MPP6znO3NK2XDfMms7TN1VxlopSZ68Eupojl6DE3CNww3CLTLn1MOfA9lzsknkPZrHQjQzNQtZNYnE9GvPD0r4zvPN1O9z5ztvy+kzrNOl8vpJrz7O2XM30kNWUAAWVQACVPznyPtfFzr9TrwenWfQBZRZS2UAALDMuTz+3h3PFrpszdaWkGsbScO/mNa6cjy9p6DHi93A4e50Pk+7tS51g6IVy64Euz5/r1TxetTx+/Oj5z6AxuQ83s59Dz986PNc9Tr5Pbg4enGygvl9XM4Y9UPLr0aOLp5D094Lz3g2DxYvrPN6s9Txe3n0M6xstiL4vbink90jx+2w8jtK6eP3cYeP3867UhLBc6ry6xY4/Qwrh6ufWGN866Axrj1PH030OG+vM643g4erOzOd0z5vTyOPtzok1k0QsCcOsTh6dF870RPP6KXnz9BMdMaLAS4JdlxuU5dZsnPrDndExHVczfM3y6jHSjyenPQ8m/QOXTWU3YKlAFlAVBAPh/B/Q/npff6ebWfsa4d5VlFlLYKgqCg57zslCZ1zOrl1GdDGpoiiZ3gqjLGyazsiiZSuiok1Dnvy+ukqJnpkLVzaMVUTRZncFUy0OdolvE7Y3A0MXUPF6+e0t8+1682Duo8np0OW2iKOegt59SY6QrQijnuaMtQnPrg0tM56QxrHmPbNDnqbJNDOemDU0MtDnvO0ilmd5Q0MtDGmjLQzNQTYw3Dnboy0M56YDcMs7M6aMtDM3ks0Mtjnq0ytMNCTYxjpCXFN20xWjGtDLWTaUWCgAoIAD5P5v9P8Al5foNenWfX6MblqUtlKAUASwms6D53oPT5fT4z1dJSxCazoBZx6/MT6SYJ2ZMY5bN+jz9182/FE+ox89fpvJ6jyW+VPb38/pWTWS2UAy49Tbj0N5sLrNLGTydfN7y+L0DtnWDYFDHj9lPL26eIvbXiPd04dxAx0xsk8/I67x5T2unI7zWTl6PL2i9OfQ8/b5/sO3m9HzTv6PF6K118nWO/j7eMz9LlwPV1+b9IzrOioLz6cqzy5d43w9AduXSqguN8zpx1zOvD0ec63HA90vE4+rHkPV18PqOssSaxsSxfLnOk659FPm+3pTx9t7Pn+vUOmdYN2Uxx68D0b47N8e/lOO56jOO/iNenn1PHn0YOnfGDe/N6igZ1g3ZQCoKBYABDwflP1v5KX6Xu7d7FlLYLZSgoAEsM756PL6kNefvk6sjTIm+WzTJXi9mU3y6DUgmsU1cDyde+Dfm9QqF5zdTTJbllN656XTIz5PR5Ev0IXUkN65aNzI5dueidMjXPWE6XMXbIb46M7gzw9PNOzA6TELvjssRdYaTVhd4uTcDdwPN6Jo1INYuTokNyZN8Ouhcomueq2zDeGE63OV6OHRGuWzVwN87gz1sNQMazo3Mh5u9M9s8DfXzegzvno1y3kq4OtwNzNJvnTcyNYuTpcCoLvlo2wNMw6MDeZDWuWjbAtyOjnTeLk3ZSpQCgWUgIDyfkP2X42X9bSwCgtlKlCwFEsM6zshSZ1zOsuDTOzOs6ItJjeDQAMagtzVueUT0MZXreHYlhKzpWbyTrnJepxOHszsoGdQazoAiUoJneDSgDG8bAGN8zYAMbx0IsMazoaxsvPfM1vG4tgzrOyLBmytUhnUJvGgsMazoXGxnXA7ywzZmt6xsELjWE2FsDOufRFlVnWE3jZYsM6xtAVjfNOgCCa59ABlDYFDOsbLASw0BmwazSoCCyw1kNWUAoFlAEsAOP4v9t+Jl/XCwBZS2DSUAUEsM6zs8XTp0PG9UM+P6MOPozozvGwFmN4TjneTv5vTzFaN+P2F8mPblHD1xfD67ozx7RJ0FylPD6ufpTHL1ZXl1DTEOkQus0qUzc6KBjfM3YKDG8bAHPpzNgAxvn0FgxZR05dC8+mDWoigzrn0oIzjpzrqIZ1kazorOjnvOgUcO/OugMTYx0xosBjWE6Z1FloxvG0WFZuU2FsDG+fRAWc+vNNyiUOfTGjSUmd4NWUSjO8bAJLDRSSwllBTMo0DNuTaUXNKQ0lKlEsAMfif3H4iX9ZPN2s3YNAtgtlAKgssM6xsAY3mqqIoxuaJNQY3kNwy1DnpojQzncKozdDnVI0MtQzbVy0MKJOgzNwzpoy0ObYy2MZ64K1TDY5bm0w2XGOuSTpDLQ56bTF0Xm0MXYk6YLdDN0OemjndjnnrgrQzNwxpsxOgwtMOkJnphNTRctjj0z0TE6QxjtgjoOboOO2zDYxnrgs3DLQ5baMtCY6ZDQzNjjtsy1TGeuA2MtDnpoy2MZ65JdDDYw1TDYw1A1TE3k1ZSWCyipS2USwEH4n9t+Ml9Hq891j7d59ZpZSgoKBZRLDO8bAGdZNWCoM6zsAmdYNgiwxvGigZ1k0lWoJZSyiSwXOgggNJRnWS6xooM2UoGdYNgqDO8bAJjeDYIsMbxsAzZS2C51k3ZRYjO8aqpYc+nKughLBrG6EjOsaqguN8zdgqUzvnsoHPpzTaxQMbxtAVjeE3LFAx057SwVnWE2CoMbxsAZ1k1QAzvGigY3g2BKM6zoAksNWBnWS1SFAKlLZRLBLB+P8A2H5GX28u3XU9HfHSFlKlKCgWAsM756NMjWWToyNMhvno0yNYZOjMNMiaxTbA3hDdxTTMLrnTbJbJlN6500xVITbJd5kTWudN3mXV56TbBd4ZOlwNsidOWk2wXfO4TqzF3Mib56NXAMxOrlV6ZzE73mXo50b47NsU1i5OjI1lC651NsRbvjtNsl3zuU6MDo5h047NuY6YmTswNsUm+ejTMN87k6zI0wJ05aNsQ6YZOrA2wJvls2503iZO1wNshrns0yNc7k6XA250b56NMCpDoyNZQ1rOgABZSgssEsH5f9R8GXxb+1nWd6iW2UUWgoQCwMbzsiiZ3kqiKMbxsKWZ3hNSjLUM2aIomdQtlUlMnkT2Pj/XLjzfCX9Prh2ShZLC0EsGs6AM2U0gZ1k1ZSgxvHQiwc94NpRLDO8bAMVQqJz6863ZSgx0xsFiZ3itiJLCazuoWMazuwFY3zN0AOfTG0JVc+nNOiVQM6xtAVjeE3KWAxrG0qFvPpzTdlAXGs6SyiY3yOyUXNM7zoWBnWTQAM7xsgEsNELmwus0qUAWUtgssEB8X7XxZf/EAAL/2gAMAwEAAgADAAAAIQXVRGKFLANLAAFPPPPMMAAABPIMMPPPPaQScUc8/wD/AP7jDDrX999NBBBPPP8A/wD/APDDDDzPX3z/AP7z3trkvigMPDCAAtvHCggjngvlQs5aaKCANE63yx2x/wB/f/v/ADHvDDTvD72+66zGCWmcYw88sI8Aw40qOM888MQw4oAAIIA8Ic+sMc1tGyzD93PD3vPDDXV0IAQ40AWctJ0gosEJf5DPemOCvTPJ3m+qTxxBLiCy2888M4wAAACW7jWyifvPff8A/wD+888vLLLDDDDiBATSQwBSgDF3PLY9Pdf+sNGwwihSgS40TwjzQBV+E/xzyBT7OhDyygBZZDCwQgBrzzziAAAAALb+t84IIPfvff8A/wD+84zisogAAIAANPPPKENAANRafXbU0fKAz8PDBOBEX2uRYOFKNfwQ9PNKNOM8IFMAALptPDBDFOsPPLCNKABDEtqkvogggggsg/36whvvgjiABLCAPPMPPAANKFWfded97DdS0yQEOKHK/n6fRKHLBX4y/wDvN/8AjnDGKCSOLHiSy+8CGemyyyy+Mic8M8oY8Uw0MkIIAEAEMYkU0EU0w84iKSnrjTr/AD2Tzw/0++2+w7QQJBPO2jbfbaNPAYwxU84fbU/w/ZaY7w5z4bdcz05z3+pmupmt4ukvBANBCGINDMPPMPNPBGEON42zz8563xwx1/snnvrmslslt/bTVFKAHnbbVSfIAFPAgFLACIHPvqjPPJCBCCIAFPHACANPOIAAIMJtqzy04kggkvvvvvADPPOPPPHMIBHPLAPLCAbQUQQVWbbSXffeRFIALhdfVQdKAAn84g88xzz99skownvvvvjgitrigDAmIABDDCPkrmw8/rurh0hqgNBEMJPPOMMODEMu84w28z+zx/8A/wDL/rjNB99I8AIqd9dd1Z9vas8DnLzE51s7vTX/AD86y/8AI4Lr/wCqu7uMm4cg840MUo2gr0JlEwUXQkLg2MH/AMX57yx57138243/AONtc/PPdOOlH2jwAmoOGGkk12N7ON64vdeNPt+87rJya46qAjwzJQCwnSBijggii4CefRoxKpzrzITQxCCwDAhySQhHwHym10eAhBDEDxxRpSO0lWkB33lSkEkU12uv9sNN+8fsZv8ANDThPjaiLWOKymmKCiNMUE00Mss4UMEkEIQkcsYkQ0dMvt/DfPxjf/Hz3HXjfzz/AD2x9y2572ZQVQfQbSKXeQWQV0461z8wl69xyg1ju2ptsEnHLHGCTEIGACIHIIPNHPnltiIhjvtjkFuhDFGPACDJFQVPYV6y7+19109+5720d6VTQbYRVKmRTRQQR7z9ny6wi200z548s6v6gs0oqgugh5kjpp9U03J5ABNFLEBAIAkABYNeYU5Ud724y89340w054/onijkqglmhuydUaSfeqVVeXdeVwy319z+yzy98r6rl9s7tujECABhKsFPDBPKMJGPCHgutqMsgpouolnABBcGHeMQPH7F0b38T/4/38w357w/jgPUafVefAVbbWfYVy232y4wrz143h9vp0pozEmjJCCsJrFPPAMKLLOJEJjnKjPlvguklAKBHJVIObL/AAjvDNMVcmMtPv2vn2Xlc65seUF1WGJX1WWn01cM83f/AL3fnn/DbXjPzjqGOmqyM2+eKCr0+WOToW0kkUEs4MYsMU0FEwH9rh/7zzXfn/fDXyKmSCeSSuqS+GL6jXxdxRF+HZ5V1RpXD/LvPzDv3nv3reOiQq6OyK6C08wk0EAw+MgU8wEo4msKU+qIGM0Es4Ew9083AjU8jcvdNr1/n/HVX35i9fvqz5VdxhVKkR5dRxt3D3nD/jDPP/7Pfrnrizn67CPzmDOKuGnOTiW+sXIrEI8wg8QREJcfbPDb7/7PHbXPnHL/AP8Apv6d/Jt6O6Ir7/qsEHlUFXtSX3RQF0OsdN/+/LcvNPPsopftYdK7LKLzoz7wBrRwhQDzTZhBSRKAL5BpEQSQCMgUgQlQNCx8xOFRtOdseKvv/e/+vUMUkEEUF2P/xAAC/9oADAMBAAIAAwAAABBm3WzR6qZ5qZb+vMMEE0nXHEWtM88MPXyggjCw44If/uMPeHnf/wDPDDDNNN/rDD//AP8A8/Oss8MKY49ue9cvwzw0lH8tF0tPfNuuOyWa01jwp57D4rrborN/JraLcO/ceOsssIJTykACwSqb4LyxlVgE1CcMHHXkV30dSwJvb8fuoxeIoudQzFn7AzQiAQBSmtAlW213mVrl2Ta6ZLMjMo58zRCGJ6RYTyBEwyAtSnRiMdc3kEEX28tqK/O+Jbq6o4M9rIIbOMNXXnHmFEHmk1Pur5uNSd+7CiXzAyeAxjGEXJykThrZ4LsiMn57KJahUc+NNesWpPO8ctfENPfmEFF338t6rIcP/wCKGKODDDHOaPLzjBBBhBB1NNNrv6SyPHr3frlPiCBBGQMlt9BUfLnCa+q7ADda2Ci2GdPfrPrvl2z/ADxxw0T307ydeQVTQy6x140889/z/golqx//AMM8kEW0kH2k0FVPKrrttcscnn79siAvKSxF2mA5uua6a6sSFsVmmXkUMMJ7BQw2PCAwUpBhDCQw2FwawbLgSCRhhzwywgXTCwo5qJLYpqI575wwBmFm1RgRNFyCQzTEBCy8MAy3EIYNusfYrYOm5w44zCy44aDhDp45aoTTR6KOPusJKqYgyXRgT5bJyQDxx4r7LLa7rL5Jb4HEllPJP6bIEgJfedP+NPPe98n+82BRSxutdvfcKLbr4BepL7Y44jSk/rNbtestsPO98ddssMc931E0t+rLLZuPPO8NPPO33EFHX302k1vd/wDvyCGK3nzjjDzb7/7jD/5QUKUaDTTz7aq24pdkxZBhpNlY4MdwQ4wEJBJRRldzLdrT/wBeXWU16yott4+79p/28QdYQacdfcbw73uOfZQZVAGCAAIEMLKIM81/WIIGMG/y2/zx/U7TUktpuUJOfkr/AM5FOv8A3UAkcRU8IJg+ky+Cm+ByEYo4lInnWCQkuShqU+E9HJNNBJxNssoGllFBAhp1B54A7n1oAgJuQbLX3TnlruymqDfOjP8Ao9zvijuvMaO98w6c6+ZGpQdSJMa99Suvd0T93Y4WziTchWuHtiFjiq3m/jx36Y16ro0lojvGrAz64/n8bCg694/74Yp7gi//AOYbdYbw98RldySPjhT0D0STh+RLd/b9It70kJ3amAxEpU7LoM4n9FyG1OTlXDCoIDpW3TS4QaAEqKI69P8ATr/kMXfHX7LxeTa/jvC7zu7e6ow3U44/4HbnPXqzn3C1Nh9zRmBbL3v3sbvfXTPQDrsdG0yuws2Df+bTxJJIhgI9SEE9J4GMSjP3vbn/AA77+0342Zmhw46wpt8ow701q0KWOHxHDEPIdZXSkPSxdVjWa/bbbbtQTGxtqxi3pwA01XWYScrRAEFFPvswx7+w595yddEzx6445Z784240/Xhil8961866xk+ji9EzLZA+7/2S5V37+YwQSxazSb7+4wZ3487+3o/eBD0HI7j1pqUlY7Qf3AYAHWIWAAVHVa04409x4u2+1/55zctjj/6why/98CVCN+ANVxIao8yD3V6++bzUWpZlex83N2c9/wBOMvg2Eb0+SacK0JYU6QX+QoABAz+hq77sDFcz1dPNMvUfdcd9d+koLBqaZ9LZ7Z7qdH/2nRhzwgDLBAyBAHrjQjEJBI7KLICiATiB7T95KjdW/wB89ol9+tOuaDRj3fnnzPzHD/qvSBfLPvnxa/HTbPrBqDXnPLDvL7D9rUUcS4I8a4E83rPPTLWvhxvy1vt7l/FLhzjQ3edG0JSFH3+J+dW+latzPYbJ5dsr4JSVCwlvw7rLPfXnwaHLHfvheaaenjfPHi2y67DH8tBMzcTN87wAUAlYjUYUndaxlZKRiB2T23qF1FDt+JNxVsJIy1uIw7uf8g/4n+F5pjghgDfPrzXMRzHiCHjdGKK+yOKDX1rzv0I3vONsWsI1LEborfgBebHSly729hwrB3rorr5qwIBITKS3upSS9OR/qsRGqqLEwEMw4AOQmfvjnDTc/8QALREAAgEDAgYBAwQDAQAAAAAAAAERECFREmECIDAxQEFSIjJQAwQjYBNxkYH/2gAIAQIBAT8A1cOP7F+7+zhe9IS6P07lixYsWwy2GWLFixYhELchbkLLIWSFkhZIWSFkhZIWSFlELJG6NO5p3RpeUad0ad0af9f9NJpeV/00vKNLyiN0RuiN0RujT/o0mk0s0vBpeDS8GniwaeLBpZpZpeDTxYNLNLNLNLwQyGaXg0s0s0mk0kbkbojdEbkbkbkLJCyRuRuRuQskbkbkbkbjXQ/dL+L/AN6skrpySKEWLUlkk9OfDnrLoWLc75/3C/i4vKQ/6T+qp/T4j/E8D4X5L5/X9C4vtdNcrpwQyGQyHWCCGQ+pYtywskLJCyQskLJCyQskLJCyQskLJCyQskLJCyQskLJCyRuRuiNyNyFkjcjctkhZIWSFkhZIWSFkhZLFixYsWLFuZdV9mI0pe+jYsWJRKLEolEosSt6yiVuSiUStyVlkrLJWWSslsstllslskLJbJ9OT6ckLJbJbJbJCyQvkRw5I4ckcOSFkjh+RCyQskLJHDkjh+RC+RC+RCyWyiF8kWyi2UQvkQvkQskL5EL5ELJCyWyQslsn05Z9O59O59O59O5YsW3Pp3LEolEolEolEolE9FfmpJpP4ddKGQQyGQyGQyHgh4IZDIZDIZDIfgQ/Ngjlh4IeCHgh4IeCGQyGQyHghkMhkMhkPor30pZLySyWSyWSyWSySWSyWSxslksl5NTJJZJLJZLJZLJZLGySSSRsmksTuSamNslkuGamLiY25NTJZLJZLJZJNJJdJJZLJZLJZLyyWSyXSaTWaSSSST0fb6C8r1yvn9UXerVPVX3dPVF0GLxo6L7s1KOddGxalvBsWGWLUtX1RFqOCxaGWLDgsSoJQoLcnosWpbltilsFsDjBbHLbFLYJ6r+5ml86quVeSqvvyLlXZ8vpUXQdF5z+5mp866C6kEEMgghkUVIINJBDNLGnJDItREMggisDRBFkQJEEMhkEEEEEEVarBBBDpHNFIpHRf3dBfhHT1Rd+X06+3T0qLwn43F36C/A5q+9PVFV+qLs6+3T0qcPcjkXvoPlfjcXddBdG1LeBLEySXzSSSSSTRskySSN3ZNJESSNkiZOxOxLpNiSSSaTsTsSSSSSSSSSSST0+Luhrhh351+DQ+RVdF7oh93T0qKrovdXzrlXicXdELnXUjqWyWyWjvREb1tksRuRW0FsiVyFkhZpCyWyWyJLJ7d6WhXoiFkhZLZIWRJZLZ5rZHGS2RLchZI3pG/LFI3rHT43CRrtzrwWK4+f10n3p6pw96vkQ+7p6VFV0XQfl/qdj/xAAsEQADAAEDAwQBAwUBAQAAAAAAARFREBIhAiBhMDFBUkADIpEyUGBxgRMz/9oACAEDAQE/ANv6janV/kX6Xu/SbP3eCvJWcnJyV5RWVnJyclZerwXqL1F6sFZXgrwV4L4L4ZXhlf1Zuf1Zu8M3eGbvDL4Zu8P+Dd4f8G7w/wCDd4f8G7w/4N3h/wAF8Mvhm7w/4N3+zcjcbv8AZuXk3I3I3I3I3I3LJuRuWTcsm5G5ZNyNyNyNyybkbjcbv9l8Mvhm7wbnhleCvBXhm54L4L4L4L4L4K8FeDc8G4pfQ/T/AKvUenPbCE51iItHTkrEQhPWndCfn8nOe2aLv6P6l+Uxf4T0/wBSNwupZ/IYv8JXutNnRw56lRUVFRdKbkVFRS60pSlLpyV4K8FeDnBzgrwV4K8FeCvBXg5wc4OcHODnBzgrwV4K8FeD/hXgrwV4ZXgrwV4ZXgrwV4K8FeCvBXgrwV4OcHJycnJyc6c/hrTf+rf/AJt+hGRkZHkjIyMjIyMjIyMjI/BH4OTnwR4RHhEeER4RzhHOEV4L1YL1fUvV9Sv6l6vqXq+per6l6sF6vqXq+per6lf1K/qV4OcF6sF6sFeCv6lf1K/qV/UvV9S9X1L1fUvV9S9X1K/qXq+per6lf1K8F6sF6vqXqwXq+pzg5wc4P3YR+7CP3eD93g/d4OSM/d4P3eDnwc+CMj8Efgj8EZH4IyP0pP8AI36VRUUqKioqyVZKslRTcslKirWlKUv9opUUpVkqyVZRVkqNyyVFRUVZKslWSrJUVFRV6OPRZCIiwbVhEWCLBFgiwRYFKRERERCRERYIjasEIQhtRDajajaiIhCEIhIgkkyDRCISREbVUbUbULpURtRCI2pEIJERDahoREQiIiIiwREQ0saxEIQhCE0hBr0fhF9L57H2L0F6i0eq9tPntXavZdj1Xov8z4Qv0urp6k974/A5ORU57Ec9/JzpyM5ORWnJycnIrDk+TkdOTkVOR2o5HRWI5OacjpycipycnJycnOvORLTnJzk5yQ5z2c5J5I8k8+t8I/8AXp+X6T7X6Hs+350fa/QXt2PtfutVp86PVaP31Xau/Gq/B+Daseu+y+hS86UqKilG+ClEyofUbjcLqUKi8lGVFKUpSiZS8lQ2jcjchNG4b5RSiZSielRdNxS60pS6UpS6X0V7f2R6rtXstPnR+3bjt+dHo9Xqu/5/JX5a7/nR9r1XstPnR6rT5Xb86Ptxqu1aPVaP8Tp9v++lz6XOfWhPI15IQSIQhPIkQhCEIJEJyiDQlwiEIMhBLyQhPJPJCaQnZEQhCEIQhCeSE8k1foL2N36+7+hbc3+xvVe70eq0+dHqtPlar2Wl5ej1Wj1Wj/GYu/p9n6t76X06c4KyjelZTnA7jVFK77FeBtz20orp8rR3ArPY5wfJWPVFeCvGlFo/dFL4L4KMrwUpfBSl1/4UvjS6XRd/SP8AS6X1fP5C0Xf86PVe77V7afOnV7artXstPl6PVaP41XatH+T0e5//xAA6EAACAQIDBwMDAwMEAgMAAwAAAQIREgMgURAhIjFBUmEEEzAyQmJAcYEFI3IzNGCRJHAUgqFDksH/2gAIAQEAAT8Ci3LQWDjvt/8A7IwMNwjv5/8AsPE+t7fZep6P0kVxy3v/ANiYv1vbH0cFzlUW79DfHU9yOpfEuRfEviXoviXoviXIviXovRei+JfEvRei5FyLkXIvjqXIuWpci5aly1KoqiqKr/0nj/X+jcqFteZatCi0KIrE3bKFNlYlYm4rErErEoihu2biiKIoiiKIpEpEtjoUjoWxLIlkdD24lkSxFiLY6ntryWIs8ss8stfcy19zLX3Fr7i2XcWz7ik+4pPuKT7jj1OPVH9zVH9zVH9zwf3PB/c8H9zwcfgriaIrPQridqK4naVnois+0un2l2J2l2J2/wD6VxO1FZ6FZ9pWehXE0RXE0RWeiKz0RXF7UVxNEVxNEVn2ouxO0un2lZ9pdPtLp9hdPsLpdhdLsLpdhfLsZe+xl77GXS7GXvsZe+1nufgy/wDFl/4s9z8ZHufiz3PxZ7n4sv8AxZ7n4s9z8We5+Mi/8WX/AIsv/Fl/4svfay59rLn2sufay59rLn2sul2lz7S6XaXS7Ssu0rPtKz0Kz7Ss9Dj0Rx+Dj8HH4OPwceqOPUpPUpPUpLUpLUo9SktSktSj1LXqUepa9S19xa+4o9Sj1KPuKPUo9S16lHqUepR6lH3FHqUlqcWpxanFqcWpxHEJ/oPUfV+j5vIxJDVNlRN12U20WzcU2U3lSJISfcSN/dstWhatC1FEWot0E9kt7IscqdDdzLt1RSm/tE31Q15KPUtepa+4o9Tj1FL/AJG2yoi56Cl4HJ6Cfgu2fyU8n8lHqUepv1KPU3lRi+f1PNfo1l3lHsaLflaFXQfwyOgolKMoOJThE9wueeS6i/5HTOq7GyOdHX5/U9P0ayMXysXzMr8zI8v+Rdfi5v4Op1+f1jpBfuXnufoY5GL5WL5mafMyPL/kXX4WJfB1Ovz/ANQ3enr5PePeP/kEZp/MyORi+Vi+ZmnzMhy/5F1/Rv5/6iv/ABJ7ZYvpqbmYOMrqVF8y/RMXzP52R5f8qkxfE/n9aq+lxv8AEeyPqPUR5L/8F631SpdBU/xMKd8a/KxZGL9ZL52R5f8AE6lUVWpctS6OpctS5alyLlqXR1LkXIuW1/AufxPmP5/UKvp8X/Bj2YUkpqpjeow5Roel+n5lzzXFy1L46l6L0XIviXx1L4l6Lkb9jK0LkXIujqXLUvjqXLUuWpVal0dS5aly1LkbyhvRctSq21K563ftsaqe3EsR7aLEWIsXksXks8ss8ss8ss8ss/Jln5Ms/KRb5Zb5ZZ+TLPykWeWWLV/9nt+X/wBlnl/9lnlntrye2vP/AGW/uWeWWLye2vP/AGWeWWflIs/KX/ZZ+TLPLLPykWflIt/Jlv5Ms/KRa+5lr7mWvvZa+9lr7mWvuZbLvZbLvZbLvZR9zKS7iku4pLuKS7ij7i2XeWy7yku8tfcy19zLX3Mtfcy19zLfLLX3Mtfcy19zLPyZb5Zb5ZZ5ZZ5ZYtWWLyWLyWLye3E9uJZHQtRZHQsjoWrQotC1aFq0KLQoim2nwVRctS5alyLkXIrHUuWpci5alUXLUuRciqKiHz+earCa8Meyq2emjSHzNFaF8S+OpfHUuRdEuiXQLoF0S6JdEuiXRLolyLkXIuRci6JdEugXRLonCViVgcBWBWHgrEuRVFUcBSHgpApAph+CkC2JbEtiWxLYlsf+KVKouWpdHUujqXR1L46l8dS5al61L46l8dS+OpfHUvjqXx1L4l8S6JdAugXxLol0S6JdAuiXRLol0CsS6JdEujqXaCXzsn9T/fZDHte/CizDxljTtXpsNfwRVF+goiiKIoUKFCm2hQpsoUKFNlChQoUKFCiKIoURatC1aFq0LUWrQtWhYtCyOhZHQsjoWLQsjoe3HQ9uOh7cdD24ntRPbie3E9tHto9teT21qz215PbXks8ss8s9v8mWeWWfkyz8mWfkyz8mWfkyz8mW+WWfkyz8pFnllnllnlnt+We2tWe2tWWeWWeWWeWe35ZZ5ZZ5ZZ+Uiz8pFn5Mt/Jln5Msfeyx9zLPyZa+5lr72WvuZZLvZY+9lr72Wy72Wy7y19zLX3Mtl3lsu8pLuLZd7LZdxSXcUl3Fsu4tfcy197LX3stfcy19zLfyZa+5lj72WPuZY+5lnlln5Ms/Jlnllnlli8ntrye1Hye3Hye3Esjoe3HQ9uOh7cNCyOhZHQtjoWx0LY6Fq0KItRRFEU+GmWhQoU/T+oVMbEX5PZ6XCkp1lh7jdp/7F9Yv/Jxf8v8A2R/UP91i/v8A+yP6mv8Aypfx+kn6hRdKVFjy6xFJMqipVFUVRValUVRValVqXLUqi5alVqVQ5IjjJuhVFUVRVFUVRVFUVRVFUVRVFUVKlUV21/41VFVqVWpctS5aly1Pch3F0dS5aly1L46l8dS6OpfHUviXx1LkXLUvjqXx1L46l8dS+OpfHUvjqXx1L4kcRMvRfHUviXxL46lyfX9D/Vf9z/8AVfonKg7mjDjC7ejFUURwlaKKLEWR0LIliLEWosjoWR0LIlqLY6FkdCyOhaidEjAgm2y1FiLUWotRYiyJZHQrG6hZEnFUMNKUSyOg4IsRYj24liHEoi1FqGkjc+RaWojbLky0lEoWli1ZaSXIlJRklv3lpb5Zb5Kb+ZQp5KeS0S3stLfJb5Zb5IxLS3yy3yyUN3UUS0tLSUeRaWeWWeWW+WYjUZqtd5b5KeS3yynlkFz4mU8st8ss8slF0fEyMd3Nlr1HB9zHF9zGn3Mp5H/mWvuLH3Mo6riZTyUerKeSj1N9eZb5Zb5Zb5ZTyRT37ynkoW+WOP5MitxaWlpaKJYixFkSyKKIsjoWR0LUOC0FFaFkdC1aFq0HFCitCiKFCgihQoNwFsoUQ3AvghUZuPchWmyTIx3bKbaItRvX6D+rr+9H/H9F1JfSKdGQw3J3SJSUSM1suVabVlWxTTdNlTGn0MFUgXx1E09nXK48VdmLJWmF9A8eKlQZelsxsWzkQ9S+Uh8hbWqotUVsmrtwlQuS6kuQskhzri1ITUlt65V9Tye5G62u8jy2YuKsONWRdUmS5CyTarFCkm6EpRjzdB48K03/AL7J8fqEtMicZLczDjRy/crtfJkeSyYmLGMlHq9mMv7kNdr+pZJytXIi6tjlFc2itdlZ38twhyjHmxNPlsxYORDkNqKqyHqIylSmx8iPLI+Qhuh7v47iu6o6zrvL5boorat+yb0JVi/qIcsqKidSUuhZUrRGG+LY3Kc9xiKlEWpIW6I5N9TdJ7jkRVXVkn0LnDyRdUTvrWphzqSmokMWUnyGR+f+sLjw/wBtil87ET+lnp1Vt7JxunvMOlaIxZ2owlw7VtxJ0MO9qrK0J40nyPTrqYs6I383IhFykS3RKOUjBTju2dcjlSSQycW47j2WnvZS2Bh4NzbY9yFV42zH/wBQ9pviZ9q2XTxMSkeS2RnKWJ4RLkYmJOqjDmYeJO62fMnda6cx4KjBuW+Rh19tVFk9VO2KpzZg4ftwq+ZB2wlPU4lvnN17UYV/ubzFv3WkcVWVl0MGUpRuf8bV9T2zxpSrbuivu1/Y9LGrlNksZwxEuhByaq1QcXieo4uUdkuQsmOpvEjRGHG2NDGteJxuiXISliuNFSCOSMFcUpajxHDFlc9xF1SZ6i/EmsKP8kYLCw6IwHiYrfE7RRSVFtfJkeS2TxJylbh/9iliQTeIYcJSl7ktdkOPFlLTb9y2zmoLeczFxHfZAWDGMavmYFd5ObjOK12VpUUPddZCSSoSkoohW3eRMXixLW6JGGlLEuity2MjkYjFbruLcafPchLdQlhzf3bjDwqE4ylPwInC7qeykR5ZUYibW4gqIpv2W7xJIe9EYWkormJE30PbTFFLkSESi6iwkckOspbyMUkY17luMBSS3l87qU3C+f8ArK/0f52Sl7aVHUwcS5fMxGJ9LMBUjsngqXUhFRW4lBSFtW2S49+xxqL01OpFUJwuRH0urIxS2KEV0KbOuRx3j2W76klVGGmkSEtlsX0GkMarEwoWxoMhC0lyLcRSbjGtTCwnHfLnsnG4lyFkmk2txKN0aEsKLjaQwoQ5IUaNslRPeRj70604F/8AuRfU9jVUY2DCEerb5GHG2CRFLTY8NOV2yfIWSXOOy2Omx70RVsrfBPBjOSb2KElNvUnG6LRgwUVRZJcmR5LYo4mG3bCp7M5uuI/4HuSMR0gzCjbBbX9S24sHKgtyI4UViSdCcblSoo0Pb47nsSrUUEtjSeyJPAU3UjFRVFsYsj5FaIguuRZVlW2mxZGIXPaxZHzy9fn/AKx/p4X+WxPDlzx6fwYUsOMt2Pd/An8rE9m4qNiZVFUVRVCZVFyKoqVLkXxL0XIuLkXovRci4qi5FyKjYpFyLkXIkxMuLkXIbEypUuQ5IUkXIuRcSKlyLkXIlLkXIvie5EvRiP3cRRX0rmK1JJFyLkXIUlUuRctSTux14L0QluLkXouROStFJULkXIuRJ74lyLkXIuRVXVLkXxL4lyItby5F8S5DlGj3kZKhfHUuRcibVP5KxaLkXx1L46lVciqLolyLkXcTKouRci5CaLkXIuRchPcXFyLkXCZUuLiuz/sr+5d4K+BPwXfiy78WXfiy56Cb0Ln2sufaVehXwL9jfob9Cr0N+gq6FXoVehV6Db0FdoVfaVl2lZaDu0FUq9Cr0KvQdTfps36FXp+g/q6/sQ/y2YHosGarKbMT0uDhtOE2YLrBfKxFCm2W5GFvRQoUF8EsSKFvR1ySdBb8jFOfu06ZWLIxZGLIxbJ4ii0tdjySrR0IQtoTnGHNnuX/AEGE21vMXEUImC21VrbRbI8skuRyRhzvjXa+mX7sseuR8iU1DDcmejUmpSfV7Z9Mr5rL9zyrrlWVZVlWxtLme9h9wmmtxHZu2rKtiddjyPZiOkTD5bX+k/qy/wDF/wDstiZvMD6F8rI7a7MWXQw1SKyLIy+K5sTqMw8Km989jnFdT34kMZt8tmNLoKcOVyEypVD5EPqcifqoxdEqmFje50ptYskhZJchZMf1FHSJgTc41eyK93Gr0WyWV8x2+7Jz/grXdhx/kSWHAjF4s7nyJTjCtSE1JVWSHLY2kt4mmqkcX3FLcYsqYTPTqmGjHvtrEh9KJc4mPNpJLmLkhRle3XY8fDUuZGcZcnsxfUKG5b2L1PJTjRsgTx8OLpXeRkpKqG1FVY8XGn9C3F0/USUeiKww46IjjYctylsllfMhjXSol/Jiz/uxijFxVhryX+opd0MOV2/Kuux40SMq9DHb+lGF9I8WCdK7JStRHHm506CPehWmSOTHxWnaiMIqNWzBncjF+rfyJf3XSMSEbIEcScpUjyMVtIuj0bqYU7lsW2c7S/GfTcR24mKoD9RPlQtlSrZht03nu7y6+Y9yJOrqx4sujoYM7lz2XVFk6/P/AFP/AGk/3WzBjJ9YfyziTSpgsjy+aIzGm5O1Hp40QzniCyLIyWF/c3siqIniWiJciELpNsjhcdWU4xmK25ns0a37yKsiYs3OVK7j00JLeSVUYytwyM4RjwqsjAw2lV83tYsmLKS6biDqjExYw5idVsYts/pZD093E2RiktxjSpBmBC2GyXTK/qHGL5o3JDux50+1E2sOBbWspvfoYEbYZI8tnqN7jGu7qTxbv7eEiODZgtdWPA4oxrU+iP7GDKc7nLlslzQlfi16IxXbBmFWxV2YqvxbYIwsNYUR8iM1FuTVZEcOc8VSmTcoYcreZgYKWHdLmz0y4WeoTcBynNWRjRGBhWIlbOblOVIowoe5jXRVIrZPplxP/wDBYjjG2Md5g4NvE+ZPCjNpvoYirSJFUeVdTE3xZgpUHuRCN0rmSdI7jDwZOVZbMbfREcOMETk60qOylFzMKqgtscm/Em2hYEpfXP8AgUUuRQtWyKQ0mWRXJEI02LbNw6sjPfu5Dq0QVFsngNtsjgvqW1RQlhYldxhYVhJbiWFVbiPpu5kYRjyMa62iIYbjzFk6/P8A1H/aYmzB/p/uRueJQwPRRwXW+75mR2ONJ1oR/YZCPG3lWRluJKe/ZZWVdvXZTZiYE3KsTDwrOfMaqiHpqSq9uJFSVCGDhw5LJIWSaqj3faTqYWHLFlfPaxbWqjg4rmInC6m2fTK/qWzFUpRoiEVGNDFhfGhhYHG3J1yw5bJQUuZCEYckT+kjHjciUblQirVTZLnEjGhOClSu32ZLEdsqVI4aitlsdFsRQSpsfIXIl6WEpVFFRVFsny/nK/qRRaZPueWPUnKT3UIRtQ1USoJVRFNddjSZJ2xIYV3MhgxjsniUdFshy24suiIRtRHKsq2uMXzRalyFkYsjFkkLJ1+f13+0xf22R9PCHV/OxFyKoviXCZUqi5FyEy5FyLkVKlSpcVKlxci8uKlSpUqNlSpd4LvAxMqVLvBiYijGtDDjLGndJbj+Cvgr4GJvQufaXPtLn2jbf2ib0LvBV6FfBIq9Cr0KvQufaNuvIul2l0uwufaXPtKyq+EufaXPtLpdhdLsIuVPpLn2lz7Ryl2Em6chN6FXoXeCvgk+W4ul2l0uwufaXPtKu/kVehV6FfBV6EW9+4q9Cr0KvtHJ05EW7eRV6Fz7Sr7STehV9pc+1lz7GXPtY27luLn2l77Ge5Kv0MufaysrvpLn2lz7WXPtZc+0i3V8JV6FX2lXoVehGuhV6FXoVl2kk30I1XQq9CeP0SIRlzaN+gq6FZdpWWhTfWhV6CqVloVloVlob9DecWiOLQ4tDiN5vOIrI4jiOPwcXg4jecRxHH4OPwO44vBxHEcXgdTecRWRvOvz+r/22L/j+iRQoUKCKFChTJTZ1y9cryvKxF8bqbZYeJiT4uRFUWR8hZHll0yvnlXN5GR5ZJchZJujiVFt+7LHrklyZHksksr5raxH3ZVzeWOVbPbjptWVZV86yMWR5EPn8/qP9DF/xf6Fi2VW1TjXnsvjqRxFLP1zNVIqg3Q95EsaJCVyMTEsIYjfNU2MqKcZcnslyIxklvHiRjzZBLmVPegXVQsjFklyFkl0yv6llXN5Ycsk+Qhc9s+ccv3ZY9cj5MjyWSfL+dlSuyX1pbXs+7KubyMhljlWWOWPP4llWRiyMW1D+fF/05/4sf6Bkdl1s5NmFJybZi4kr7URhvMX6ReEYEafBKc26IvlF73Uruqe+67kRlUU+KmzEU5Sp0MThjRHt7kQjbExVK6tKjjiz5mH9JIxN+4hhxitikm6E+Q1c95g/SYmHf1MRRjGiW8hGkBcsjFklyFkl0y/dlX1PLDlkn9OyPPbLmsiPv8A4yMw+v75HyZHksk+X87Vsa/uLa9i+r+Mq+p5VljljlWVc38SyMWR5ZchbUP55/RL9h8/0K2SwYS5iikqI9uNa0Et+y1CVNizSwm+TPZLaqgsJJCjQUaPbRD2vZItT2xw1ElvR7DfUjFRWy1EuRHkSdFUhO5bJchZJchZJdMv3ZV9Tyw+nJP6RHXbLmsv/wDJ/GXD6/vkfJkeWyqrsnyyy+qOX7sq5vLHrlj1yx65V1y9cvX4lkYsjFkfzvkS+p/v+hqVLi5FSpciqKouQmVKlxUqXFSpcVKl3gu8F3gbKlT+CvgbKsq9Cr0KvQdRNlZFZaG8dRVN5GNDeOoqm83nESrQ4jj1Rx6n9zVEq6nEcepx6nFqOtTi1OI4ji1N9WcRx6nHqji1I3anFqcepxEq0OIdwr9UceqHWqOLU4vBx6o3m+/mcRbKtdxx6o4/BGpxeDj1Rx6od1GK+nM49UcXgXueB3HEceqOPVCv8DrVHEcfg4jiOK/mcWpxHF4OPwcdeaOPVH9zVHH4P7mqIqVWcXg4ji8HEK7ecRxeDj8HEJSOI4ji8G831OI4vBxHH4OKvM4tTiOI3m84jiOI4ji1OLU4tTi1OIV2pxanFqcWpxam84tTi1OIdRVN5xam/Uf6DF/1J/uL1MBST+dbKFNtChQp+leViyMWRiyS5CySy/dl65Y8skuWWXNZfuyx6/vkfIhyWSXLK+ay/f8AxlX1PKubyrrlXxfc8vXL1yrKsjFkl+g9Rux8X/Nl6MDH30F8yyr9I8rysWRiyMWSXIWSWXrlXN5Y8skuWWXOOX78seuSXJkeSyT5ZXzWX7sv3PKubyrrlWXrl65euXrlWVZGLJL9B6z/AHON/kYeP6hcsBP/AOp7/qXJVw6fwYbrFfMvi6/E8rysWRiyMWSXIjkYsksv3ZVzeRkOWSf0iyS5xy/dlj1/fI+TI8lknyFklzWX78v3PKubyrm8q5vL1y9cvXL1yrKsjFkl+g9d/u8b9z/5M6EsSUubPT/R8yy9fneV5WLIxZGLJLkR5ZJchZJdMv3ZVzeWHLJPkLJLnHL9/wDGWPX98kuTIclknyyy5xy/f/GX7sq+p5VzeVc8v3PL92Xrl65VkYsjFkl+g/qMf/Ln/BH0zfOaF6XD64qIJJbvnuLkVKlS5FyLkXIqVKlxcV2VKlRsr4LvBV6FXoM3lWVZvN5vOI3m8dRVN5vN46iN5vN+oxJ05lHqUepR6jju5sSKeShQkhIp5KFCnEWlvllvllvkUd7LS3yyn7lCKKFvkp5JR3FvllvllvllvljW+O9lPJTyU8st8st4uZTyy3yynllvliRb5ZTyU8sp+4o+WWfky3yy38mSju5sp5KeSnkp5ZJb0W+WW/ky19zLfyZbxc2W+WWvuZa+5lr7mJcXMo9Sj1KPUo9Sm8o9Sj1KPUo9RdSj1KPUo9SktRJ15lHqUlqUlqb9Tqb9Tfqb9Ti1N9xSWpxanFqcWpvqUepv1N5v1N9TebzfqcWokzfqUepSXcb9RI36m8o9ToJG8o9Sj1GhfP6+P99/sQx/TrngN/yYcoYuLFRwaC5fPQoUKbabevzvK8ra1FkYsjFklyFkl0y/dl65Ycsk/pFklzjl+/8AjLHrklyZHksk+WWXNZfvy/e8vXKuby9cvXL1yvnl6/EsqySF8/r/APW/gsgluiiKWnzr9I8rys9ROUYbmQlJ82yP0o9bJxwJUZgzlXmzBfAsjFkZHJLkLJLK/qy9csOWSf0iyS5xy/flj1yS5Mh9KyT5ZZc45fvy/fl+55euXq8v3ZeuXr86yrIxfP8A1H/Vj/if/8QALBAAAgECBQQBBAMBAQEAAAAAAAERMWEQICFBUTBxkfChgbHh8UDB0WBwUP/aAAgBAQABPyGjfMTSk4fll/6H8nJfpbLZf+iLGO9TdZRCJIS/gSluNGwshchfLxeL5eLpcL5cLpdLpcLhdLpfL5fL+Au4a4WxbF5F4vIuErklEkk/+HJD/wASJ3l/oR0QtCwjYlCnwNWEnCIDgvIvIm0uIvIuI7BDgiwhECwiwi0i0h7qRZR2SyLYsIsYSwWC2d8m0l5LnkXn5IfkyKIuC6wHpR70ehHuRHH4I/EwCQI5YgniZL9iWfk/fFp5P2xbeSz8lj5LEfuC18ll5LPyfthbnlP2x+2P3J+zP2R+8LHyWfk508npZ6Ge1l95Pcy/8o/ZYI9n4MkIUhmbZB6ketHrRLDvpR7Ue5EjkEhnny6Orr0vy5L/AMnsZ7GWvk9jLHyT+YTxE8MB3iCRweCx8HpR60elYo+1F+XZel2XRcF6XheF6Xpc5/8A5GP04EBAdyJXhiX/AAKPbIuuquSge2JGg29BwRXnphDghcELgsELgjgOFCdCWsegSGO5hOC8DNUFqEJ1LItiyWh8ZpqNh1wlpOhIiekxKqCFOIQf6GnEA170Xpcl1h9Gxin36kEdCCOnGeOtGMZoxggj+egygbQe07GN6wEC18BonAmNMSEPEhGAI5oluJOqH6/wsi6zplshaCc9RokIip0NxIggZgEZD4FnTcbbEKqJ5EOTNDQQKVBqln2A0r/oo1GEtBaFWOhsQ2cmESEjM1OBddu5V1XTLoKOrV19JJR1qf8AoyX0wv45IcHuxXVdP4YTXrqTfrKH/wDNkmlq/wD759IIl0T65+xXHWugpTQurRlUdcr61Jv1lD/6wLVz0XUqQutNbhjZJM/ZIoH06ry2KnVq6+g461D/AOjN+hsISF0XUrQutAhVhHAjBmEhH8Jo62rFo+s2g1ohPqtCeJJP/GSiUSiVyQ5LyLQsi0LIsi7grQvl8viwqFmYks+lQNoutEfSCrByUESSxp6tmjKelBc8cLpdL5cwl4n3LxLUQlAkkqkXxr3zzDaWpbFkPmEmcsY8Imi4iVyibkOSHJJJJJI2kSeF9QqCEhlg7/k7vk73kS+fJe8i95EfyjR/6EfyEPyntZ6WexnsZ72elnsZ63hKAoih+Uk38hJ/IR58iM/2lzyLvkI/kI/kIgo/tPWz1Ml+Ymczn+bEG91HsrAvWR6CPQR6Cwy/8F/4Rf8AhF78F8XXhF34RfeFk5E9ZYBLJFE+1ij/ALHuZ62R/OfsC/5F/wAmX/I7nklqvkjFssCwIaIWxZFkWxYRDghcELghwQiERiyWi8WRbF8vj5RcQti+WBeLYulwvEdhHuaguteRXwLrguYTnchuuJ6kXMAwXy8X0XC9hXMfv4zfL5fL+I9g7J2SbDsnaJsIuMBHui6i8i8auMFYR28IttIl4w/eT3nBtGmEr/jJJJRJK5IclxFkWhaluWJqUlsWRY5gJJeLxfy018uF7Aulw7AreH2S2Gzo+pEuvqTVhIXcIQh2FoROQtBCl14RaLSLRAhwQ4RDghwQiEQ4IEOCCBAhwQ4IRAgR4I8ECHBDgtFpEeC0i2LIsiwWxbFkWhbFpm0SFt+Tu+TveS0/J3/JDz5FyeQ3f6CUonyL/kR/Ie5npZ72e1ntZP8AKS/KV/2ntZP85P8AOe5kfynrZ62etn7E/YnoZH8hGZ+chM/IR/Ie9k3/ALE/zHtZMJYY/uyX5cK18yxrgXXjHuuPBdeBx1+DmC4L3wX/AILnDkvIb3JwZekKD/ZnrY5/6ntZ72JfyFzyLnkehnsZY+cmSsS3LEtS18FqWRaRYRaRaRDghEIhEIggghECEQQiCGJAhEIhEIhfwrHfewWXNG6HJ6Ksq/8AQIu+wb/8wX8ZI9lMy/8AQor6/hpIskJ2gkIJkvIhyXEXi8i0LyLyLYtCyLyLIti8Jbod+BeLyLxeRcLxeReRcLyLyLxcLhDkgXCHJJJElYSTjP8AEnoTnbS/+TJKJRJK5JXJK5LhbFsWRbEOwsC0zrAQXCAT79LSCSSPmwK7hLxcwypk/grrviL+BFcbcLgcfUfIiiNSKk45bwFofCLhLeMj4BceSIPjEYHERbLJaFJQtlktDqDYywLu4EBtYDii4SyWBJohAsYkEt6EJlpEkDSpbGTqNEeWJ5ZSdzJv9CPLNXUz5Ch3s9jO4N46jvZPkd47mS6jO9ne8lf9hRULir8ne/OE9jFb/IVFWdzI8vyRTq/JM9bqK5iRf6HqeGVrPs1FoqJ8iZNya6nXkmUiUNfmGtA7D0n3hs3jEafYajQIoJoqNDScG6Fwa0/ONSgnzG4p8y8EpVMkUykU+Qxqap3jvZ7GRL+wmqZ3Mjcjy/I4p6vyIa3wYdhu2IFBOVC0IKC2RXoI9BYFsWxBoiLQWkQ4I8DWKCohwQ4ICWkqTWQiBYQo4lD3yIEoaRHfCFoKShVYpCEQ4GlIki0N2wnVE+vreNddKZFYpClnxUE2rgcoSJ0GDy2ysbSH5MGhBIjm9xo2FEY8xMTIoyk0oV5GlIe6E5Uj0iomJBrRlGKXJii0Kg+O3cSiSoOqRDKBRk2lLNxRI09VbEkjenomd6RUHwQ4nWEjQyqK5SsiUzVshLWK2IeOVJElRMpiFBPQhsy4ykpZOENWFuS3ISOjx+MfCyNvIbC5dz+BYfCyMkUiZGnpPuJElPBx0k5s39xZKkhAm0rCBh0FhUPDISEtWWFQoZKhSISWSnTuCkC1hIkbk61IokJyh6UVMdLU26oeVeR0wtEpeH2jJNI9ImObKWyiIQ+ghk1EpW4hNIcEJIxpuPQOIfMSdqxCMiC+vYQSxzTihJQ3X1u/BDF1qMLx2BcIMqTREmxR3EcpOrweTH0rhC9YcaoQ3VxhvhBSbobXgUAqmqMx/IFSGJNqRymZ8IVzAWFIXX0NiS1ENEvgKI1kisyiHdJ4RCu40uXYfAR3q4VLwoyR6ohC21ylmnVWhRdPQEd2+1DWk1En0txDmJei2WvTUkDb7dYH7+oPFt+rZWCUVhSopLEoyTFUqJUn1Jcw4IafAiZncJSjlGnkSOwYVXJsUVWTXre0isiFj8Y+Fg3qpUucUJaPk5FDYThNCxfxYpj5CaRMl2aur4HzVhq2aSbbFeCCEiPwcDbIUkoTBksq2UjreLZpsaSvhQyjJQyki0kxsLQQ4iEpZaLBDoSNNAkIsx3osZDphhTDIxVDY1qymIWRCg29GomZNmb4W6BJFhDWlncEYANBCQEY0GRkS7+BqMCdQs5LoUYZuLg8/gwkRgQEiQoweNiWmw2I7QppcrEeDTpELdNDSGk1qa+lkrnMmR8GwWCkEQprAisYOoVjSg0Ic5I2IJKFK74VHQrwMG6XwSqT5ESVIoyNlo4eg7UVENqWOWOXqxPKjSW0SNjneWRsCQT3NDtlEnQ7MDqTaTzhEDaYu40OynJ8wQ2OWreCSLkSgNmvYiCJ6jcJe0aGeknk+EfGwrSXUX0OcBUkuUNbVYyY+MLCBqgsCFZ1MjtBTrcUsIWsyXhAR8lJnCElUNignpwJKNFhQU5KhWjtX3xdCnI6ZbpheLbKpwK27ax2jaYLBEkFjAquuutd9sIiIFaOzQTKerRhShNCGAtYV7CfMKwrmDESzjj5S6JG8oPCckERUiMhEgmCGMLaEkcY4iBvjcBpQlSyGK8jSO94O54Lpr63P9DJiEqIvl/DkcBfqC9Zopob+BHLxh93xhONEkZU7538NLg5Few7+H4LDuFwvi31F8uF8eJDa7CZQXyfcjNQ4BkO+IDdBwXi8Xy6JbBMXS7g67uXy/8AB3/B3iKgSxqmd7wJ3PgaRuadGRuR4fghw/BrT0ZExUlcBWjuD01DeZMJhIHBXjAPkF6SDNCQkPWySYPez3vCxQ37T1M9zPayYPCh62IXrZqLQTBpvYnACr19a4/rg8rFxMDOBq5OOrQKQIEDRqWM5WQIjTgQghEIaFUgcDSKsqMUECVljKDERhQMSYowQQgjCkowggXQTQgggXTFvKYRtFinKRoKi33E1Mrp9d2zlYYnV7I0Nm9sUttwpe41gRkG5XwhcVY192WPhkgT5EEIgqG1gvnITyad2MECYUEEC+3l+8RnwPKdMp0HUYJZYsiXNKxTyz3gbhSJoxLFkhndBm1nIWTfryT4JjSWfW1GKUJHRjNDuIli8w39FCUlE2tBDvXYY/1D25IE44UOQrCSIQ6DRVYnUY8Ma2+SXB7EqOhFJRlKMjIuWqsgpg5r2cNmWiaNsVU1NRqd0qzbPoMmaMgh0ZRwYG0IhJ6GmoQxV4oR3YRrVTGbY6wfMHOwzJ63As27TosG0qZmWDuL+kjbmgGme5KktyRPgeWaIkdFRPvTg+40ctIGyQl7YULvleF7Cn6VCR7ruL01URW4XCBmplr7sFXC1diDMkNQCNKidtQnIhjZocg+g16gmmpWDoyjIgb25PormpmhGLwwFyJQuEQkqISNVYO75aFoJ2UgZxqaMhGkbmzBamzgJvpjQT2UVpwgQQM1ZNDcKSH8QL7O48ACUxydnLFaSYm3VdMDQifjS3GlQU0UYvKWUzuRiVpEhKBnCKg9BNUjTY1LY0Id0maOptUSkekggllRkgjQ0Iyl9+B26GT9RcIFkPyIh84UlGLQyxE3roIaDo1XoQM1erwf5ZaBR1m2SSNIaOJWlSg1lUqIP1N8XTG1BB9RETkUkT3EFKZZ6uwosoaQNWiEfJNXBfVEImGQ/uSGTq6ja2uDi064O7mPFJ2DUmUTqOTtm9DTHOpf9+X3F3mRdaFCJE9vvhR3CyLK05E+CarL7/BVtDlQTytlr7hIUwTGmqGkYxtAc5DZ2LRCdwaYWvI7B3kSulxEDwdCnF6Ia2g3IDUS2UFKSQho6o1ZjBB6ISQ0RnCsfXjA0hji7YSKiGWEjBdtqaBCioG32ELWpNEaTUn6BRBPBqLE21ymF1kn6f3GIjK9pK1naBdWjC6G7oza2FA+ZlqyThwLSWhsaVtsaYEiY1OCSUm0iYQuZmxGEqGvamSkbRZJlH2YbftkJRhSUYwGjQuiShH0piw+5l+FhzheolIiroIJUWR0KOCuEE1K40MPkfQkeQlKbYfPFLoWUYlCjByv3Dmj3b1eCW51uxCFr3GjUMQkLBEmhC6CQGKiIWFDsFkh9I3IYwLKVd5Us0kQkMQkIlu5VJ4VQV9oUrbDWavBqdTk2yDI3mLGjpa3jR1kLQllUZVOVRlMrrJI2RkMjnr0DJF0vFwgKkjjD5CF5IGotREiQIjSSB3iHDI3HrWjFZj9rwlYztZ3DuDyqGhQ7WdpLkPTMURtEJwklFEhPkO2qCSK5BcF4Lqlg0ueEkGbjTA3uFuiJYuC88l2XfkU19xd+S78l55NN6vIv/qX/ku/IlRn9RvbIGCpmZB03xcnyXHlF35Lvyaq3kvS9J8y9JFwvTcmXhNayMZvTUqLwiK8XMwD3FhUxmXJ6iEvVF9D3kKZqLoat7xgF2d/uS9NeryXuBdZuPez3s9jKiIEINX5lxYYyDrs8nqZ6WS5Pc9TLZY+Sz8ln5J4ha9EiSTxE8BPBC10RPFE8EWUTxQnxRPATxE8EPRQXCDtRPDAaGwiTsPpwp0LsJ2QLhRNowusk92P+A6GshwR4I8DQXUhiQElJCIwQIQQQRg0NGRhUsxZKSgTuUjCUaFohCEstRkpERhB9wWSj0XRhRjXKDeBJLD6gJ4k0P7cv3snwj42SldxUyQyV9IN/bCMfm4xhu75rhiS5qI6ex9XlVcqyOnSFAsHgpC6ySgn/AoxzOJwb0JxVDY+IOmlgq5HmbkaCPAlNWObRfUQgTIhaUl8CuTJysEEpbN6MEbaBylIioE9rrI0S1HPUSTooyUlGUoyfeF1QnQp5KpQVsUnvkCGJH9MjZ97GT4x8LJQ7MIilgzZlTCkTiBV9sZJPm4JkjaDTPfLu75Hm1PvhJIyplVctWRjZKME4voNpgxytC62v3NCroLoUYHQU4DcUwRel5Ga0iTUb3ZAYxVyupQCadgNK1EqxjCTQZhEhQ4cjIhEIukawsLgSEWCarmLULXBsR6mhxL22iHmAxEtCFPUBy0ylkpKMtQsn3hZHR26JdCnkrCoVMfkkZE5BGycdzI3iPjYJ4UuzBlGDJhYUm2ZfNwYpGmLE98u7vkZuytq+4nOE4P5icWKry1ZKMugWCwqFIh0w1oXW19yVu+ZdJ4mMoQI0IdxyI1DSZwLCMqytajCYTTvIwmJIRoFyYt2rQilCphqEoRSaRiUDUoeNrcXQG5xIwsG1y1rgUB70RreJThONQsn3hZHR0S6DymSsUImFFh8nJpjysZJ40CR2ih2wpJ1w+6swWEEH9ckPkXLtr3ZJ1g+5l+9lTXuIyKvLuyquR0y6MqkpyVoWG+ZZtbKwsJu/gMSECGBESzlKNQiRIYHrIcM7WfWQ4Y9dGdrO8d4lyNSgm4OwbEw57CgpkEzQocEfAiwJ4juqDx2HJQ4GUpE8UPHY09ibD6T6CepCUNGj2I7HgS3eITTO4oqjsHY8EcXgSPVHYO5HejsCU6TvR2PBH4g7XgVFQO14Ox4O9CTy0LRVCckaH9B6ELWoS4PB3j0IStI2lB8WvAkMmt10K/6DuFXVVO/wPQhcvAbwqcGlhPB6ERz8BUblwNLVqp3LwPj4D2o5H4G/osaGuQjmj6CNpQjg8H0HeO4RNHiKf6CPwSOfiR+CIaiqd4+nC+g1tSqfRhSH0Ex6o70fQd470JTancjvH0ncEpdBHEWtHej6SJ1O9H0nejuQlIdg7Xg7XgoqhAjj8EcXga4vBG5BLmdgjg8HchIVE5EcyAgpShYMWCxWDyMSEXjegplPrMTVkECBCEtcESBAhSQQQQRrhGEDWpBGLFjGBZKSjJSUZKMEZChZNncWR0YRiqsjplK4qYLDR3cv9cteSr9j4WT73V9GcfMy192Wp98qq8q6QWQ8p5VGVs7iwYuosDj7peFJZDSuqzdlqy75d8rqLJtFlLJSUZKSnJSUrKUZNncWR09FOhSyVxUyfIFk/pl+9k+EfGyffQsvWT+uVZb5+Wvuy1PvlVWXfmLIqsjynTKoyqV3F0FnSFXiOVHIbOpJtgkXWqyquVZTqLJULLXWCkpyVChZKSjJs7iyOjt0koZG1FGR/Pl/rl++yfGH8WT766Rv7Mq6UvmZfkZVX0xdAyrI6ZdGXSu4uusBjRJrTBiTXqsreVZSrldctQstZVGRsqkpyVChlKMj/IVMjo7dFso5KpRk+flnok+EfCyfdQsj5Z05Sr6R+ZlqZVlJ1ZZCfQMreSjLoZTkoF19V9aCxQfqJa/EFtNp1WJwyGBEiQnKQV4Y4Oxj1UJwdp2jOCYlisZ8E8CyWSeI2EZsGfpLpp1O87zuNKojipHIjkQCOHqMJqLgvS8N4GitWT5E+WS5ZT1dTRqzvHezvZS1Z3M9DwHcN0Z3PAd/kU1ZpHeyXInyNTqxaf7D3sUf9iZOXJEuRLkTJMV1QmEimEgr6uuA7xMHpeokS0Pqel4af5SO6W4n5E+RPkJyl1GTKeCCcHBeAlkogGp9TL0vS9LkTS1ZcFyX+DVzqLvFt/okhgfpR60R+sSc9SCgoJL9JEmuBgI/SR+sS3hCgu8grgrjuIKP0kipGE/QiIahnJARywbTlqOipHLEB0V/gNb5Q+7bFYFm7FhF1WJakCGCBGpBAgggQQQQNakEEEDIIwjAspZOAKclBRkoKclQpWT7wiMXT2yqrI6FHJUE0IIw+cIWO7K+5k+EfGyfdFTKVkdHbL9jKq+klVl3iyOvKyRWE5yr0Tpltp/AIknaPTX9BSYTMujULFirl3FkdcxZSyp+9ORpLT7nxB0uTjYiyc5nkoKMlJRkrlKybO4slAWRVZHQo5KxQsnzBZN/bLV3ZPhHwcn30LJ84WR0dsu7tlWUVeVfNl3CyPIY6RUxRvlVcjynTLoKOv8Yf/EACsQAQACAQIGAQQCAwEBAAAAAAEAESEQMSBBUWFxkaEwgeHxwdFAsfBQYP/aAAgBAQABPxBIEXvWEBvb+ZhIILcEp6lQIENcwhCH/sX/AI4//A39W/8AEIReBgry9TpIeL1KVGhoQgQ0OAdTgP8Az64L/wAM/wDbvhP/AAyPDQe+ggxg2chAQIDYNTQIQh9B3wItn3QXA0RsXSZKhhI7NO5GkJYdCGhDeml7WD8sdEO3nbx6eDck7WdlO3n7CP5SD7e6dh7n7KdrO2nelZSU6xSXMaXLIsvS5et//H3riWQZcuXLlwZZLJZLIpLlkv6d/VI8PmIajCEolamhDhIQwW8iWpJ6w/jKF/8ABK8/FK21sGwQQYEQW+idggPKVtZIxDryk5DQBIC7EPTepl2hq2INyIwP10/TT9NCQWxuxUmsz1nLL4/5ukvP4MoN/ebMXYgHaQ/Io8oovy98cFBFd5BEwNp9F+p0H6Srk9NIbMGK95nkyB+Mzm/tjKOf9mXyMr1T+4Z25p39idJYS2hGMzlf8qZw+/KLQp1lj8uJsMIpk4eWs4zfjNP/AAUp+xQnSzYJx8zyhzl8LTPQ07RNl7xG9/gzFu9Yc1esaSvVhTlekKsjDL/AnX95OZf3E63sIhWXxUJ/6UmUPgIdv+CDeV5hrEoqJsof7RQW+KpgXHRm5SQf+iJ/1xMw32mHIfaNRXphpDf9BphzC9T9mR/KkeV7Qgv9SDm70nYekKCQ6DRwYyXtEjc+7B9w+8vkhOT0M7J9mYufHQkA3MHRwSv+5P8AoRTpj9cQ5kjTC7TA+ZDSG/WaYTMs6uf1O59Q6/1O69TBhzBin2lRsYqmz1CrJ9Sjl9SvwpzAHadhfonGabrouEWg6BwENDVcQqLlCXMywoIqVgi4wpF2rLBvTglWTsp207adjO2i3JFVtINyihK4itCKq3KJPfN4o+JTCqM3bHRIhwvUMq5Z20XKs3ItxLRAa0FeJgFyS8BHmS1JtAUpeqBD2483M+dkQIqGGQX9ZMFD9Ep7o9KpiKJQ3OGpUqVKJUrRSASiARCASiUSkBKJUo1olSpiVKSjWpRK0VKJUqUSpRKJUqUSpWipWhCUSiUQNFEolJSUlEolEqUa4mNaJiXwGty5f0MBMTc6x27LFTKYsbAmb2vKGkMsItwiV88F2n/gT/gQ/WnZepQY9EAaNQRzJaU/QNHgIKfrpuXoGAQg6GhxPKOEqBDZDZCAFngltSmDpFAR4kxFqM8rCrGNhcpaaHmI2Lg25IKOJlFc0AVvOcLZ10SvYwzn3IhSs1tKUqztHiD9yuOjqEr36F/Vr/Hf8u+ImdbhwX9IdFRgxGKxkdmG4MQXlIRiK0oT54jETaMwcPrbPNLIJoOi4amprcGb059SX2QoPqMeEtbGEY6J9A5wYTZhpWlfR3fEeHFj/GP/AFKlTPEfSzDlDjxLome2QUcezjBxmjw/Y/7JXrGhFw0ENDQ0NGGm9NjwbJs+riMefr3+yG3EcfxorPHf+IaXL+rmsQgWPX/1DRg+gxQ5YX0BjAQ+gR4b+K5bwggXjFYjuENCGlQ1ITcmF8Js0vVhx3uWt9cfkh9X402fOpH/AC71v/Cv/Ifr3ocLoOJaFl3g1uKcG3p9n0DitvV6mZoKNSp5AyUiG3ExJcN9R0NK4Hhihrtm1DivguMeE3cJ9CmEFP56D9VWAaXD/JPpj/4B/lsnGjW8yo4zR0dDt4hhq8HahPrMFQEYpNYCrFi1y1A+2Efk5QYOhCHCOmzSahVFin6Toyp0lvx1wZ0qwiCS4OAeB1JcJTDgxSU6wgdMTEGXB4L4WXLhCWcFy9LlmjL0xLNb1vjv/AdF0uXLlyyWS5Z1neJ3J3CdtO39z9lD85P2k/dT9ppAnLKdxpB08GjsYrNBVoscSoWIzDhNDRXoG3jHj78xJbO8Em2M3lBfLohCEIQhwkFkTWzcxwByEDYJHpp2EJ/+wxLeH9dh+kxLeTZL1OjDip5lbRDqROsOZSbhPazspXyQfYR5omO6VP2EFLGg/wDdOUD4hrCciAiQUyXHJk/fR5Xugeidl7nQEr1lJXrKdZ5QRVCY1QOerxBQJWmyA7fNmGq9k2P5oq2vvi1mfdzKvyZ+3wPb3YsPzyftceUX3xs3Hd3iKShOf98bt/ahTyfEWu5W84TfzIWrne6Y6+dA6PkxWL782BkDb+bFbfNjRXz5Y2zHovhzNcL/ADFouh9/fA3c61IVn+JP3pFwK/CSnaR6H6h+rijtf87Qrp8v6Ssr7rUx49f9IFn4IU2D7Qo5+yR0/UT9Wjp0UAUq9aEw199DRxduJizE6j+opVF6n6Imf+CFf46gRv8Ae4frYdX9TFT7iW5vAiiJuVFXShwUr98A/sxQBhVbezAG6T3UWWr5UMAJKtjFd5UyNsvtMFfBD8fD8DDkeiH4qdnO2nbTsoByIQp0hBguKNsQLcaxnZzsIkyYLaH7SPQweCeUzPXzSjcwVwZ2MdrJlq90wjp9d+5MpAEdIS9tgMAe4lznKhCG0IQ1OC0xvKMl1iQfYwG4gkvNMtgdB6iHJ6gvP4nbeohzPU7h6lDs9QTZ+JW8Nu3WYrzPU7vpO/6Q/Sl8J7wtz02hlkfZg2Bzo6XPMEXelDlCpE6PvHmHtAbHwx3R7Q36PcXc1D2YOVXuAtpfLcE4Jc7hLJcuXLNLly4I8FS9CXL0uXocJLl8DUvS9HUzq8Trety/qXLly5eik7xK9SdpHoPcT390/aSjf3z97P3Mz0e2IUbelz99oie8KtzBthDRITaM1f6s6vwl2aeoNzPUq5nqd/4nd+J2PqPPHqC8nqdBIXVT1EdxHmPpF8/SGzZ6ndgDaD9NClbbzYfQNHgHdke4zHIPToAWD0DMq7tYQhnAAhCBLhCGt8Km5F9zD8dDoJ2odB6n6adlO2lXInaJ2k7JOyiWdudgj0EOgj0idonYJ2E7KAcidhF+SXbn1P1Uein6qKb+iVQZHYzm/BFt4NFQJ3Q0m7KdtM9z2jMNAJi/kSooPZP+rgR/IipSV8oAofdBXQfdBKp8ONw/lrKNi++dCBtFjP1rybcHid1wKM23NbKC3Iox1JmWMfOEL+7P+jjcz7MAf351m8uA7B98AFfIh+TzA+RqW3e/UU5fhynKRqFfiTYlKbr5lfAZ5lIh5Ln7wmS5l+V4gH8M332MRvncf0wLn+Wf8pOn9wGYv4Ut/FAX42mLlU9wQEz5aRQAHm0mOk9wCUP8ZHlj9kC39SX/ANZATLvXEcu3s1P+Qh+nmSYSvurFlBeoCi16qQJud1NLH7GJyfiLz15zh5vlxbf2ICJ8+WbvvmAP9sw0tO6mIK1ABD5Mw1XQ6/6YU18MD/pn61AtvSQPb1xbf1T9ND8FP0xDptLtE7RO0SsDKdJ2p2CUSk7RK6AJSPQh0p2idonaJ2iV9I0eHC0YxKQXh1/vFYP7APxCEIPANa1JWtf5daWfSNGXLgxh9E/wTiqVqVxVrWlcRqkrWpR9OuFly/8ANvRYQ0PqGjwEIh1/cYzCGhKgQhDgvjPqDrX+Iv0D679K+A4CPDcvgvhv6T/6Nw1X/AGjwEcybh9wEWBwCXDQ+ncv/Hr/ACr4LJcH6xocF8D9e/pH/lOrqMWc4PCfSNHhJnVfEupUKgSoGdCGhL40Evu6YxYuXeEaMw/LTtp++nYz9lP2k/dT9tP3E/eR/IQ/PT9hD8xHofcGWQcQ6rgnLP2U7Gfvp2nudnD8lH8tKuSfvp+ynYztJ2k7KPUnUMt2Er1les5Nw6ks0AgkslJZ1gkvVlkuXLgy5csmJiWS5cIslkvS4JLICWcW6IQb+lcGXxXB0Zety5cuWSzW5cuXpcsiJ3CPUlOs7adpO0iG5INt7J+4lG/sgv8AdE1vvguy/fSu0jzxO3h0k7SU8kOhjvBA2JT3EIOyiW4h0Up3E6ZnZSuAE2aKSnlh00NDaNxN6Ev6RHgGUpoxxorgIalcBLhCdNPCPNq4UGDJsQLhuurDXUWts9pCHo86XO1nYTtoIwY1Y7SdrKNhN1WMIBRBfJcx0Gp28ZhYiHSzs4G3WW8FxY70s5YCTZo46thMRigBoym88nICKBB9w73uWcn3FNIbqxNouoymu/cZMAOsQJhq7Ycr2QYLudYBGWVf7Ist9iH5uUbXfWPPLmMCUQ/3zKrkOg/vKlhrrD96fuIv8st+aIJr8ygUeyUG4ud86LtR/eCvarzUpNsp9kBy9iWTmO6UpyOsrj/bFN/ehcE132+uCGPfLAMnWEtcmBV/JG/v2EoNe2L3/vjSf7pX2vDFE0MV0Y/l5YyHumewspiibfO0AwcTeA7Kri+GOQ1DCgybSm/3xDpsClsBbthcT23G8ROsDioNXYjTok5yh3i3L+8aD/fAhPkhXU2Fj0C5f8sH+eWgFFCKFXetyi/zzv8AtoYv9pTPFfdixSPuBsL2zdF7YoJWGlhXK0NgEzXWWbJULAaMhy/RHIZFIUeJ+qnSE7b1CrD1KexDoJ2E7ZHHx0QMOJZyJ2CPMgQVvSVg3di5XAUxYoRE27MYiiiECGBKzMz7EOmgtpOiJZyTPUHkkUB2cmXH0DR4QOv0EWhoaGhKhKNVxLZTDwxDtB5RkbviG9cEirGUC2CQVhoW+iy5iiygmYhOSKQhvCobs20OURpJ8w27iCGq4zr5KBBAbYLUwwkaWCrkygEX0lRASlccyVd9ogTnUDTQm0ElMJbdx4TdobfjA7AGCfMc1GIIlk2OA7+jDcFx7COqJgVyjSEVeCFVF4YxogLnMYsEIXYkB3WZxFDWoV6r8ZgRxet027GGK6VZuxUCwW/zCQkNHEd+YaKCABauxLRlzVkJVzw7HiNIDW9a/MT4Dgt/MNHLzDEbpPribNDfnQMam251RL4EsMMV7NIuFBJ1NDt1YO/vTvOpYbRDDoCQBKxXuRDrAixZ2WDPiOkdfizZj9aIPmI3keiq5dkswEunRlBjPZDJIfapLBzAWEd7ma3N6bIiSgm6MEPcDzqDjEDmx8QZXCRRFaAj5peXst8sOAL3WdkoldnNWCtpuh0RT9iCS01vFq1rtvUetqyBdAQNBnmlnfBCEns5zBW4lVDjOOjqSgowvCRw2l6GhCVwGm5MTQR4hqYDDYaADcplh99ghHqC6LEW+ixX5m0tFw7QLmIxYJ59jJN5YNh5yy3pHNl3ptCRGzM68ow1sWBhaarYjDAyUeVsQ4bkIE1lOmDEHhobQojLZnIgSK6Q+tBL1qiF834+c6jsRDQ1Pd0BgVlp2CcgFvAQVsZMddQ3Oy9JnFbaLGGqRWKUm4RE8sPqs6iW7BfWIxAswbRALY5eJhEMs8w5L1/09KBTQFs3mdZuHIgPN42iJ1etF8gEX5JfPO6BoB3basKAqb8eENem115XAgzuurL6wqoK/aAK7K7vdjSvL/RFd2tXYi2lEOnYiOqmweQwYVEG16y7ETSW5MpBGGwa/MT4DQJwOm69COSXrC10g7AkhCLNz8TrX7iEYkbSAouFzIlkaauA43b69RKOSsCmtwcyUS4xdkxlFAwEGgYIhbwdWOqVYh2mzBwhWrG1F21AT4zNuOpvxTaiKzEIgj5CCZcVUGM9PcxE6Q/tIzI1KtlIq1zWVBWl6bk2VMfGcwQtyDZdY0uOIicyBYTxBsdypa1m5aG5D2TKBvvAYhgYAIAq4ZhHbUO7BhawHEbEwbd9oUDUYJAYomdFri5ViDVt4m24fReHB4cYYqm7Khd4amohpjg3JgQAboXIUqjLnRK9R6m6gkNiMeIsuhxEHYgAQ2ma6slhY5RgRRGc0YvbxU1iVoWRZEXOsxBJlvBHnMboYkqlcp3lIgq5mCXB1TfWVHhaNlLgJGIQwjjUpEuG67IinUlcbq2bsqzdAmiOaP7oteC0xqAkWOhogI3BEBpYvxLHAV0MzN3M0Ao53wyQyVl81izpQoAAA0dBGFtYIwCFs7i+9EM0yZRXgOEZgwzReU5woA2Z5kJsMGXCOu5pBzTZQUmJ2zJCQ2AYqz/ugAAUEEjpanJGHqkzcdPB8hPhNNxBNmfa2NoFbABOgwHlxABWUtZWiryoosbFg2s7JlTvQKLYAsD4QuOIKtRwcglQtnKm9l5YR93WsiZE25bbbcCFmNDd8TAR1+CwDvpEO5WryisQ0JvRTlruS66AKhCU5nCMzCyqI/YhiLGWr5wERBbijkmMDMxJi9KdJ8yGhxEdblwnox9wx6yXzSEHbJ2vP2wjHM0NCEIcF6bkDNy/DCKJ3YVbzdmDFjpu9HECWBG8Zm7NRpwwiWU7r6ncfUTi/phXhMa1fqVGV9Ty+p3H1HqMtNXKAu/U8nqeb1LevqMG8omH1Huep5fTLtr9QAUMELH1PL6hzL9MG6+mVAv1ABY+p2n1KXu+odz1G4L6hgV6RHm+p5PTLdr9QvuzNbgfN9Q6z6h1n0xLS2uiA2V9Mw3fsgvP2TLVvTBcjYxz2SrM6oiWFemV7xiu31LPbl6MB3X1LKqTkQR4Xsi+o2k+SBAnshY5fTMH9k5tvplBFtimKxho5MqLX0YMHV2Z3n0x0tRZwyhdejKDd9Mopt6Yhuvpjv7STZncfTE9/iyzB8WMbIty3aEz+mwcs+LDA5HkwhuwRZAU3IhVwOons0JdOx5UykFCp2Uqh+VhFe+i3lyPtPMmzNQJvGAaO8+mGc3dyYWOXpibv9oNs+yWCHwY7U1ziUCBrICzHde6bMe6JVGzowQHwRLl6MR/taCSD45QlKES/iIP9xP+JEVUSmcM/Qk/5SV/giFj9QhvZ/wEHVL9yD/3EXG2fcjTXyi35Skw/cIC43X7wv5Sna/2Tv8A0ndeyJofOdFj/sI/qo1SVDQ+8Ab0QM/vCQkk0/7TcX7gGy9yg/tL3WEv6hAelfmGZ+0ACGAoIIZd3TgCErS+Am5AeU7EAlYdRnSiM8mZdyh0JQgL2gZ2idqAEJeUgBPR4SgUq4EASkrGkKz2S4ComVBSSYHnIQCUSkohQKIiEVBUbEolJWEXgUlJWJhEUoiR9F0AhwQnvBiVKzEBzX3RXeQr6sKJX2ObEUZGQ0BEChDWI/TovNj6hLgIBBKW9TLAplUJAypRAWgO9SEqBaepRAuADecASpQSo7uiohEQn7sBOxKEPpjNYxnXkI9LuFyiUT0WBiUMTMJ6JgSkRAEN+CAlEqVHb5dFSo0FrUYn30qUhwzbpUqHKGyVK03vEcMmmKAiJaXmUCoYSZExBnA0TDBa6hBhghOtiBDsmICpWpiMWLQlKJf00oxLNQDRUmiiEqc8OI+hY6OGIMoDMKX9IMIMNDSoaVCb0DTCJbs2IfDFiXUO+hgNNs3PAqI5EO7Cy2QpN0rMR6iAiioYMcj4mNhyi4hb+6XCABBhFq5sweYxgfDDQ9IOSMBlUh3OSGtqOS8BYl6pl4+JcGDNyPDVikjMmxKIhubCrNwaoQqbvOGhpj442zGw3KlXWqnKonKGL6jB5t9l5wWI5Esw1oM+JrDSAWrMo1bGAXAjePq5oPMax3RoLlJ1IeuQWKRxfI+hGkWaXKnJ9E0KHbhQZR9pMwgZLo8p0TB7V1zKT7ovYWxuvMA2hlQ47WXOqKqDjuscMXl5usUdnRcSm2sh0rl6YbcBeWYrnNdo+IqFGP2UfnHoiF0zAFKF8JruQoEsw9KE+yLLSUrHFdkDZyABHebFZMi6uqMk3rM/V6hiGksdPiRWeDB6nMXeO7aK2SDQvOJdtDYigPXEuDjJKrQZKQeGr3YidZ1tKBbBvc5TBfMNBKpXYlQOHBiwqBbEOpnlI2xazu/AIsKuIYNd2AAgixsRsxVwR9KptKwW+YLLYhTqbOBg1Pp2dtJ3TC91aoJMAZvVD8imaUXK0NCGpHXenNARlbA5Oca2ITFzPKBgoEIzZHl4HERSzJAo8BEAsrEM7pGiHSIs3wMVop2QowxCjzGlE6hsDlCB5FsdphNc40RqwMc3mRHw1OeBqMQSdcA2cGdbmQT+ZCbW1QG7CPKAMJlOxqp245mWDLBJUBE7aU0azaVSNtBlyn2IoKHciKAZyKiDfkHrEoqNCcxouzmBHF5OhrvSlYTddLFoxFYW8cWdu0uXWRjsz7LvEHPYA1J0qgAA0pEDDRLeNI+4y8CtSptpGkYt5r2Ioz5HF5oJI/BVuMLqy5Gyv6Ezl1Oy+cuB4zki8KWiAyyFhAuN4jflRu0VFsul+hctdCA7dh3RUF+LNmpEQteAIzWbaZ+0Lnc9MG08iEnu2+IJOwOFMqjqxvE1GyrhdBJm4G0wwK1BdgWwvLCARD1UbtyMqWcAuAwhDeJN0HTc8RWdWIvKE6GdLaMtHYKoKqBgJsQ+ZiAidCIVUXUlsoSSBNhNwmdjLorXmGmOJUX98IhLLH0Us5u0zfBxAubQXHSENhsKxWt5ZdcIipIxkOyXuCAClUbevebDgX0I1eD7NfozdCKRsQoNclwGgYam0OPBRWMNoYTpheRDKxzUIRiGrsx5cC65UPtQbuBQDkRWyoqJAMBMMtlShL5Ged1K0U3Y5vMiwwuyAAAUGnKKsYPLLcdVWmL17zEsYq8s5V7AABsQjqNrUFdkiI6cBPhRgbxYwAARmMwxoXCKtBzTAK6xAnAEZjcNjLIq1dODJRuhRWxwAnfmZcO5GA8ggkWiDnAFaD2YuOZtjt2LqgAORKsZULi2byrFtu1GUSk+8pcyXUvyOaI9pKYHOg2JQ7kWQMciF9iFnUcghkg0RwodF5qBtAeta0nwjWtdQQVsEOZyxAGGV5oIBLyObv8ATiq0rcsbJGtKtVbOiUafdJKqAeZRlu9IsNLghmnSKy5dI0xGNt86XL0CedhopaXchWeEIKhrVU28QvSiYDzFghq/hHxHA6XpXZQMqA+wRUCoECECEIQ0uXwDrc7GNN0lGA3FSW07s707kQIQCroc64TWQDSVxHrFjEpMMA3H1BOXpDZ+GYcnpL6vRMO6J6MB0ZSFlUMrNJNf65lyY+5iAzhFY54wsIpLxSDfIBQSrmhAcliGSzRvcVuH3I/myUf3krFDrZABn7jyYdzO/mSvDCvd7h+QIhsn7kLP5CJE7Da4gb33IXZ9KP5EiW3pQJk2mKFSvf7Qg/8AQmT+FFKDxixDYp+yIhTXyBiX/wBCLB3KhG4vIu0hTv8AvKsq9k2pe4dd7lnEpgWR2H1NJP0iH41LGaY1Faj7ifuyf8hD82TNOdzn7AmZ+xsgnJ8pCoFjmkXauOSQTcvKRGn3bI/qYsh4O6T8hJ++I8j2wjX8cVtMcYlJ/KRy174qnfrgQs90KevBiyFlPnsiVHeDF1f7iPK89kyRfYlj/MTaYutJ+wJjUV+SB81S5hzX6R6n0hRv9JTtFcrh278wZVUdkctt+cM5yvNhVmn3mKGLhuoNS8gyC8qjFtIYujv1ho2AjkiX8hGFzXNn7yPK98Ob7J+/juqHR9jP38/Zxq/ndMnI9jDmexj+ciasRcqsWmPus/ZMvmPZluRLoV/tOYJXkPnBv+UALqEkJGCnMRF3ITW/pnRhKf3dGWGoy4QhCOpCVgFrJ207KB7AhCDbGhSA6Rojo7UT0gOkRUBCJSViImEalsOQjASiYSKqIQKgE3wYmJiIQEUDKYVEpGgYzzeQ30BEgEohLQ4QJUqVk4JSVoxgMSiASiYDAxK0xKfeJRKIVNzxDZuAiEQhr7UrWbyAwTEXCi9KIlMkaIuDJ7ZUqYmIivLoBKgPuIg6FJhlRJQ8TSGUSoch5MrEYMSoKHwpUpKNCGkDQgRW+bSpiVFd+YAplXnulCJBwO0WXzrUVEB8mrFm9AlSpylLYa7nC2QEAlExpbZU2xWQZ5shwnA8Hdz/AFzfwVAhCEDj3NN0QQAuWQrTErLaCFwF/wCychmM3+AaLly4somxhVXWLEAmCdIs92vIlWkJey3tFXUhYNmlpwBHEOnTQUSKQGfLmwgHbaW7OpHSqCCoJ8EsnibfBuw4aXo28WOrFUNhqM33aG2rc+WcF7eIHJwfKJgI71885TsJt0Axwzt4KN4hw69LrT8xPiIOdHTmxEHZgbIrLuVAgFjoOrRX4+rBCkZyITSmL93wLibfJoanv54GK/K1BmZHfZdbjdzfhquIrXmGrwy6XrvRY0XLlTZeNNvDNcGXLhxMIKXWQVSXrcIQIIGl6GmZuTYzfh1kcpZEcsTaZ1IOWNxRyjDcltd9NbcC4mN5cY7pS56ICulwOCjnBBIcGI0ICJX3mfYseyZPUHmHOZSmwiRS9tkZSKogO26VIEKBLYQ3isTC+MQaGw4igYOQ5wQmwNZm7ykdwJem7HhoGm7DoGguCxL1qyGDVjvyHBueItIdME7k2ph39TMQRijZnZqwhBjbrkLRlku8qfCaciMvpgsghJYO1Y0JMkTklhnZq6PD2aF5TrRHiXPNwr5tL1IvydWMQr6pSjvGBslU1IOpVIYRYKwFoa7mg0ZuTacC7K1NVe2yOKxpcNCEFg6PAKPUfifPSpepoIMHhrTawwJbesK0BLQmRnA9IMTKEh7IMTdOBllJfDImK3e7DsNFVFz3gwYw01FqCy9UQQhACmVgQMBku4Iol8ROrd0teuckOYhvTClRssrbQXiENowY3zIMWU2YMJG5vx+rQjFHZpjRn2YaXGMo6JwKl4l0quD5xB6pboosaIL4IaWELJTZ5U0sUsvpokALzSaoYXkJt+g0bxKdw5QbIbEjbQm8Bd5gxGMJgU3SMY9ZKneaRhLAzOUFPpwa3o4IM+XgYqR3wdWFIUlSiVUPtgENSQaVKhpeYa5qHHBvxlcG/NjUA0+3RcIOItQZcGKXHgHdkeydpA9MuXoaEIQhqQ02w6kOtKec78a94Z2zvy43lXOL84F3QZW9ZWAbWIf0Sv4Ik5ek/QQayMZbo2mJyotMpSMovqiKKmB88LkkD9yI7X+87f3M5ulAwnJ+6fvIc4e4xoEASoLgygaSdWCWFIiC4KYV7QPOyKLucoUe0aBSObFrZRs54EAgPvErk9MqUW8mA79XSYf0S/wo9Hqnf6Ialz2j0ffJU45kAzumBIAeIOUYqxli/wAFjAZk2KgB/wBUaYt8RsGXyhTf2ItHE9JzMVcvqZVuR5TeLfrUvb6MGzy2EUG4tbE2qfKVzepjbXAhxHp+8o4Y9iDnXhEyzWQuUdkHVAoNFAV0BqBZ8psMrlm6B8qH7if0ZEDu5lYjh8siNi+zP0bHDDKyeQ5TDFVd/Vg2z6Gf8hhgQ31Stx3y/uH5ZLiljynjvKc+KziNHkeGXbDXuMHnfRj3+rCKoHpfVljn8o8h9WDXL9owLbz0h+iy+R9YJc0eGWz+GGSuXpO30s/6DF6vVjbb0M/h5D8BEqe2Q6vXHDe0L7X1AP8AWyuqa/Dn/Ql7QM9JVceiBOSk1XX6obAfU6UBzWjkSho/0JyxPtE/A0QH4US7HqAP6zs/U7T1DmfCG+uLm3TdFiMsaHGbIiHI/mKFEhrQDCGhA0GXpcIcMKAdDtRIgKxAvLUqDaEAJXSipSsAqIlRECsBASpUrZAJKCVGCQlSpWgIBSVMSiAg4QCFaEtDggJjpCVHqDEWG5DGm2j9Mq4aGpWNaXFlFYhMRnzibUq4aYRU+sG2pOfx1dClvVK1w8qZP2TGqr7UOCnug8GbkEojFTY+JUrTEWqqViPSMqYjXgSRmpUqD2aXqboa1Hl5hKlEBUdsDXYzKVpRDThwQNXUtupakIQjwLOy4+ULrpMp1yqYEuGoy+LYw5gly4s3dL0doSasdsNoyokdCbDVJixsNBl6NpE0qCNrS5c3YsdL0ecUh0CbhNiXwbbwfHhtwfLODenWcM2/ENCfKTZLhojbx1NKX5+D5SY+JwKiyWOBV97ReqkTg/0eO71x4dj50NWY+TQ1CpnAbtVaCvJDXZCjDSpvcPfm0hr8RL1qFcBoIx1dGMS0GEmAiZFKxD7RCVAhoQlStNtHaO1DSomrejoGrdTZmzVix1XpuJtNb0bNbmZHiXqs5scSRDQ3KaaGudkWXL04capPl8AKeFVfZmxoQlAdXDUY7/HUjN+quP2Jd4nBsS2cG77sNuBFMyOhofWcONfNzOXAk4Q4Bl6/J4GO+GhpzcLmg67IrgcS9N6bdbjLzIOD4ybTiIQhGOqYiFe/2DAxAAAI7kYk2ENCEGGprs01arEW4GDgs2YS9GDCLHAsk2HAqIrGixZQMyB0dN+YGXBgwevUXBl7x4eNL0ohjwHEbcHzjS9NktCtK096ajFfkwYOu6dmpGDPm4PlIK8aXL0vsltiSmEADqsODcQMuXLirwkvgx8hwq9MujLnn4LjZGhWlqIOqxJIPABaHA5x5sJcJuRDCOnxo8OB19xNpxDCEvR1dpfToT2rEDqYxV0ZyES/tyuhDQ0OLAgLmd2VOWdNjMK8r3WU83Se96geVgejO0ynRiYWHKYm0v0Yrql+qWDOBG6dBQ673LPyid6QqK0HoCdtGmQjBioQLkSPfCq4etJT9Mrp+oEhPV6BdIRlQtzjhVrWlVM2Fa+8b+alT/PGMc7SIp/lzu9sH+eKf7o0DcOsp+eUCiBt/ZH9mFdz+sMP54r8kHIqx80wUX3FP98LL+efuZub55sGtFC3FXiF5vzB+TgspfMwgE1nB53lilLsuc6Xumx/sh+emD+aZabznL/mi/zyq8l94wy2ObOjhypCs1j++Eg9tvIYUFe+UFfLH8/B8zywrt+aplwY/vA90+8W5PhIHn+UiCuXesOnfeKf3kqZ9EoE7Y3ZY3TqYhaG7paWP4IndeiU4d3lj+KI9R6ndeifhY3j3n/AJ/yEyGfppg0vc6HwhzfjHk/Cc3DfJeRT7QP8dMekjAp9TkSfaH6Uro+p/wACFWf6wfrlR/7kf6kAU/8AQl5u9ELd3pK1a/acqyV8/qLc8Ld3qeOIQZy7Zko3cOrm9pzNpwVoQho8INTcwame5TM19prDzAIKoqGgY0GEphw7Je4dInaiOkogXbA9J2IGVZSAysrKwKxMZpEQEDKEqU0kolEojATbLCXomwROVxY8Bz4Im/MjDS+DJ0WIbSUgcHVow1weC0Aa4RwfEpoqfJS8WgS8XQcO7ykNMTBzrjt+p0qVAeibWhph52Wo4Bn7+E+BDg2PAwV5OBJT78OC60lSoaI1sJa1wkQmsbJWUNWLLzwO0cqVKm54gwQjNpS48HEQho8DtGB5yFAhgoy0Ab5AQhtCHAOB0Zu8DZomrp5ODahtqzdofoO2F3IFk72oVFavRDmrdBw3nOY2osNoabs2tSbs2eD/AEJ8LR03S2cHwJsjo6E0N5vaIhp/pz4RoR0zaQhCHw9COnzevOfLz43hbYcHz02cHy+joah0J8Y4GfN0dHTDgf8ATwt+H0ejJwbvmGuyb3zOUdNybNGKzfm1qakIcLp/0urP/9k=;" vertex="1" parent="1">
                    <mxGeometry y="740" width="1599" height="315" as="geometry"/>
                </mxCell>
            </root>
        </mxGraphModel>
    </diagram>
</mxfile>